<?xml version="1.0" encoding="UTF-8" standalone="no"?><!DOCTYPE svg PUBLIC "-//W3C//DTD SVG 1.1//EN" "http://www.w3.org/Graphics/SVG/1.1/DTD/svg11.dtd"><svg width="100%" height="100%" viewBox="0 0 300 214" version="1.1" xmlns="http://www.w3.org/2000/svg" xmlns:xlink="http://www.w3.org/1999/xlink" xml:space="preserve" xmlns:serif="http://www.serif.com/" style="fill-rule:evenodd;clip-rule:evenodd;stroke-linecap:round;stroke-linejoin:round;stroke-miterlimit:1;"><g><path d="M157.979,165.866l0.135,0l0,-0.721c0,-0.193 0.005,-0.345 0.016,-0.455c0.01,-0.11 0.039,-0.204 0.087,-0.283c0.048,-0.082 0.117,-0.149 0.207,-0.2c0.09,-0.051 0.191,-0.077 0.302,-0.077c0.155,0 0.296,0.057 0.422,0.171c0.084,0.076 0.137,0.169 0.16,0.279c0.022,0.11 0.034,0.266 0.034,0.468l0,0.818l0.449,0c0.174,0 0.307,0.04 0.398,0.121c0.092,0.08 0.137,0.183 0.137,0.309c0,0.162 -0.065,0.274 -0.195,0.339c-0.131,0.064 -0.317,0.096 -0.56,0.096l-0.229,0l0,2.207c0,0.187 0.006,0.331 0.02,0.432c0.013,0.101 0.049,0.184 0.108,0.246c0.058,0.063 0.153,0.095 0.285,0.095c0.072,0 0.17,-0.012 0.293,-0.037c0.122,-0.025 0.218,-0.038 0.287,-0.038c0.099,0 0.188,0.039 0.268,0.117c0.079,0.077 0.119,0.173 0.119,0.288c0,0.193 -0.108,0.341 -0.324,0.443c-0.216,0.103 -0.526,0.154 -0.931,0.154c-0.383,0 -0.674,-0.063 -0.872,-0.189c-0.198,-0.126 -0.327,-0.3 -0.389,-0.523c-0.061,-0.222 -0.092,-0.52 -0.092,-0.892l0,-2.303l-0.162,0c-0.177,0 -0.312,-0.041 -0.405,-0.123c-0.092,-0.082 -0.139,-0.186 -0.139,-0.312c0,-0.126 0.049,-0.229 0.146,-0.309c0.098,-0.081 0.239,-0.121 0.425,-0.121Z" style="fill:#7882ff;fill-rule:nonzero;"/><path d="M164.598,168.494l-2.401,0c0.003,0.272 0.059,0.512 0.168,0.72c0.11,0.208 0.255,0.365 0.437,0.471c0.181,0.105 0.381,0.158 0.6,0.158c0.147,0 0.281,-0.017 0.402,-0.051c0.122,-0.033 0.239,-0.086 0.353,-0.158c0.114,-0.072 0.219,-0.149 0.315,-0.231c0.096,-0.082 0.22,-0.193 0.373,-0.334c0.063,-0.052 0.153,-0.079 0.27,-0.079c0.126,0 0.228,0.034 0.306,0.101c0.078,0.068 0.117,0.163 0.117,0.286c0,0.108 -0.044,0.235 -0.131,0.38c-0.087,0.145 -0.218,0.284 -0.393,0.418c-0.175,0.133 -0.396,0.243 -0.661,0.331c-0.265,0.088 -0.57,0.132 -0.915,0.132c-0.789,0 -1.402,-0.22 -1.839,-0.659c-0.438,-0.439 -0.657,-1.036 -0.657,-1.789c0,-0.354 0.054,-0.683 0.162,-0.986c0.108,-0.303 0.265,-0.563 0.472,-0.78c0.207,-0.217 0.462,-0.383 0.765,-0.499c0.303,-0.116 0.638,-0.173 1.007,-0.173c0.48,0 0.891,0.098 1.234,0.296c0.343,0.198 0.601,0.454 0.771,0.767c0.171,0.313 0.257,0.633 0.257,0.958c0,0.302 -0.089,0.497 -0.266,0.587c-0.176,0.089 -0.425,0.134 -0.746,0.134Zm-2.401,-0.681l2.226,0c-0.03,-0.411 -0.144,-0.718 -0.34,-0.921c-0.196,-0.204 -0.455,-0.306 -0.776,-0.306c-0.305,0 -0.556,0.104 -0.753,0.31c-0.196,0.207 -0.315,0.512 -0.357,0.917Z" style="fill:#7882ff;fill-rule:nonzero;"/><path d="M167.759,166.424l0,0.145c0.216,-0.278 0.452,-0.483 0.708,-0.613c0.257,-0.131 0.551,-0.196 0.884,-0.196c0.324,0 0.613,0.069 0.868,0.207c0.254,0.138 0.445,0.332 0.571,0.584c0.081,0.147 0.133,0.305 0.157,0.475c0.024,0.17 0.036,0.387 0.036,0.65l0,2.233c0,0.24 -0.056,0.422 -0.169,0.545c-0.112,0.123 -0.258,0.184 -0.438,0.184c-0.183,0 -0.331,-0.063 -0.445,-0.189c-0.114,-0.126 -0.171,-0.306 -0.171,-0.54l0,-2c0,-0.395 -0.056,-0.698 -0.169,-0.907c-0.112,-0.21 -0.336,-0.314 -0.672,-0.314c-0.219,0 -0.418,0.063 -0.598,0.191c-0.18,0.127 -0.312,0.302 -0.396,0.525c-0.06,0.179 -0.09,0.513 -0.09,1.002l0,1.503c0,0.243 -0.057,0.425 -0.173,0.547c-0.115,0.121 -0.264,0.182 -0.447,0.182c-0.177,0 -0.322,-0.063 -0.436,-0.189c-0.114,-0.126 -0.171,-0.306 -0.171,-0.54l0,-3.468c0,-0.228 0.051,-0.399 0.153,-0.512c0.102,-0.112 0.241,-0.169 0.418,-0.169c0.108,0 0.205,0.025 0.292,0.075c0.087,0.05 0.157,0.125 0.209,0.224c0.053,0.1 0.079,0.221 0.079,0.365Z" style="fill:#7882ff;fill-rule:nonzero;"/><path d="M172.274,165.866l0.134,0l0,-0.721c0,-0.193 0.006,-0.345 0.016,-0.455c0.011,-0.11 0.04,-0.204 0.088,-0.283c0.048,-0.082 0.117,-0.149 0.207,-0.2c0.09,-0.051 0.19,-0.077 0.301,-0.077c0.156,0 0.297,0.057 0.423,0.171c0.084,0.076 0.137,0.169 0.159,0.279c0.023,0.11 0.034,0.266 0.034,0.468l0,0.818l0.45,0c0.174,0 0.306,0.04 0.398,0.121c0.091,0.08 0.137,0.183 0.137,0.309c0,0.162 -0.065,0.274 -0.196,0.339c-0.13,0.064 -0.317,0.096 -0.56,0.096l-0.229,0l0,2.207c0,0.187 0.007,0.331 0.02,0.432c0.014,0.101 0.05,0.184 0.108,0.246c0.059,0.063 0.154,0.095 0.286,0.095c0.072,0 0.169,-0.012 0.292,-0.037c0.123,-0.025 0.219,-0.038 0.288,-0.038c0.099,0 0.188,0.039 0.267,0.117c0.08,0.077 0.119,0.173 0.119,0.288c0,0.193 -0.107,0.341 -0.323,0.443c-0.216,0.103 -0.526,0.154 -0.931,0.154c-0.384,0 -0.675,-0.063 -0.872,-0.189c-0.198,-0.126 -0.328,-0.3 -0.389,-0.523c-0.062,-0.222 -0.093,-0.52 -0.093,-0.892l0,-2.303l-0.161,0c-0.177,0 -0.312,-0.041 -0.405,-0.123c-0.093,-0.082 -0.139,-0.186 -0.139,-0.312c0,-0.126 0.048,-0.229 0.146,-0.309c0.097,-0.081 0.239,-0.121 0.425,-0.121Z" style="fill:#7882ff;fill-rule:nonzero;"/></g><g><path d="M87.82,118.402l0.135,0l0,-0.721c0,-0.193 0.005,-0.345 0.015,-0.455c0.011,-0.109 0.04,-0.204 0.088,-0.283c0.048,-0.082 0.117,-0.149 0.207,-0.2c0.09,-0.051 0.19,-0.077 0.301,-0.077c0.156,0 0.297,0.057 0.423,0.172c0.084,0.076 0.137,0.169 0.159,0.279c0.023,0.109 0.034,0.265 0.034,0.468l0,0.817l0.45,0c0.174,0 0.306,0.04 0.398,0.121c0.091,0.08 0.137,0.184 0.137,0.31c0,0.161 -0.065,0.274 -0.196,0.338c-0.13,0.064 -0.317,0.097 -0.56,0.097l-0.229,0l0,2.206c0,0.187 0.007,0.332 0.02,0.433c0.014,0.101 0.05,0.183 0.108,0.246c0.059,0.063 0.154,0.094 0.286,0.094c0.072,0 0.169,-0.012 0.292,-0.037c0.123,-0.025 0.219,-0.037 0.288,-0.037c0.099,0 0.188,0.038 0.267,0.116c0.08,0.078 0.12,0.174 0.12,0.288c0,0.193 -0.108,0.341 -0.324,0.444c-0.216,0.102 -0.526,0.153 -0.931,0.153c-0.384,0 -0.674,-0.063 -0.872,-0.189c-0.198,-0.125 -0.328,-0.3 -0.389,-0.522c-0.062,-0.223 -0.092,-0.52 -0.092,-0.893l0,-2.302l-0.162,0c-0.177,0 -0.312,-0.041 -0.405,-0.123c-0.093,-0.082 -0.139,-0.186 -0.139,-0.312c0,-0.126 0.048,-0.23 0.146,-0.31c0.097,-0.081 0.239,-0.121 0.425,-0.121Z" style="fill:#ff0076;fill-rule:nonzero;"/><path d="M94.115,122.498c-0.297,0.225 -0.584,0.394 -0.861,0.507c-0.278,0.113 -0.589,0.169 -0.933,0.169c-0.315,0 -0.592,-0.06 -0.83,-0.182c-0.238,-0.121 -0.422,-0.286 -0.551,-0.494c-0.129,-0.208 -0.193,-0.434 -0.193,-0.677c0,-0.328 0.106,-0.608 0.319,-0.839c0.213,-0.232 0.505,-0.387 0.877,-0.466c0.078,-0.018 0.271,-0.057 0.58,-0.119c0.309,-0.061 0.573,-0.118 0.794,-0.169c0.22,-0.051 0.459,-0.114 0.717,-0.187c-0.015,-0.316 -0.08,-0.548 -0.196,-0.696c-0.115,-0.148 -0.354,-0.222 -0.717,-0.222c-0.312,0 -0.546,0.042 -0.704,0.127c-0.157,0.085 -0.292,0.213 -0.404,0.382c-0.113,0.17 -0.192,0.282 -0.239,0.337c-0.046,0.054 -0.146,0.081 -0.299,0.081c-0.138,0 -0.257,-0.043 -0.357,-0.13c-0.101,-0.086 -0.151,-0.197 -0.151,-0.331c0,-0.211 0.077,-0.416 0.23,-0.616c0.152,-0.199 0.391,-0.363 0.714,-0.492c0.324,-0.129 0.727,-0.193 1.21,-0.193c0.54,0 0.964,0.062 1.273,0.187c0.308,0.124 0.526,0.321 0.654,0.591c0.127,0.269 0.191,0.627 0.191,1.072c0,0.281 -0.001,0.52 -0.002,0.716c-0.002,0.196 -0.004,0.415 -0.007,0.655c0,0.226 0.038,0.461 0.115,0.705c0.076,0.245 0.114,0.402 0.114,0.473c0,0.123 -0.059,0.235 -0.177,0.336c-0.119,0.101 -0.253,0.151 -0.403,0.151c-0.126,0 -0.25,-0.057 -0.373,-0.173c-0.123,-0.116 -0.253,-0.284 -0.391,-0.503Zm-0.081,-1.736c-0.18,0.064 -0.442,0.132 -0.785,0.204c-0.343,0.072 -0.581,0.125 -0.712,0.158c-0.132,0.034 -0.258,0.1 -0.378,0.198c-0.12,0.098 -0.18,0.235 -0.18,0.411c0,0.182 0.07,0.336 0.211,0.464c0.141,0.127 0.326,0.191 0.553,0.191c0.243,0 0.467,-0.052 0.673,-0.156c0.205,-0.104 0.356,-0.238 0.451,-0.402c0.111,-0.182 0.167,-0.481 0.167,-0.897l0,-0.171Z" style="fill:#ff0076;fill-rule:nonzero;"/><path d="M97.496,117.198l0,1.832c0.231,-0.234 0.466,-0.413 0.706,-0.538c0.24,-0.124 0.537,-0.187 0.89,-0.187c0.408,0 0.766,0.095 1.073,0.284c0.307,0.189 0.545,0.463 0.715,0.822c0.169,0.358 0.254,0.784 0.254,1.276c0,0.363 -0.047,0.697 -0.142,1c-0.094,0.303 -0.231,0.566 -0.411,0.789c-0.18,0.222 -0.398,0.395 -0.654,0.516c-0.257,0.122 -0.539,0.182 -0.848,0.182c-0.189,0 -0.367,-0.022 -0.533,-0.065c-0.166,-0.044 -0.308,-0.102 -0.425,-0.174c-0.117,-0.072 -0.216,-0.146 -0.299,-0.222c-0.082,-0.076 -0.191,-0.19 -0.326,-0.343l0,0.119c0,0.225 -0.055,0.396 -0.166,0.512c-0.111,0.116 -0.252,0.173 -0.423,0.173c-0.174,0 -0.312,-0.057 -0.416,-0.173c-0.103,-0.116 -0.155,-0.287 -0.155,-0.512l0,-5.238c0,-0.244 0.05,-0.427 0.151,-0.552c0.1,-0.124 0.24,-0.187 0.42,-0.187c0.189,0 0.334,0.06 0.436,0.178c0.102,0.119 0.153,0.288 0.153,0.508Zm0.059,3.564c0,0.477 0.111,0.844 0.335,1.101c0.223,0.256 0.516,0.384 0.879,0.384c0.308,0 0.574,-0.131 0.798,-0.393c0.223,-0.262 0.335,-0.638 0.335,-1.127c0,-0.317 -0.047,-0.589 -0.14,-0.818c-0.093,-0.228 -0.224,-0.405 -0.395,-0.529c-0.171,-0.125 -0.37,-0.187 -0.598,-0.187c-0.234,0 -0.442,0.062 -0.625,0.187c-0.183,0.124 -0.327,0.304 -0.432,0.54c-0.105,0.236 -0.157,0.517 -0.157,0.842Z" style="fill:#ff0076;fill-rule:nonzero;"/><path d="M101.997,122.445l0,-5.203c0,-0.24 0.055,-0.422 0.164,-0.545c0.11,-0.123 0.257,-0.185 0.443,-0.185c0.186,0 0.336,0.061 0.45,0.183c0.114,0.121 0.171,0.304 0.171,0.547l0,5.203c0,0.243 -0.058,0.426 -0.173,0.547c-0.116,0.122 -0.265,0.182 -0.448,0.182c-0.18,0 -0.326,-0.063 -0.438,-0.189c-0.113,-0.125 -0.169,-0.306 -0.169,-0.54Z" style="fill:#ff0076;fill-rule:nonzero;"/><path d="M107.919,121.03l-2.401,0c0.003,0.272 0.059,0.513 0.169,0.721c0.109,0.208 0.254,0.364 0.436,0.47c0.181,0.105 0.381,0.158 0.6,0.158c0.147,0 0.281,-0.017 0.402,-0.05c0.122,-0.034 0.24,-0.087 0.353,-0.159c0.114,-0.071 0.219,-0.148 0.315,-0.23c0.096,-0.082 0.221,-0.194 0.373,-0.334c0.063,-0.053 0.153,-0.079 0.27,-0.079c0.126,0 0.228,0.033 0.306,0.101c0.078,0.067 0.117,0.162 0.117,0.285c0,0.109 -0.044,0.235 -0.13,0.38c-0.087,0.145 -0.219,0.285 -0.394,0.418c-0.175,0.133 -0.396,0.244 -0.661,0.332c-0.265,0.088 -0.57,0.131 -0.915,0.131c-0.788,0 -1.401,-0.219 -1.839,-0.659c-0.438,-0.439 -0.657,-1.035 -0.657,-1.788c0,-0.355 0.054,-0.684 0.162,-0.987c0.108,-0.303 0.266,-0.563 0.472,-0.78c0.207,-0.217 0.462,-0.383 0.765,-0.499c0.303,-0.115 0.638,-0.173 1.007,-0.173c0.48,0 0.891,0.099 1.234,0.296c0.344,0.198 0.601,0.454 0.772,0.767c0.17,0.314 0.256,0.633 0.256,0.958c0,0.302 -0.089,0.498 -0.265,0.587c-0.177,0.089 -0.426,0.134 -0.747,0.134Zm-2.401,-0.681l2.226,0c-0.03,-0.41 -0.143,-0.717 -0.34,-0.921c-0.196,-0.203 -0.455,-0.305 -0.775,-0.305c-0.306,0 -0.557,0.103 -0.754,0.31c-0.196,0.206 -0.315,0.511 -0.357,0.916Z" style="fill:#ff0076;fill-rule:nonzero;"/><path d="M110.032,118.402l0.135,0l0,-0.721c0,-0.193 0.006,-0.345 0.016,-0.455c0.011,-0.109 0.04,-0.204 0.088,-0.283c0.048,-0.082 0.117,-0.149 0.207,-0.2c0.09,-0.051 0.19,-0.077 0.301,-0.077c0.156,0 0.297,0.057 0.423,0.172c0.084,0.076 0.137,0.169 0.159,0.279c0.023,0.109 0.034,0.265 0.034,0.468l0,0.817l0.45,0c0.173,0 0.306,0.04 0.398,0.121c0.091,0.08 0.137,0.184 0.137,0.31c0,0.161 -0.066,0.274 -0.196,0.338c-0.13,0.064 -0.317,0.097 -0.56,0.097l-0.229,0l0,2.206c0,0.187 0.007,0.332 0.02,0.433c0.014,0.101 0.05,0.183 0.108,0.246c0.059,0.063 0.154,0.094 0.286,0.094c0.072,0 0.169,-0.012 0.292,-0.037c0.123,-0.025 0.219,-0.037 0.288,-0.037c0.099,0 0.188,0.038 0.267,0.116c0.08,0.078 0.119,0.174 0.119,0.288c0,0.193 -0.108,0.341 -0.323,0.444c-0.216,0.102 -0.526,0.153 -0.931,0.153c-0.384,0 -0.675,-0.063 -0.872,-0.189c-0.198,-0.125 -0.328,-0.3 -0.389,-0.522c-0.062,-0.223 -0.093,-0.52 -0.093,-0.893l0,-2.302l-0.161,0c-0.177,0 -0.312,-0.041 -0.405,-0.123c-0.093,-0.082 -0.14,-0.186 -0.14,-0.312c0,-0.126 0.049,-0.23 0.147,-0.31c0.097,-0.081 0.239,-0.121 0.424,-0.121Z" style="fill:#ff0076;fill-rule:nonzero;"/></g><g><path d="M130.213,49.92l0,-5.203c0,-0.24 0.055,-0.422 0.164,-0.545c0.11,-0.123 0.257,-0.185 0.443,-0.185c0.186,0 0.336,0.061 0.45,0.183c0.114,0.121 0.171,0.304 0.171,0.547l0,5.203c0,0.243 -0.058,0.425 -0.174,0.547c-0.115,0.122 -0.264,0.182 -0.447,0.182c-0.18,0 -0.326,-0.063 -0.438,-0.189c-0.113,-0.126 -0.169,-0.306 -0.169,-0.54Z" style="fill:#00937b;fill-rule:nonzero;"/><path d="M135.811,49.973c-0.297,0.225 -0.584,0.394 -0.861,0.507c-0.277,0.113 -0.588,0.169 -0.933,0.169c-0.315,0 -0.591,-0.06 -0.83,-0.182c-0.238,-0.122 -0.421,-0.286 -0.55,-0.494c-0.129,-0.208 -0.194,-0.434 -0.194,-0.677c0,-0.328 0.107,-0.608 0.32,-0.84c0.212,-0.231 0.505,-0.386 0.876,-0.465c0.078,-0.018 0.272,-0.057 0.58,-0.119c0.309,-0.062 0.574,-0.118 0.794,-0.169c0.22,-0.051 0.459,-0.114 0.717,-0.187c-0.015,-0.316 -0.08,-0.549 -0.195,-0.696c-0.116,-0.148 -0.355,-0.222 -0.718,-0.222c-0.311,0 -0.546,0.042 -0.703,0.127c-0.158,0.085 -0.292,0.212 -0.405,0.382c-0.112,0.17 -0.192,0.282 -0.238,0.337c-0.047,0.054 -0.146,0.081 -0.299,0.081c-0.138,0 -0.257,-0.043 -0.358,-0.13c-0.1,-0.086 -0.15,-0.197 -0.15,-0.332c0,-0.211 0.076,-0.416 0.229,-0.615c0.153,-0.199 0.391,-0.363 0.715,-0.492c0.324,-0.129 0.727,-0.193 1.209,-0.193c0.54,0 0.964,0.062 1.273,0.186c0.309,0.125 0.527,0.322 0.654,0.591c0.128,0.27 0.191,0.627 0.191,1.073c0,0.281 0,0.52 -0.002,0.716c-0.001,0.196 -0.004,0.415 -0.007,0.655c0,0.225 0.039,0.461 0.115,0.705c0.076,0.245 0.115,0.402 0.115,0.473c0,0.123 -0.06,0.235 -0.178,0.336c-0.118,0.101 -0.252,0.151 -0.402,0.151c-0.126,0 -0.251,-0.057 -0.374,-0.173c-0.122,-0.116 -0.253,-0.284 -0.391,-0.503Zm-0.081,-1.736c-0.18,0.064 -0.441,0.132 -0.784,0.204c-0.344,0.072 -0.581,0.125 -0.713,0.158c-0.132,0.034 -0.258,0.1 -0.378,0.198c-0.12,0.098 -0.18,0.235 -0.18,0.411c0,0.182 0.071,0.336 0.212,0.464c0.141,0.127 0.325,0.191 0.553,0.191c0.243,0 0.467,-0.052 0.672,-0.156c0.205,-0.104 0.356,-0.238 0.452,-0.402c0.111,-0.182 0.166,-0.481 0.166,-0.897l0,-0.171Z" style="fill:#00937b;fill-rule:nonzero;"/><path d="M139.193,46.444l0,0.145c0.23,-0.279 0.47,-0.483 0.719,-0.613c0.249,-0.131 0.531,-0.196 0.845,-0.196c0.378,0 0.726,0.095 1.044,0.286c0.317,0.19 0.568,0.469 0.753,0.835c0.184,0.366 0.276,0.8 0.276,1.301c0,0.369 -0.053,0.708 -0.159,1.017c-0.107,0.309 -0.253,0.568 -0.439,0.778c-0.186,0.209 -0.405,0.37 -0.658,0.483c-0.254,0.113 -0.526,0.169 -0.817,0.169c-0.35,0 -0.645,-0.068 -0.883,-0.206c-0.238,-0.138 -0.466,-0.34 -0.681,-0.607l0,1.802c0,0.527 -0.197,0.791 -0.589,0.791c-0.231,0 -0.384,-0.068 -0.459,-0.204c-0.075,-0.136 -0.112,-0.335 -0.112,-0.596l0,-5.176c0,-0.229 0.05,-0.4 0.152,-0.512c0.102,-0.113 0.242,-0.17 0.419,-0.17c0.173,0 0.315,0.058 0.424,0.174c0.11,0.116 0.165,0.282 0.165,0.499Zm2.405,1.744c0,-0.316 -0.049,-0.588 -0.148,-0.815c-0.099,-0.227 -0.236,-0.401 -0.412,-0.523c-0.175,-0.121 -0.369,-0.182 -0.582,-0.182c-0.339,0 -0.624,0.13 -0.856,0.391c-0.233,0.261 -0.349,0.645 -0.349,1.151c0,0.478 0.115,0.849 0.346,1.114c0.231,0.266 0.517,0.398 0.859,0.398c0.204,0 0.393,-0.058 0.567,-0.173c0.174,-0.116 0.313,-0.29 0.418,-0.521c0.105,-0.232 0.157,-0.511 0.157,-0.84Z" style="fill:#00937b;fill-rule:nonzero;"/><path d="M143.882,45.877l0.135,0l0,-0.721c0,-0.193 0.006,-0.345 0.016,-0.455c0.011,-0.109 0.04,-0.204 0.088,-0.283c0.048,-0.082 0.117,-0.149 0.207,-0.2c0.09,-0.051 0.19,-0.077 0.301,-0.077c0.156,0 0.297,0.057 0.423,0.171c0.084,0.077 0.137,0.17 0.159,0.28c0.023,0.109 0.034,0.265 0.034,0.468l0,0.817l0.45,0c0.173,0 0.306,0.04 0.398,0.121c0.091,0.08 0.137,0.184 0.137,0.31c0,0.161 -0.066,0.273 -0.196,0.338c-0.13,0.064 -0.317,0.097 -0.56,0.097l-0.229,0l0,2.206c0,0.187 0.007,0.331 0.02,0.433c0.014,0.101 0.05,0.183 0.108,0.246c0.059,0.063 0.154,0.094 0.286,0.094c0.072,0 0.169,-0.012 0.292,-0.037c0.123,-0.025 0.219,-0.038 0.288,-0.038c0.099,0 0.188,0.039 0.267,0.117c0.08,0.078 0.119,0.173 0.119,0.288c0,0.193 -0.108,0.341 -0.323,0.444c-0.216,0.102 -0.526,0.153 -0.931,0.153c-0.384,0 -0.675,-0.063 -0.872,-0.189c-0.198,-0.126 -0.328,-0.3 -0.389,-0.523c-0.062,-0.222 -0.093,-0.52 -0.093,-0.892l0,-2.302l-0.161,0c-0.177,0 -0.312,-0.041 -0.405,-0.123c-0.093,-0.082 -0.14,-0.186 -0.14,-0.312c0,-0.126 0.049,-0.23 0.147,-0.31c0.097,-0.081 0.239,-0.121 0.424,-0.121Z" style="fill:#00937b;fill-rule:nonzero;"/><path d="M151.67,48.21c0,0.358 -0.056,0.687 -0.17,0.989c-0.114,0.302 -0.279,0.561 -0.495,0.778c-0.216,0.217 -0.474,0.383 -0.773,0.499c-0.3,0.116 -0.637,0.173 -1.012,0.173c-0.372,0 -0.706,-0.058 -1.003,-0.175c-0.297,-0.118 -0.554,-0.285 -0.771,-0.504c-0.217,-0.218 -0.382,-0.476 -0.495,-0.773c-0.112,-0.297 -0.168,-0.626 -0.168,-0.987c0,-0.363 0.057,-0.695 0.171,-0.997c0.114,-0.302 0.277,-0.56 0.49,-0.774c0.213,-0.213 0.47,-0.378 0.773,-0.494c0.303,-0.116 0.637,-0.174 1.003,-0.174c0.372,0 0.709,0.059 1.012,0.176c0.302,0.117 0.562,0.284 0.777,0.501c0.216,0.217 0.38,0.475 0.493,0.774c0.112,0.298 0.168,0.628 0.168,0.988Zm-1.232,0c0,-0.489 -0.11,-0.87 -0.33,-1.142c-0.22,-0.273 -0.516,-0.409 -0.888,-0.409c-0.24,0 -0.451,0.061 -0.634,0.183c-0.183,0.121 -0.324,0.301 -0.423,0.538c-0.099,0.237 -0.148,0.514 -0.148,0.83c0,0.314 0.049,0.588 0.146,0.822c0.097,0.235 0.237,0.414 0.418,0.539c0.181,0.124 0.395,0.186 0.641,0.186c0.372,0 0.668,-0.137 0.888,-0.411c0.22,-0.274 0.33,-0.652 0.33,-1.136Z" style="fill:#00937b;fill-rule:nonzero;"/><path d="M153.77,46.444l0,0.145c0.231,-0.279 0.471,-0.483 0.72,-0.613c0.249,-0.131 0.53,-0.196 0.845,-0.196c0.378,0 0.726,0.095 1.043,0.286c0.318,0.19 0.569,0.469 0.754,0.835c0.184,0.366 0.276,0.8 0.276,1.301c0,0.369 -0.053,0.708 -0.16,1.017c-0.106,0.309 -0.252,0.568 -0.438,0.778c-0.186,0.209 -0.405,0.37 -0.659,0.483c-0.253,0.113 -0.525,0.169 -0.816,0.169c-0.351,0 -0.645,-0.068 -0.883,-0.206c-0.239,-0.138 -0.466,-0.34 -0.682,-0.607l0,1.802c0,0.527 -0.196,0.791 -0.589,0.791c-0.231,0 -0.383,-0.068 -0.458,-0.204c-0.075,-0.136 -0.113,-0.335 -0.113,-0.596l0,-5.176c0,-0.229 0.051,-0.4 0.153,-0.512c0.102,-0.113 0.241,-0.17 0.418,-0.17c0.174,0 0.316,0.058 0.425,0.174c0.11,0.116 0.164,0.282 0.164,0.499Zm2.406,1.744c0,-0.316 -0.049,-0.588 -0.148,-0.815c-0.099,-0.227 -0.236,-0.401 -0.412,-0.523c-0.175,-0.121 -0.369,-0.182 -0.582,-0.182c-0.339,0 -0.624,0.13 -0.857,0.391c-0.232,0.261 -0.348,0.645 -0.348,1.151c0,0.478 0.115,0.849 0.346,1.114c0.231,0.266 0.517,0.398 0.859,0.398c0.204,0 0.393,-0.058 0.566,-0.173c0.174,-0.116 0.314,-0.29 0.419,-0.521c0.105,-0.232 0.157,-0.511 0.157,-0.84Z" style="fill:#00937b;fill-rule:nonzero;"/></g><g><path d="M216.878,86.335l0.292,0l0,-0.36c0,-0.375 0.049,-0.673 0.146,-0.895c0.098,-0.221 0.263,-0.382 0.495,-0.483c0.232,-0.101 0.551,-0.152 0.955,-0.152c0.717,0 1.075,0.172 1.075,0.515c0,0.111 -0.037,0.206 -0.112,0.285c-0.075,0.079 -0.164,0.119 -0.266,0.119c-0.048,0 -0.13,-0.009 -0.247,-0.026c-0.117,-0.018 -0.216,-0.027 -0.297,-0.027c-0.222,0 -0.364,0.064 -0.427,0.191c-0.063,0.128 -0.094,0.31 -0.094,0.547l0,0.286l0.301,0c0.468,0 0.701,0.138 0.701,0.413c0,0.197 -0.062,0.321 -0.186,0.374c-0.125,0.052 -0.296,0.079 -0.515,0.079l-0.301,0l0,3.177c0,0.237 -0.058,0.418 -0.173,0.543c-0.116,0.124 -0.265,0.187 -0.448,0.187c-0.174,0 -0.318,-0.063 -0.434,-0.187c-0.115,-0.125 -0.173,-0.306 -0.173,-0.543l0,-3.177l-0.337,0c-0.183,0 -0.324,-0.04 -0.423,-0.121c-0.099,-0.081 -0.148,-0.185 -0.148,-0.314c0,-0.287 0.205,-0.431 0.616,-0.431Z" style="fill:#3d3d3d;fill-rule:nonzero;"/><path d="M220.156,90.378l0,-5.203c0,-0.24 0.054,-0.422 0.164,-0.545c0.109,-0.123 0.257,-0.185 0.443,-0.185c0.186,0 0.336,0.061 0.449,0.183c0.114,0.121 0.171,0.304 0.171,0.547l0,5.203c0,0.243 -0.057,0.426 -0.173,0.547c-0.115,0.122 -0.264,0.183 -0.447,0.183c-0.18,0 -0.326,-0.063 -0.439,-0.189c-0.112,-0.126 -0.168,-0.307 -0.168,-0.541Z" style="fill:#3d3d3d;fill-rule:nonzero;"/><path d="M225.754,90.431c-0.297,0.225 -0.584,0.395 -0.861,0.507c-0.277,0.113 -0.588,0.17 -0.933,0.17c-0.315,0 -0.591,-0.061 -0.83,-0.183c-0.238,-0.121 -0.422,-0.286 -0.551,-0.494c-0.129,-0.208 -0.193,-0.434 -0.193,-0.677c0,-0.328 0.106,-0.608 0.319,-0.839c0.213,-0.232 0.505,-0.387 0.877,-0.466c0.078,-0.018 0.271,-0.057 0.58,-0.119c0.309,-0.061 0.573,-0.118 0.794,-0.169c0.22,-0.051 0.459,-0.113 0.717,-0.187c-0.015,-0.316 -0.08,-0.548 -0.196,-0.696c-0.115,-0.148 -0.354,-0.222 -0.717,-0.222c-0.312,0 -0.546,0.042 -0.703,0.127c-0.158,0.085 -0.293,0.213 -0.405,0.383c-0.113,0.17 -0.192,0.282 -0.238,0.336c-0.047,0.054 -0.147,0.081 -0.3,0.081c-0.137,0 -0.257,-0.043 -0.357,-0.13c-0.1,-0.086 -0.151,-0.197 -0.151,-0.331c0,-0.211 0.077,-0.416 0.23,-0.616c0.153,-0.199 0.391,-0.363 0.715,-0.492c0.323,-0.129 0.727,-0.193 1.209,-0.193c0.54,0 0.964,0.062 1.273,0.187c0.308,0.124 0.527,0.321 0.654,0.591c0.127,0.269 0.191,0.627 0.191,1.072c0,0.281 -0.001,0.52 -0.002,0.716c-0.002,0.197 -0.004,0.415 -0.007,0.655c0,0.226 0.038,0.461 0.115,0.705c0.076,0.245 0.114,0.402 0.114,0.473c0,0.123 -0.059,0.235 -0.177,0.336c-0.119,0.101 -0.253,0.152 -0.403,0.152c-0.126,0 -0.25,-0.058 -0.373,-0.174c-0.123,-0.116 -0.253,-0.283 -0.391,-0.503Zm-0.081,-1.736c-0.18,0.064 -0.441,0.133 -0.785,0.204c-0.343,0.072 -0.58,0.125 -0.712,0.159c-0.132,0.033 -0.258,0.099 -0.378,0.197c-0.12,0.098 -0.18,0.235 -0.18,0.411c0,0.182 0.071,0.336 0.211,0.464c0.141,0.127 0.326,0.191 0.554,0.191c0.242,0 0.466,-0.052 0.672,-0.156c0.205,-0.104 0.356,-0.238 0.452,-0.402c0.111,-0.182 0.166,-0.481 0.166,-0.897l0,-0.171Z" style="fill:#3d3d3d;fill-rule:nonzero;"/><path d="M227.962,86.335l0.135,0l0,-0.721c0,-0.193 0.005,-0.345 0.015,-0.454c0.011,-0.11 0.04,-0.205 0.088,-0.284c0.048,-0.082 0.117,-0.149 0.207,-0.2c0.09,-0.051 0.19,-0.077 0.301,-0.077c0.156,0 0.297,0.057 0.423,0.172c0.084,0.076 0.137,0.169 0.159,0.279c0.023,0.11 0.034,0.266 0.034,0.468l0,0.817l0.45,0c0.174,0 0.306,0.04 0.398,0.121c0.091,0.081 0.137,0.184 0.137,0.31c0,0.161 -0.065,0.274 -0.196,0.338c-0.13,0.065 -0.317,0.097 -0.559,0.097l-0.23,0l0,2.206c0,0.187 0.007,0.332 0.02,0.433c0.014,0.101 0.05,0.183 0.108,0.246c0.059,0.063 0.154,0.094 0.286,0.094c0.072,0 0.169,-0.012 0.292,-0.037c0.123,-0.025 0.219,-0.037 0.288,-0.037c0.099,0 0.188,0.038 0.267,0.116c0.08,0.078 0.12,0.174 0.12,0.288c0,0.193 -0.108,0.341 -0.324,0.444c-0.216,0.102 -0.526,0.154 -0.931,0.154c-0.384,0 -0.674,-0.063 -0.872,-0.189c-0.198,-0.126 -0.328,-0.301 -0.389,-0.523c-0.062,-0.223 -0.092,-0.52 -0.092,-0.892l0,-2.303l-0.162,0c-0.177,0 -0.312,-0.041 -0.405,-0.123c-0.093,-0.082 -0.139,-0.186 -0.139,-0.312c0,-0.126 0.048,-0.229 0.146,-0.31c0.097,-0.081 0.239,-0.121 0.425,-0.121Z" style="fill:#3d3d3d;fill-rule:nonzero;"/></g><g><path d="M6.187,109.102c0,0.199 -0.061,0.412 -0.183,0.639c-0.122,0.226 -0.307,0.442 -0.557,0.647c-0.25,0.205 -0.565,0.37 -0.944,0.495c-0.38,0.125 -0.808,0.188 -1.283,0.188c-1.012,0 -1.801,-0.288 -2.369,-0.864c-0.567,-0.576 -0.851,-1.349 -0.851,-2.318c0,-0.656 0.13,-1.236 0.39,-1.74c0.259,-0.504 0.635,-0.893 1.127,-1.169c0.491,-0.275 1.079,-0.413 1.762,-0.413c0.424,0 0.813,0.061 1.167,0.182c0.353,0.121 0.653,0.277 0.899,0.468c0.246,0.192 0.434,0.396 0.563,0.613c0.13,0.217 0.195,0.419 0.195,0.606c0,0.192 -0.073,0.354 -0.219,0.487c-0.145,0.132 -0.322,0.199 -0.53,0.199c-0.136,0 -0.249,-0.034 -0.339,-0.103c-0.09,-0.068 -0.191,-0.178 -0.303,-0.331c-0.199,-0.297 -0.408,-0.519 -0.626,-0.668c-0.218,-0.148 -0.495,-0.222 -0.831,-0.222c-0.483,0 -0.873,0.184 -1.169,0.553c-0.295,0.369 -0.443,0.874 -0.443,1.515c0,0.301 0.038,0.577 0.114,0.829c0.076,0.252 0.186,0.467 0.329,0.645c0.144,0.177 0.318,0.312 0.522,0.404c0.204,0.092 0.428,0.138 0.671,0.138c0.328,0 0.609,-0.075 0.843,-0.223c0.234,-0.149 0.44,-0.375 0.62,-0.68c0.1,-0.18 0.208,-0.32 0.324,-0.422c0.116,-0.101 0.258,-0.152 0.426,-0.152c0.2,0 0.365,0.074 0.497,0.223c0.132,0.148 0.198,0.306 0.198,0.474Z" style="fill:#bdb65e;fill-rule:nonzero;"/><path d="M7.308,110.11l0,-6.937c0,-0.321 0.073,-0.563 0.219,-0.727c0.146,-0.164 0.343,-0.246 0.591,-0.246c0.248,0 0.447,0.081 0.599,0.243c0.152,0.162 0.228,0.405 0.228,0.73l0,6.937c0,0.324 -0.077,0.567 -0.231,0.73c-0.154,0.162 -0.352,0.243 -0.596,0.243c-0.24,0 -0.435,-0.084 -0.585,-0.252c-0.15,-0.168 -0.225,-0.408 -0.225,-0.721Z" style="fill:#bdb65e;fill-rule:nonzero;"/><path d="M16.763,107.831c0,0.476 -0.076,0.916 -0.228,1.318c-0.152,0.402 -0.371,0.748 -0.659,1.037c-0.288,0.289 -0.632,0.511 -1.031,0.665c-0.4,0.155 -0.85,0.232 -1.349,0.232c-0.496,0 -0.942,-0.078 -1.337,-0.235c-0.396,-0.156 -0.739,-0.38 -1.029,-0.671c-0.289,-0.291 -0.509,-0.634 -0.659,-1.031c-0.15,-0.396 -0.225,-0.835 -0.225,-1.315c0,-0.485 0.076,-0.928 0.228,-1.33c0.152,-0.403 0.37,-0.746 0.653,-1.032c0.284,-0.285 0.628,-0.504 1.032,-0.659c0.403,-0.154 0.849,-0.231 1.337,-0.231c0.495,0 0.945,0.078 1.349,0.234c0.403,0.156 0.749,0.379 1.037,0.668c0.288,0.289 0.506,0.633 0.656,1.031c0.15,0.399 0.225,0.838 0.225,1.319Zm-1.643,0c0,-0.653 -0.147,-1.16 -0.44,-1.524c-0.294,-0.363 -0.689,-0.545 -1.184,-0.545c-0.32,0 -0.602,0.081 -0.846,0.244c-0.244,0.162 -0.431,0.401 -0.563,0.717c-0.132,0.317 -0.198,0.686 -0.198,1.108c0,0.418 0.065,0.783 0.195,1.095c0.13,0.313 0.315,0.552 0.557,0.718c0.242,0.166 0.527,0.249 0.855,0.249c0.495,0 0.89,-0.182 1.184,-0.548c0.293,-0.365 0.44,-0.87 0.44,-1.514Z" style="fill:#bdb65e;fill-rule:nonzero;"/><path d="M23.322,108.991c0,0.441 -0.11,0.819 -0.33,1.134c-0.22,0.314 -0.544,0.552 -0.974,0.715c-0.43,0.162 -0.952,0.243 -1.568,0.243c-0.587,0 -1.091,-0.088 -1.511,-0.264c-0.419,-0.176 -0.729,-0.395 -0.929,-0.659c-0.2,-0.264 -0.3,-0.528 -0.3,-0.794c0,-0.176 0.064,-0.326 0.192,-0.451c0.128,-0.125 0.29,-0.188 0.486,-0.188c0.172,0 0.304,0.041 0.396,0.123c0.091,0.082 0.179,0.198 0.263,0.346c0.168,0.285 0.369,0.498 0.603,0.639c0.234,0.14 0.552,0.211 0.956,0.211c0.328,0 0.597,-0.072 0.806,-0.214c0.21,-0.143 0.315,-0.306 0.315,-0.49c0,-0.281 -0.109,-0.486 -0.327,-0.615c-0.217,-0.129 -0.576,-0.252 -1.076,-0.369c-0.563,-0.137 -1.022,-0.28 -1.376,-0.431c-0.353,-0.15 -0.636,-0.348 -0.848,-0.594c-0.212,-0.246 -0.318,-0.549 -0.318,-0.909c0,-0.32 0.098,-0.623 0.294,-0.908c0.196,-0.285 0.485,-0.512 0.866,-0.682c0.382,-0.17 0.843,-0.255 1.382,-0.255c0.424,0 0.805,0.043 1.142,0.129c0.338,0.086 0.62,0.201 0.846,0.345c0.226,0.145 0.397,0.305 0.515,0.481c0.118,0.176 0.177,0.348 0.177,0.515c0,0.184 -0.063,0.334 -0.189,0.452c-0.126,0.117 -0.304,0.175 -0.536,0.175c-0.168,0 -0.311,-0.046 -0.429,-0.14c-0.118,-0.094 -0.253,-0.235 -0.405,-0.422c-0.123,-0.156 -0.269,-0.281 -0.437,-0.375c-0.168,-0.094 -0.396,-0.141 -0.684,-0.141c-0.295,0 -0.541,0.062 -0.737,0.185c-0.196,0.123 -0.294,0.276 -0.294,0.46c0,0.168 0.072,0.306 0.216,0.413c0.144,0.107 0.338,0.196 0.581,0.267c0.244,0.07 0.58,0.156 1.008,0.257c0.507,0.121 0.922,0.266 1.244,0.434c0.322,0.168 0.565,0.366 0.731,0.595c0.166,0.228 0.249,0.489 0.249,0.782Z" style="fill:#bdb65e;fill-rule:nonzero;"/><path d="M29.275,108.223l-3.201,0c0.004,0.364 0.079,0.684 0.225,0.961c0.146,0.278 0.339,0.487 0.581,0.627c0.242,0.141 0.509,0.211 0.801,0.211c0.195,0 0.374,-0.022 0.536,-0.067c0.162,-0.045 0.319,-0.115 0.471,-0.211c0.152,-0.096 0.292,-0.198 0.42,-0.308c0.127,-0.109 0.293,-0.258 0.497,-0.445c0.084,-0.07 0.204,-0.106 0.36,-0.106c0.168,0 0.304,0.045 0.408,0.135c0.103,0.09 0.155,0.217 0.155,0.381c0,0.145 -0.058,0.314 -0.173,0.507c-0.116,0.193 -0.291,0.379 -0.525,0.557c-0.234,0.177 -0.528,0.325 -0.881,0.442c-0.354,0.117 -0.761,0.176 -1.22,0.176c-1.052,0 -1.869,-0.293 -2.453,-0.879c-0.583,-0.586 -0.875,-1.381 -0.875,-2.385c0,-0.473 0.072,-0.911 0.216,-1.315c0.144,-0.405 0.354,-0.751 0.63,-1.04c0.275,-0.29 0.615,-0.511 1.019,-0.665c0.403,-0.155 0.851,-0.232 1.343,-0.232c0.639,0 1.188,0.132 1.645,0.396c0.458,0.263 0.801,0.604 1.029,1.022c0.227,0.418 0.341,0.844 0.341,1.277c0,0.403 -0.118,0.663 -0.353,0.783c-0.236,0.119 -0.568,0.178 -0.996,0.178Zm-3.201,-0.908l2.968,0c-0.04,-0.547 -0.191,-0.956 -0.453,-1.227c-0.262,-0.272 -0.607,-0.408 -1.034,-0.408c-0.408,0 -0.743,0.138 -1.004,0.413c-0.262,0.276 -0.421,0.683 -0.477,1.222Z" style="fill:#bdb65e;fill-rule:nonzero;"/><path d="M36.488,110.169l0,-0.159c-0.22,0.247 -0.437,0.447 -0.651,0.601c-0.213,0.154 -0.445,0.272 -0.695,0.352c-0.25,0.08 -0.523,0.12 -0.818,0.12c-0.392,0 -0.755,-0.081 -1.089,-0.243c-0.333,-0.163 -0.622,-0.394 -0.866,-0.695c-0.244,-0.301 -0.429,-0.654 -0.555,-1.06c-0.125,-0.407 -0.188,-0.846 -0.188,-1.319c0,-1 0.249,-1.779 0.749,-2.338c0.5,-0.558 1.157,-0.837 1.972,-0.837c0.472,0 0.87,0.079 1.194,0.237c0.323,0.158 0.639,0.401 0.947,0.729l0,-2.361c0,-0.328 0.067,-0.576 0.201,-0.744c0.134,-0.168 0.324,-0.252 0.572,-0.252c0.248,0 0.439,0.077 0.573,0.231c0.134,0.155 0.201,0.382 0.201,0.683l0,7.055c0,0.304 -0.072,0.533 -0.216,0.685c-0.144,0.153 -0.33,0.229 -0.558,0.229c-0.224,0 -0.408,-0.079 -0.554,-0.238c-0.146,-0.158 -0.219,-0.383 -0.219,-0.676Zm-3.22,-2.35c0,0.434 0.069,0.803 0.207,1.107c0.138,0.305 0.327,0.535 0.567,0.689c0.24,0.154 0.501,0.231 0.785,0.231c0.288,0 0.551,-0.073 0.789,-0.219c0.237,-0.147 0.427,-0.371 0.569,-0.674c0.142,-0.303 0.213,-0.681 0.213,-1.134c0,-0.426 -0.071,-0.792 -0.213,-1.099c-0.142,-0.306 -0.334,-0.541 -0.575,-0.703c-0.242,-0.162 -0.507,-0.243 -0.795,-0.243c-0.3,0 -0.567,0.083 -0.803,0.249c-0.236,0.166 -0.419,0.404 -0.549,0.715c-0.13,0.311 -0.195,0.671 -0.195,1.081Z" style="fill:#bdb65e;fill-rule:nonzero;"/></g><path d="M162.153,106.641l-102.763,47.919" style="fill:none;stroke:#7882ff;stroke-width:6px;"/><path d="M162.153,106.641l112.954,9.883" style="fill:none;stroke:#3d3d3d;stroke-width:6px;"/><path d="M197.026,77.379l-34.873,29.262l-45.532,0c0,-25.129 20.402,-45.531 45.532,-45.531c13.992,0 26.518,6.325 34.873,16.269Z" style="fill:#00937b;"/><path d="M162.153,106.641l86.858,-72.883" style="fill:none;stroke:#00937b;stroke-width:6px;"/><path d="M116.621,106.641l45.532,0l-41.27,19.245c-2.734,-5.847 -4.262,-12.369 -4.262,-19.245Z" style="fill:#ff0076;"/><path d="M120.883,125.886l41.27,-19.245l45.36,3.969c-2.013,23.274 -21.568,41.563 -45.36,41.563c-18.254,0 -34.013,-10.765 -41.27,-26.287Z" style="fill:#7882ff;"/><path d="M197.026,77.379c6.651,7.916 10.658,18.125 10.658,29.262c0,1.337 -0.057,2.661 -0.171,3.969l-45.36,-3.969l34.873,-29.262Z" style="fill:#3d3d3d;"/><path d="M48.767,106.641l113.386,0" style="fill:none;stroke:#bdb65e;stroke-width:6px;stroke-dasharray:0,12,0,0;stroke-dashoffset:6;"/><path d="M68.52,115.564l5.904,-6.095l6.095,5.905" style="fill:none;stroke:#ff0076;stroke-width:4px;stroke-linejoin:miter;stroke-miterlimit:10;"/><path d="M82.594,143.74c-4.894,-10.467 -7.782,-22.055 -8.17,-34.271" style="fill:none;stroke:#ff0076;stroke-width:4px;stroke-linejoin:miter;"/><path d="M81.069,154.305l2.764,-8.022l8.023,2.764" style="fill:none;stroke:#7882ff;stroke-width:4px;stroke-linejoin:miter;stroke-miterlimit:10;"/><path d="M249.597,114.292c-3.882,44.866 -41.578,80.123 -87.444,80.123c-34.183,0 -63.828,-19.583 -78.32,-48.132" style="fill:none;stroke:#7882ff;stroke-width:4px;stroke-linejoin:miter;"/><path d="M256.414,102.108l-6.58,8.586l-5.394,-9.376" style="fill:none;stroke:#3d3d3d;stroke-width:4px;stroke-linejoin:miter;stroke-miterlimit:10;"/><path d="M229.38,50.231c12.821,15.26 20.546,34.94 20.546,56.41c0,1.359 -0.031,2.71 -0.092,4.053" style="fill:none;stroke:#3d3d3d;stroke-width:4px;stroke-linejoin:miter;"/><path d="M228.125,39.631l-0.599,8.464l-8.464,-0.599" style="fill:none;stroke:#00937b;stroke-width:4px;stroke-linejoin:miter;stroke-miterlimit:10;"/><path d="M74.38,106.641c0,-48.443 39.329,-87.773 87.773,-87.773c25.957,0 49.297,11.292 65.373,29.227" style="fill:none;stroke:#00937b;stroke-width:4px;stroke-linejoin:miter;"/><g><path d="M249.057,27.116l0,-3.555c-0.677,0.508 -1.133,0.762 -1.367,0.762c-0.112,0 -0.211,-0.044 -0.298,-0.131c-0.086,-0.087 -0.13,-0.188 -0.13,-0.303c0,-0.133 0.043,-0.23 0.128,-0.293c0.085,-0.062 0.236,-0.143 0.452,-0.242c0.322,-0.149 0.58,-0.305 0.773,-0.469c0.193,-0.164 0.365,-0.348 0.514,-0.551c0.149,-0.203 0.246,-0.328 0.292,-0.375c0.045,-0.047 0.13,-0.07 0.255,-0.07c0.142,0 0.255,0.053 0.34,0.16c0.085,0.107 0.128,0.254 0.128,0.442l0,4.472c0,0.524 -0.182,0.785 -0.547,0.785c-0.163,0 -0.294,-0.053 -0.392,-0.16c-0.099,-0.107 -0.148,-0.264 -0.148,-0.472Z" style="fill:#00937b;fill-rule:nonzero;"/><path d="M254.477,27.155l0,-0.727l-2.007,0c-0.253,0 -0.443,-0.056 -0.569,-0.168c-0.127,-0.112 -0.19,-0.264 -0.19,-0.457c0,-0.049 0.009,-0.1 0.028,-0.15c0.019,-0.051 0.046,-0.104 0.084,-0.16c0.037,-0.056 0.076,-0.11 0.116,-0.163c0.04,-0.052 0.089,-0.115 0.148,-0.191l2.118,-2.769c0.139,-0.183 0.252,-0.315 0.342,-0.397c0.089,-0.082 0.196,-0.123 0.321,-0.123c0.405,0 0.608,0.227 0.608,0.68l0,3.023l0.172,0c0.205,0 0.37,0.027 0.493,0.082c0.124,0.055 0.186,0.175 0.186,0.36c0,0.151 -0.05,0.261 -0.152,0.33c-0.101,0.069 -0.253,0.103 -0.455,0.103l-0.244,0l0,0.727c0,0.2 -0.045,0.349 -0.136,0.447c-0.091,0.098 -0.212,0.146 -0.364,0.146c-0.149,0 -0.269,-0.05 -0.361,-0.15c-0.092,-0.1 -0.138,-0.248 -0.138,-0.443Zm-1.719,-1.602l1.719,0l0,-2.269l-1.719,2.269Z" style="fill:#00937b;fill-rule:nonzero;"/><path d="M260.952,24.842c0,0.427 -0.027,0.794 -0.08,1.102c-0.053,0.307 -0.152,0.586 -0.296,0.836c-0.181,0.307 -0.416,0.544 -0.703,0.711c-0.288,0.166 -0.608,0.25 -0.96,0.25c-0.405,0 -0.768,-0.112 -1.089,-0.336c-0.321,-0.224 -0.563,-0.534 -0.725,-0.93c-0.083,-0.216 -0.143,-0.455 -0.182,-0.717c-0.039,-0.262 -0.058,-0.545 -0.058,-0.849c0,-0.394 0.021,-0.748 0.064,-1.063c0.042,-0.315 0.109,-0.586 0.2,-0.812c0.157,-0.375 0.385,-0.661 0.685,-0.858c0.3,-0.196 0.658,-0.295 1.073,-0.295c0.275,0 0.524,0.044 0.748,0.131c0.224,0.087 0.42,0.215 0.589,0.383c0.17,0.168 0.313,0.376 0.43,0.623c0.202,0.43 0.304,1.038 0.304,1.824Zm-1.095,-0.078c0,-0.477 -0.03,-0.867 -0.088,-1.17c-0.059,-0.303 -0.158,-0.532 -0.296,-0.687c-0.139,-0.155 -0.331,-0.233 -0.576,-0.233c-0.351,0 -0.596,0.173 -0.733,0.52c-0.137,0.346 -0.206,0.88 -0.206,1.601c0,0.49 0.029,0.891 0.088,1.203c0.059,0.313 0.157,0.549 0.296,0.709c0.138,0.161 0.326,0.241 0.563,0.241c0.245,0 0.437,-0.084 0.576,-0.25c0.138,-0.167 0.236,-0.405 0.292,-0.715c0.056,-0.31 0.084,-0.716 0.084,-1.219Z" style="fill:#00937b;fill-rule:nonzero;"/><path d="M261.839,22.909c0,-0.3 0.107,-0.555 0.319,-0.766c0.212,-0.211 0.467,-0.316 0.763,-0.316c0.303,0 0.559,0.105 0.77,0.316c0.211,0.211 0.316,0.466 0.316,0.766c0,0.299 -0.106,0.555 -0.318,0.767c-0.212,0.212 -0.468,0.319 -0.768,0.319c-0.296,0 -0.551,-0.106 -0.763,-0.317c-0.212,-0.211 -0.319,-0.467 -0.319,-0.769Zm0.426,0c0,0.182 0.065,0.337 0.194,0.466c0.128,0.129 0.284,0.194 0.466,0.194c0.18,0 0.334,-0.065 0.463,-0.194c0.129,-0.129 0.194,-0.284 0.194,-0.466c0,-0.183 -0.065,-0.338 -0.194,-0.467c-0.129,-0.129 -0.283,-0.194 -0.463,-0.194c-0.182,0 -0.338,0.065 -0.466,0.194c-0.129,0.129 -0.194,0.284 -0.194,0.467Z" style="fill:#00937b;fill-rule:nonzero;"/></g><g><path d="M284.213,119.581l0,-3.555c-0.677,0.508 -1.132,0.762 -1.367,0.762c-0.112,0 -0.211,-0.044 -0.298,-0.131c-0.086,-0.087 -0.13,-0.188 -0.13,-0.303c0,-0.133 0.043,-0.23 0.128,-0.293c0.086,-0.062 0.236,-0.143 0.452,-0.242c0.322,-0.148 0.58,-0.305 0.773,-0.469c0.194,-0.164 0.365,-0.347 0.514,-0.551c0.149,-0.203 0.246,-0.328 0.292,-0.375c0.045,-0.046 0.13,-0.07 0.256,-0.07c0.141,0 0.254,0.054 0.339,0.16c0.086,0.107 0.128,0.254 0.128,0.442l0,4.472c0,0.524 -0.182,0.786 -0.547,0.786c-0.163,0 -0.294,-0.054 -0.392,-0.161c-0.099,-0.106 -0.148,-0.264 -0.148,-0.472Z" style="fill:#3d3d3d;fill-rule:nonzero;"/><path d="M287.315,115.842c0,-0.26 0.072,-0.505 0.217,-0.736c0.146,-0.23 0.359,-0.415 0.64,-0.553c0.281,-0.138 0.609,-0.207 0.985,-0.207c0.317,0 0.596,0.041 0.836,0.121c0.239,0.081 0.439,0.192 0.599,0.334c0.16,0.142 0.279,0.302 0.356,0.481c0.077,0.178 0.116,0.368 0.116,0.568c0,0.255 -0.068,0.483 -0.202,0.684c-0.135,0.2 -0.335,0.364 -0.602,0.492c0.227,0.086 0.415,0.199 0.564,0.338c0.149,0.139 0.262,0.301 0.338,0.484c0.076,0.184 0.114,0.388 0.114,0.612c0,0.328 -0.082,0.625 -0.244,0.892c-0.163,0.267 -0.401,0.476 -0.716,0.627c-0.314,0.151 -0.684,0.227 -1.111,0.227c-0.442,0 -0.821,-0.076 -1.135,-0.227c-0.314,-0.151 -0.552,-0.359 -0.711,-0.623c-0.16,-0.264 -0.24,-0.56 -0.24,-0.889c0,-0.7 0.338,-1.181 1.015,-1.441c-0.546,-0.25 -0.819,-0.645 -0.819,-1.184Zm2.865,2.586c0,-0.203 -0.042,-0.38 -0.127,-0.531c-0.086,-0.151 -0.206,-0.267 -0.36,-0.348c-0.155,-0.08 -0.328,-0.121 -0.52,-0.121c-0.272,0 -0.499,0.089 -0.683,0.266c-0.184,0.177 -0.276,0.424 -0.276,0.742c0,0.203 0.043,0.382 0.13,0.537c0.086,0.155 0.204,0.275 0.354,0.36c0.149,0.084 0.315,0.127 0.499,0.127c0.187,0 0.355,-0.043 0.504,-0.129c0.149,-0.086 0.266,-0.207 0.352,-0.364c0.085,-0.156 0.127,-0.336 0.127,-0.539Zm-0.999,-3.336c-0.25,0 -0.452,0.077 -0.605,0.229c-0.154,0.152 -0.23,0.348 -0.23,0.588c0,0.221 0.078,0.405 0.236,0.553c0.157,0.147 0.359,0.22 0.607,0.22c0.125,0 0.239,-0.019 0.342,-0.058c0.102,-0.039 0.19,-0.093 0.264,-0.162c0.073,-0.069 0.13,-0.151 0.17,-0.247c0.04,-0.095 0.06,-0.199 0.06,-0.314c0,-0.154 -0.036,-0.292 -0.106,-0.414c-0.071,-0.122 -0.17,-0.219 -0.298,-0.289c-0.128,-0.07 -0.275,-0.106 -0.44,-0.106Z" style="fill:#3d3d3d;fill-rule:nonzero;"/><path d="M295.42,115.354l-1.898,0l-0.228,1.266c0.378,-0.198 0.727,-0.297 1.047,-0.297c0.256,0 0.495,0.047 0.718,0.141c0.222,0.093 0.417,0.223 0.585,0.388c0.168,0.166 0.3,0.362 0.396,0.588c0.096,0.227 0.144,0.47 0.144,0.731c0,0.377 -0.087,0.721 -0.26,1.031c-0.173,0.31 -0.423,0.556 -0.749,0.738c-0.327,0.182 -0.703,0.274 -1.13,0.274c-0.477,0 -0.864,-0.086 -1.161,-0.258c-0.297,-0.172 -0.507,-0.369 -0.631,-0.592c-0.124,-0.223 -0.186,-0.417 -0.186,-0.584c0,-0.102 0.043,-0.198 0.13,-0.289c0.086,-0.091 0.195,-0.137 0.326,-0.137c0.223,0 0.39,0.126 0.499,0.379c0.107,0.232 0.251,0.412 0.432,0.541c0.181,0.129 0.384,0.193 0.607,0.193c0.206,0 0.385,-0.052 0.54,-0.156c0.155,-0.104 0.274,-0.247 0.358,-0.43c0.084,-0.182 0.126,-0.389 0.126,-0.621c0,-0.25 -0.046,-0.463 -0.136,-0.64c-0.091,-0.177 -0.212,-0.309 -0.364,-0.397c-0.152,-0.087 -0.321,-0.131 -0.508,-0.131c-0.229,0 -0.393,0.028 -0.491,0.082c-0.099,0.055 -0.241,0.151 -0.426,0.288c-0.185,0.136 -0.338,0.205 -0.458,0.205c-0.13,0 -0.246,-0.047 -0.347,-0.139c-0.102,-0.092 -0.152,-0.197 -0.152,-0.314c0,-0.014 0.015,-0.102 0.044,-0.266l0.336,-1.871c0.037,-0.224 0.106,-0.387 0.207,-0.488c0.102,-0.102 0.267,-0.153 0.496,-0.153l2.11,0c0.416,0 0.624,0.155 0.624,0.465c0,0.135 -0.051,0.245 -0.152,0.328c-0.101,0.083 -0.25,0.125 -0.448,0.125Z" style="fill:#3d3d3d;fill-rule:nonzero;"/><path d="M296.996,115.374c0,-0.3 0.106,-0.555 0.318,-0.766c0.212,-0.211 0.467,-0.316 0.764,-0.316c0.302,0 0.558,0.105 0.769,0.316c0.211,0.211 0.317,0.466 0.317,0.766c0,0.299 -0.107,0.555 -0.319,0.767c-0.212,0.212 -0.468,0.319 -0.767,0.319c-0.297,0 -0.552,-0.106 -0.764,-0.317c-0.212,-0.211 -0.318,-0.467 -0.318,-0.769Zm0.425,0c0,0.182 0.065,0.338 0.194,0.466c0.129,0.129 0.284,0.194 0.466,0.194c0.18,0 0.334,-0.065 0.463,-0.194c0.129,-0.128 0.194,-0.284 0.194,-0.466c0,-0.183 -0.065,-0.338 -0.194,-0.467c-0.129,-0.129 -0.283,-0.193 -0.463,-0.193c-0.182,0 -0.337,0.064 -0.466,0.193c-0.129,0.129 -0.194,0.284 -0.194,0.467Z" style="fill:#3d3d3d;fill-rule:nonzero;"/></g><g><path d="M43.341,161.304c0.246,0 0.457,-0.07 0.634,-0.211c0.177,-0.141 0.266,-0.342 0.266,-0.605c0,-0.201 -0.071,-0.373 -0.212,-0.518c-0.141,-0.145 -0.332,-0.217 -0.572,-0.217c-0.162,0 -0.296,0.022 -0.401,0.067c-0.106,0.044 -0.189,0.102 -0.25,0.175c-0.061,0.073 -0.119,0.167 -0.174,0.282c-0.055,0.114 -0.105,0.222 -0.15,0.324c-0.027,0.055 -0.075,0.097 -0.144,0.129c-0.069,0.031 -0.149,0.047 -0.24,0.047c-0.106,0 -0.204,-0.043 -0.293,-0.127c-0.09,-0.085 -0.134,-0.198 -0.134,-0.338c0,-0.136 0.042,-0.278 0.126,-0.428c0.084,-0.15 0.206,-0.292 0.367,-0.428c0.162,-0.135 0.362,-0.244 0.602,-0.326c0.24,-0.082 0.507,-0.123 0.803,-0.123c0.259,0 0.495,0.035 0.708,0.104c0.213,0.069 0.398,0.168 0.555,0.298c0.157,0.131 0.276,0.282 0.356,0.454c0.08,0.171 0.12,0.356 0.12,0.554c0,0.261 -0.058,0.484 -0.174,0.67c-0.116,0.186 -0.282,0.368 -0.498,0.545c0.208,0.109 0.383,0.234 0.526,0.375c0.143,0.141 0.25,0.296 0.322,0.467c0.072,0.17 0.108,0.355 0.108,0.553c0,0.237 -0.049,0.466 -0.146,0.687c-0.097,0.221 -0.241,0.419 -0.43,0.592c-0.189,0.173 -0.414,0.309 -0.673,0.406c-0.26,0.098 -0.547,0.147 -0.862,0.147c-0.319,0 -0.606,-0.056 -0.859,-0.168c-0.253,-0.112 -0.462,-0.252 -0.626,-0.42c-0.163,-0.168 -0.287,-0.342 -0.371,-0.522c-0.084,-0.179 -0.126,-0.328 -0.126,-0.445c0,-0.151 0.05,-0.273 0.15,-0.365c0.1,-0.093 0.224,-0.139 0.373,-0.139c0.075,0 0.147,0.022 0.216,0.065c0.07,0.042 0.115,0.094 0.136,0.154c0.139,0.362 0.287,0.631 0.446,0.806c0.158,0.176 0.382,0.264 0.669,0.264c0.165,0 0.325,-0.04 0.478,-0.119c0.153,-0.079 0.28,-0.197 0.38,-0.354c0.1,-0.156 0.15,-0.337 0.15,-0.543c0,-0.304 -0.086,-0.543 -0.256,-0.716c-0.171,-0.173 -0.408,-0.26 -0.712,-0.26c-0.053,0 -0.136,0.005 -0.248,0.016c-0.111,0.01 -0.183,0.015 -0.215,0.015c-0.147,0 -0.26,-0.036 -0.34,-0.107c-0.08,-0.072 -0.12,-0.171 -0.12,-0.299c0,-0.125 0.048,-0.226 0.144,-0.303c0.096,-0.077 0.238,-0.115 0.428,-0.115l0.163,0Z" style="fill:#7882ff;fill-rule:nonzero;"/><path d="M48.206,161.304c0.245,0 0.456,-0.07 0.633,-0.211c0.177,-0.141 0.266,-0.342 0.266,-0.605c0,-0.201 -0.071,-0.373 -0.212,-0.518c-0.141,-0.145 -0.332,-0.217 -0.571,-0.217c-0.163,0 -0.297,0.022 -0.402,0.067c-0.105,0.044 -0.189,0.102 -0.25,0.175c-0.061,0.073 -0.119,0.167 -0.174,0.282c-0.054,0.114 -0.104,0.222 -0.15,0.324c-0.026,0.055 -0.074,0.097 -0.144,0.129c-0.069,0.031 -0.149,0.047 -0.239,0.047c-0.107,0 -0.205,-0.043 -0.294,-0.127c-0.089,-0.085 -0.134,-0.198 -0.134,-0.338c0,-0.136 0.042,-0.278 0.126,-0.428c0.084,-0.15 0.206,-0.292 0.368,-0.428c0.161,-0.135 0.361,-0.244 0.601,-0.326c0.24,-0.082 0.508,-0.123 0.803,-0.123c0.259,0 0.495,0.035 0.708,0.104c0.213,0.069 0.398,0.168 0.555,0.298c0.158,0.131 0.276,0.282 0.356,0.454c0.08,0.171 0.12,0.356 0.12,0.554c0,0.261 -0.058,0.484 -0.174,0.67c-0.116,0.186 -0.282,0.368 -0.497,0.545c0.207,0.109 0.383,0.234 0.525,0.375c0.143,0.141 0.25,0.296 0.322,0.467c0.072,0.17 0.108,0.355 0.108,0.553c0,0.237 -0.049,0.466 -0.146,0.687c-0.097,0.221 -0.24,0.419 -0.43,0.592c-0.189,0.173 -0.413,0.309 -0.673,0.406c-0.26,0.098 -0.547,0.147 -0.861,0.147c-0.32,0 -0.607,-0.056 -0.86,-0.168c-0.253,-0.112 -0.461,-0.252 -0.625,-0.42c-0.164,-0.168 -0.288,-0.342 -0.372,-0.522c-0.084,-0.179 -0.126,-0.328 -0.126,-0.445c0,-0.151 0.05,-0.273 0.15,-0.365c0.1,-0.093 0.224,-0.139 0.374,-0.139c0.074,0 0.146,0.022 0.215,0.065c0.07,0.042 0.115,0.094 0.136,0.154c0.139,0.362 0.288,0.631 0.446,0.806c0.159,0.176 0.382,0.264 0.67,0.264c0.165,0 0.324,-0.04 0.477,-0.119c0.153,-0.079 0.28,-0.197 0.38,-0.354c0.1,-0.156 0.15,-0.337 0.15,-0.543c0,-0.304 -0.086,-0.543 -0.256,-0.716c-0.171,-0.173 -0.408,-0.26 -0.711,-0.26c-0.054,0 -0.136,0.005 -0.248,0.016c-0.112,0.01 -0.184,0.015 -0.216,0.015c-0.147,0 -0.26,-0.036 -0.34,-0.107c-0.08,-0.072 -0.12,-0.171 -0.12,-0.299c0,-0.125 0.048,-0.226 0.144,-0.303c0.096,-0.077 0.239,-0.115 0.428,-0.115l0.164,0Z" style="fill:#7882ff;fill-rule:nonzero;"/><path d="M54.617,159.999l-1.899,0l-0.228,1.266c0.379,-0.198 0.728,-0.297 1.048,-0.297c0.255,0 0.494,0.047 0.717,0.141c0.222,0.093 0.418,0.223 0.586,0.388c0.167,0.166 0.299,0.362 0.395,0.588c0.096,0.227 0.144,0.47 0.144,0.731c0,0.377 -0.086,0.721 -0.26,1.031c-0.173,0.31 -0.423,0.556 -0.749,0.738c-0.327,0.182 -0.703,0.274 -1.129,0.274c-0.477,0 -0.864,-0.086 -1.161,-0.258c-0.297,-0.172 -0.508,-0.369 -0.632,-0.592c-0.124,-0.223 -0.186,-0.417 -0.186,-0.584c0,-0.102 0.044,-0.198 0.13,-0.289c0.087,-0.091 0.195,-0.137 0.326,-0.137c0.224,0 0.39,0.127 0.5,0.379c0.106,0.232 0.25,0.412 0.431,0.541c0.181,0.129 0.384,0.194 0.608,0.194c0.205,0 0.385,-0.053 0.539,-0.157c0.155,-0.104 0.274,-0.247 0.358,-0.429c0.084,-0.183 0.126,-0.39 0.126,-0.621c0,-0.25 -0.045,-0.464 -0.136,-0.641c-0.091,-0.177 -0.212,-0.309 -0.364,-0.397c-0.152,-0.087 -0.321,-0.13 -0.507,-0.13c-0.229,0 -0.393,0.027 -0.492,0.082c-0.098,0.054 -0.24,0.15 -0.426,0.287c-0.185,0.136 -0.337,0.205 -0.457,0.205c-0.131,0 -0.247,-0.046 -0.348,-0.139c-0.101,-0.092 -0.152,-0.197 -0.152,-0.314c0,-0.013 0.015,-0.102 0.044,-0.266l0.336,-1.871c0.037,-0.224 0.106,-0.387 0.208,-0.488c0.101,-0.102 0.266,-0.153 0.495,-0.153l2.111,0c0.415,0 0.623,0.155 0.623,0.465c0,0.136 -0.05,0.245 -0.152,0.328c-0.101,0.084 -0.25,0.125 -0.447,0.125Z" style="fill:#7882ff;fill-rule:nonzero;"/><path d="M56.192,160.019c0,-0.3 0.106,-0.555 0.318,-0.766c0.212,-0.211 0.467,-0.316 0.764,-0.316c0.302,0 0.558,0.105 0.769,0.316c0.211,0.211 0.317,0.466 0.317,0.766c0,0.299 -0.106,0.555 -0.319,0.767c-0.212,0.213 -0.468,0.319 -0.767,0.319c-0.297,0 -0.552,-0.106 -0.764,-0.317c-0.212,-0.211 -0.318,-0.467 -0.318,-0.769Zm0.426,0c0,0.182 0.064,0.338 0.193,0.467c0.129,0.129 0.285,0.193 0.467,0.193c0.179,0 0.334,-0.064 0.463,-0.193c0.129,-0.129 0.193,-0.285 0.193,-0.467c0,-0.182 -0.064,-0.338 -0.193,-0.467c-0.129,-0.129 -0.284,-0.193 -0.463,-0.193c-0.182,0 -0.338,0.064 -0.467,0.193c-0.129,0.129 -0.193,0.285 -0.193,0.467Z" style="fill:#7882ff;fill-rule:nonzero;"/></g><g><path d="M38.552,119.62c0.245,0 0.456,-0.071 0.634,-0.211c0.177,-0.141 0.265,-0.343 0.265,-0.606c0,-0.2 -0.07,-0.373 -0.211,-0.517c-0.142,-0.145 -0.332,-0.217 -0.572,-0.217c-0.163,0 -0.296,0.022 -0.402,0.066c-0.105,0.045 -0.188,0.103 -0.25,0.176c-0.061,0.073 -0.119,0.167 -0.173,0.281c-0.055,0.115 -0.105,0.223 -0.15,0.325c-0.027,0.054 -0.075,0.097 -0.144,0.129c-0.069,0.031 -0.149,0.046 -0.24,0.046c-0.107,0 -0.204,-0.042 -0.294,-0.127c-0.089,-0.084 -0.134,-0.197 -0.134,-0.337c0,-0.136 0.042,-0.278 0.126,-0.428c0.084,-0.15 0.207,-0.292 0.368,-0.428c0.161,-0.135 0.362,-0.244 0.601,-0.326c0.24,-0.082 0.508,-0.123 0.804,-0.123c0.258,0 0.494,0.034 0.707,0.103c0.214,0.069 0.399,0.169 0.556,0.299c0.157,0.13 0.276,0.281 0.356,0.453c0.08,0.172 0.12,0.357 0.12,0.555c0,0.26 -0.058,0.484 -0.174,0.67c-0.116,0.186 -0.282,0.368 -0.498,0.545c0.208,0.109 0.383,0.234 0.526,0.375c0.142,0.141 0.249,0.296 0.321,0.467c0.072,0.17 0.108,0.355 0.108,0.552c0,0.237 -0.048,0.467 -0.146,0.688c-0.097,0.221 -0.24,0.419 -0.429,0.592c-0.189,0.173 -0.414,0.308 -0.674,0.406c-0.26,0.098 -0.547,0.146 -0.861,0.146c-0.32,0 -0.606,-0.056 -0.859,-0.168c-0.254,-0.111 -0.462,-0.251 -0.626,-0.419c-0.164,-0.168 -0.288,-0.342 -0.372,-0.522c-0.084,-0.18 -0.126,-0.328 -0.126,-0.445c0,-0.151 0.05,-0.273 0.15,-0.365c0.1,-0.093 0.225,-0.139 0.374,-0.139c0.075,0 0.147,0.021 0.216,0.064c0.069,0.043 0.114,0.095 0.136,0.155c0.138,0.362 0.287,0.63 0.445,0.806c0.159,0.176 0.382,0.264 0.67,0.264c0.165,0 0.324,-0.04 0.478,-0.119c0.153,-0.08 0.279,-0.197 0.379,-0.354c0.1,-0.156 0.15,-0.337 0.15,-0.543c0,-0.304 -0.085,-0.543 -0.256,-0.716c-0.17,-0.174 -0.407,-0.26 -0.711,-0.26c-0.053,0 -0.136,0.005 -0.248,0.015c-0.112,0.011 -0.184,0.016 -0.216,0.016c-0.146,0 -0.26,-0.036 -0.339,-0.107c-0.08,-0.072 -0.12,-0.172 -0.12,-0.299c0,-0.125 0.048,-0.226 0.144,-0.303c0.095,-0.077 0.238,-0.115 0.427,-0.115l0.164,0Z" style="fill:#ff0076;fill-rule:nonzero;"/><path d="M42.657,119.979c0.181,-0.211 0.378,-0.367 0.591,-0.469c0.214,-0.101 0.452,-0.152 0.716,-0.152c0.253,0 0.487,0.046 0.701,0.139c0.215,0.092 0.403,0.224 0.564,0.394c0.161,0.171 0.286,0.372 0.374,0.604c0.088,0.232 0.132,0.474 0.132,0.726c0,0.368 -0.086,0.701 -0.258,1c-0.172,0.3 -0.412,0.534 -0.72,0.702c-0.307,0.167 -0.656,0.251 -1.045,0.251c-0.448,0 -0.834,-0.106 -1.159,-0.32c-0.325,-0.213 -0.574,-0.529 -0.745,-0.947c-0.172,-0.418 -0.258,-0.929 -0.258,-1.533c0,-0.493 0.052,-0.933 0.156,-1.321c0.104,-0.388 0.253,-0.709 0.447,-0.964c0.195,-0.256 0.431,-0.448 0.708,-0.579c0.277,-0.13 0.593,-0.195 0.947,-0.195c0.341,0 0.642,0.065 0.901,0.195c0.26,0.131 0.456,0.292 0.588,0.485c0.132,0.192 0.198,0.377 0.198,0.554c0,0.107 -0.042,0.204 -0.124,0.291c-0.083,0.088 -0.188,0.131 -0.316,0.131c-0.112,0 -0.216,-0.034 -0.312,-0.103c-0.096,-0.069 -0.166,-0.165 -0.212,-0.287c-0.061,-0.157 -0.158,-0.282 -0.291,-0.377c-0.134,-0.095 -0.288,-0.143 -0.464,-0.143c-0.141,0 -0.282,0.04 -0.422,0.119c-0.14,0.08 -0.257,0.187 -0.353,0.323c-0.195,0.276 -0.309,0.768 -0.344,1.476Zm1.079,2.426c0.269,0 0.492,-0.107 0.668,-0.322c0.175,-0.215 0.263,-0.497 0.263,-0.846c0,-0.237 -0.041,-0.441 -0.124,-0.611c-0.082,-0.171 -0.195,-0.301 -0.339,-0.391c-0.144,-0.09 -0.303,-0.135 -0.476,-0.135c-0.165,0 -0.323,0.043 -0.474,0.129c-0.15,0.086 -0.271,0.21 -0.363,0.373c-0.092,0.163 -0.138,0.354 -0.138,0.572c0,0.352 0.093,0.645 0.28,0.879c0.186,0.235 0.421,0.352 0.703,0.352Z" style="fill:#ff0076;fill-rule:nonzero;"/><path d="M50.515,120.268c0,0.427 -0.027,0.794 -0.08,1.102c-0.053,0.307 -0.152,0.586 -0.296,0.836c-0.181,0.307 -0.416,0.544 -0.703,0.711c-0.288,0.166 -0.608,0.25 -0.96,0.25c-0.405,0 -0.768,-0.112 -1.089,-0.336c-0.321,-0.224 -0.563,-0.534 -0.725,-0.93c-0.083,-0.216 -0.143,-0.455 -0.182,-0.717c-0.039,-0.261 -0.058,-0.545 -0.058,-0.849c0,-0.394 0.021,-0.748 0.064,-1.063c0.043,-0.315 0.109,-0.586 0.2,-0.812c0.157,-0.375 0.385,-0.661 0.685,-0.858c0.3,-0.196 0.658,-0.295 1.073,-0.295c0.275,0 0.524,0.044 0.748,0.131c0.224,0.087 0.42,0.215 0.589,0.383c0.17,0.168 0.313,0.376 0.43,0.623c0.203,0.43 0.304,1.038 0.304,1.824Zm-1.095,-0.078c0,-0.476 -0.03,-0.866 -0.088,-1.17c-0.059,-0.303 -0.157,-0.532 -0.296,-0.687c-0.139,-0.155 -0.33,-0.233 -0.576,-0.233c-0.351,0 -0.596,0.173 -0.733,0.52c-0.137,0.346 -0.206,0.88 -0.206,1.601c0,0.49 0.029,0.891 0.088,1.203c0.059,0.313 0.157,0.549 0.296,0.709c0.138,0.161 0.326,0.241 0.563,0.241c0.246,0 0.437,-0.084 0.576,-0.25c0.139,-0.167 0.236,-0.405 0.292,-0.715c0.056,-0.31 0.084,-0.716 0.084,-1.219Z" style="fill:#ff0076;fill-rule:nonzero;"/><path d="M51.403,118.335c0,-0.3 0.106,-0.555 0.318,-0.766c0.212,-0.211 0.467,-0.316 0.764,-0.316c0.302,0 0.558,0.105 0.769,0.316c0.211,0.211 0.316,0.466 0.316,0.766c0,0.299 -0.106,0.555 -0.318,0.767c-0.212,0.212 -0.468,0.319 -0.767,0.319c-0.297,0 -0.552,-0.106 -0.764,-0.317c-0.212,-0.211 -0.318,-0.467 -0.318,-0.769Zm0.425,0c0,0.182 0.065,0.338 0.194,0.466c0.129,0.129 0.284,0.194 0.466,0.194c0.18,0 0.334,-0.065 0.463,-0.194c0.129,-0.128 0.194,-0.284 0.194,-0.466c0,-0.183 -0.065,-0.338 -0.194,-0.467c-0.129,-0.129 -0.283,-0.194 -0.463,-0.194c-0.182,0 -0.337,0.065 -0.466,0.194c-0.129,0.129 -0.194,0.284 -0.194,0.467Z" style="fill:#ff0076;fill-rule:nonzero;"/></g><g><path d="M50.515,94.123c0,0.427 -0.027,0.794 -0.08,1.102c-0.053,0.307 -0.152,0.586 -0.296,0.836c-0.181,0.307 -0.416,0.544 -0.703,0.711c-0.288,0.166 -0.608,0.25 -0.96,0.25c-0.405,0 -0.768,-0.112 -1.089,-0.336c-0.321,-0.224 -0.563,-0.534 -0.725,-0.93c-0.083,-0.216 -0.143,-0.455 -0.182,-0.717c-0.039,-0.261 -0.058,-0.545 -0.058,-0.849c0,-0.394 0.021,-0.748 0.064,-1.063c0.043,-0.315 0.109,-0.586 0.2,-0.812c0.157,-0.375 0.385,-0.661 0.685,-0.858c0.3,-0.196 0.658,-0.295 1.073,-0.295c0.275,0 0.524,0.044 0.748,0.131c0.224,0.087 0.42,0.215 0.589,0.383c0.17,0.168 0.313,0.376 0.43,0.623c0.203,0.43 0.304,1.038 0.304,1.824Zm-1.095,-0.078c0,-0.476 -0.03,-0.866 -0.088,-1.17c-0.059,-0.303 -0.157,-0.532 -0.296,-0.687c-0.139,-0.155 -0.33,-0.233 -0.576,-0.233c-0.351,0 -0.596,0.173 -0.733,0.52c-0.137,0.346 -0.206,0.88 -0.206,1.601c0,0.49 0.029,0.891 0.088,1.203c0.059,0.313 0.157,0.549 0.296,0.709c0.138,0.161 0.326,0.241 0.563,0.241c0.246,0 0.437,-0.084 0.576,-0.25c0.139,-0.167 0.236,-0.405 0.292,-0.715c0.056,-0.31 0.084,-0.716 0.084,-1.219Z" style="fill:#bdb65e;fill-rule:nonzero;"/><path d="M51.403,92.19c0,-0.3 0.106,-0.555 0.318,-0.766c0.212,-0.211 0.467,-0.316 0.764,-0.316c0.302,0 0.558,0.105 0.769,0.316c0.211,0.211 0.316,0.466 0.316,0.766c0,0.299 -0.106,0.555 -0.318,0.767c-0.212,0.212 -0.468,0.319 -0.767,0.319c-0.297,0 -0.552,-0.106 -0.764,-0.317c-0.212,-0.211 -0.318,-0.467 -0.318,-0.769Zm0.425,0c0,0.182 0.065,0.338 0.194,0.466c0.129,0.129 0.284,0.194 0.466,0.194c0.18,0 0.334,-0.065 0.463,-0.194c0.129,-0.128 0.194,-0.284 0.194,-0.466c0,-0.183 -0.065,-0.338 -0.194,-0.467c-0.129,-0.129 -0.283,-0.194 -0.463,-0.194c-0.182,0 -0.337,0.065 -0.466,0.194c-0.129,0.129 -0.194,0.284 -0.194,0.467Z" style="fill:#bdb65e;fill-rule:nonzero;"/></g><g><path d="M160.613,44.864l-1.259,5.067c-0.042,0.167 -0.078,0.299 -0.11,0.396c-0.031,0.096 -0.079,0.172 -0.144,0.226c-0.064,0.054 -0.158,0.081 -0.281,0.081c-0.306,0 -0.459,-0.129 -0.459,-0.387c0,-0.067 0.03,-0.235 0.09,-0.505l1.255,-5.067c0.066,-0.269 0.129,-0.454 0.189,-0.553c0.06,-0.1 0.177,-0.15 0.351,-0.15c0.149,0 0.264,0.035 0.343,0.106c0.08,0.07 0.12,0.167 0.12,0.29c0,0.09 -0.032,0.256 -0.095,0.496Z" style="fill:#00937b;fill-rule:nonzero;"/><path d="M162.592,44.658l0,1.832c0.231,-0.234 0.466,-0.414 0.706,-0.538c0.239,-0.125 0.536,-0.187 0.89,-0.187c0.408,0 0.765,0.095 1.072,0.284c0.308,0.188 0.546,0.462 0.715,0.821c0.17,0.359 0.254,0.785 0.254,1.277c0,0.363 -0.047,0.696 -0.141,1c-0.095,0.303 -0.232,0.566 -0.412,0.788c-0.18,0.223 -0.398,0.395 -0.654,0.517c-0.256,0.121 -0.539,0.182 -0.848,0.182c-0.188,0 -0.366,-0.022 -0.532,-0.066c-0.167,-0.044 -0.308,-0.102 -0.425,-0.173c-0.117,-0.072 -0.217,-0.146 -0.299,-0.222c-0.083,-0.076 -0.191,-0.191 -0.326,-0.343l0,0.119c0,0.225 -0.056,0.396 -0.167,0.512c-0.111,0.115 -0.251,0.173 -0.422,0.173c-0.174,0 -0.313,-0.058 -0.416,-0.173c-0.104,-0.116 -0.155,-0.287 -0.155,-0.512l0,-5.239c0,-0.243 0.05,-0.427 0.15,-0.551c0.101,-0.125 0.241,-0.187 0.421,-0.187c0.189,0 0.334,0.059 0.436,0.178c0.102,0.119 0.153,0.288 0.153,0.508Zm0.058,3.564c0,0.477 0.112,0.844 0.335,1.1c0.223,0.257 0.516,0.385 0.879,0.385c0.309,0 0.575,-0.131 0.798,-0.393c0.224,-0.263 0.335,-0.638 0.335,-1.128c0,-0.316 -0.046,-0.588 -0.139,-0.817c-0.093,-0.228 -0.225,-0.405 -0.396,-0.529c-0.171,-0.125 -0.37,-0.187 -0.598,-0.187c-0.234,0 -0.442,0.062 -0.625,0.187c-0.183,0.124 -0.327,0.304 -0.431,0.54c-0.105,0.236 -0.158,0.516 -0.158,0.842Z" style="fill:#00937b;fill-rule:nonzero;"/><path d="M171.81,48.195c0,0.358 -0.057,0.687 -0.171,0.989c-0.114,0.302 -0.279,0.561 -0.495,0.778c-0.216,0.217 -0.474,0.383 -0.773,0.499c-0.3,0.115 -0.637,0.173 -1.012,0.173c-0.372,0 -0.706,-0.058 -1.003,-0.176c-0.297,-0.117 -0.554,-0.284 -0.771,-0.503c-0.217,-0.218 -0.382,-0.476 -0.495,-0.773c-0.112,-0.298 -0.168,-0.626 -0.168,-0.987c0,-0.363 0.057,-0.696 0.171,-0.997c0.114,-0.302 0.277,-0.56 0.49,-0.774c0.213,-0.214 0.47,-0.378 0.773,-0.494c0.303,-0.116 0.637,-0.174 1.003,-0.174c0.372,0 0.709,0.059 1.012,0.176c0.302,0.117 0.562,0.284 0.778,0.501c0.215,0.217 0.38,0.475 0.492,0.773c0.112,0.299 0.169,0.629 0.169,0.989Zm-1.232,0c0,-0.489 -0.111,-0.87 -0.331,-1.142c-0.22,-0.273 -0.516,-0.409 -0.888,-0.409c-0.24,0 -0.451,0.061 -0.634,0.182c-0.183,0.122 -0.324,0.301 -0.423,0.539c-0.099,0.237 -0.148,0.514 -0.148,0.83c0,0.314 0.049,0.588 0.146,0.822c0.097,0.234 0.237,0.414 0.418,0.538c0.182,0.125 0.395,0.187 0.641,0.187c0.372,0 0.668,-0.137 0.888,-0.411c0.22,-0.274 0.331,-0.652 0.331,-1.136Z" style="fill:#00937b;fill-rule:nonzero;"/><path d="M177.372,48.195c0,0.358 -0.057,0.687 -0.171,0.989c-0.114,0.302 -0.279,0.561 -0.495,0.778c-0.216,0.217 -0.473,0.383 -0.773,0.499c-0.3,0.115 -0.637,0.173 -1.012,0.173c-0.372,0 -0.706,-0.058 -1.003,-0.176c-0.296,-0.117 -0.553,-0.284 -0.771,-0.503c-0.217,-0.218 -0.382,-0.476 -0.494,-0.773c-0.113,-0.298 -0.169,-0.626 -0.169,-0.987c0,-0.363 0.057,-0.696 0.171,-0.997c0.114,-0.302 0.277,-0.56 0.49,-0.774c0.213,-0.214 0.471,-0.378 0.773,-0.494c0.303,-0.116 0.637,-0.174 1.003,-0.174c0.372,0 0.709,0.059 1.012,0.176c0.303,0.117 0.562,0.284 0.778,0.501c0.216,0.217 0.38,0.475 0.492,0.773c0.113,0.299 0.169,0.629 0.169,0.989Zm-1.232,0c0,-0.489 -0.11,-0.87 -0.331,-1.142c-0.22,-0.273 -0.516,-0.409 -0.888,-0.409c-0.24,0 -0.451,0.061 -0.634,0.182c-0.183,0.122 -0.324,0.301 -0.423,0.539c-0.098,0.237 -0.148,0.514 -0.148,0.83c0,0.314 0.049,0.588 0.146,0.822c0.098,0.234 0.237,0.414 0.418,0.538c0.182,0.125 0.395,0.187 0.641,0.187c0.372,0 0.668,-0.137 0.888,-0.411c0.221,-0.274 0.331,-0.652 0.331,-1.136Z" style="fill:#00937b;fill-rule:nonzero;"/><path d="M181.396,50.085l-1.083,-1.74l-0.666,0.615l0,0.953c0,0.232 -0.062,0.41 -0.187,0.534c-0.124,0.125 -0.267,0.187 -0.429,0.187c-0.189,0 -0.337,-0.061 -0.445,-0.184c-0.108,-0.123 -0.162,-0.305 -0.162,-0.545l0,-5.116c0,-0.266 0.052,-0.469 0.157,-0.608c0.105,-0.139 0.255,-0.209 0.45,-0.209c0.189,0 0.339,0.063 0.45,0.189c0.111,0.126 0.166,0.312 0.166,0.558l0,2.909l1.38,-1.415c0.171,-0.175 0.302,-0.296 0.392,-0.36c0.09,-0.065 0.199,-0.097 0.328,-0.097c0.153,0 0.28,0.048 0.382,0.143c0.102,0.095 0.153,0.215 0.153,0.358c0,0.176 -0.166,0.41 -0.499,0.703l-0.652,0.585l1.259,1.933c0.093,0.144 0.16,0.253 0.2,0.328c0.04,0.075 0.061,0.146 0.061,0.213c0,0.19 -0.053,0.341 -0.16,0.45c-0.106,0.11 -0.246,0.165 -0.42,0.165c-0.15,0 -0.266,-0.039 -0.347,-0.118c-0.081,-0.08 -0.19,-0.223 -0.328,-0.431Z" style="fill:#00937b;fill-rule:nonzero;"/></g></svg>