<?xml version="1.0" encoding="UTF-8" standalone="no"?><!DOCTYPE svg PUBLIC "-//W3C//DTD SVG 1.1//EN" "http://www.w3.org/Graphics/SVG/1.1/DTD/svg11.dtd"><svg width="100%" height="100%" viewBox="0 0 1202 889" version="1.1" xmlns="http://www.w3.org/2000/svg" xmlns:xlink="http://www.w3.org/1999/xlink" xml:space="preserve" xmlns:serif="http://www.serif.com/" style="fill-rule:evenodd;clip-rule:evenodd;stroke-linecap:round;stroke-linejoin:round;stroke-miterlimit:1;"><text x="610.658px" y="710.535px" style="font-family:'ArialRoundedMTBold', 'Arial Rounded MT Bold', sans-serif;font-size:37.5px;fill:#7882ff;">t<tspan x="624.241px 647.042px 670.218px " y="710.535px 710.535px 710.535px ">ent</tspan></text><text x="318.327px" y="512.769px" style="font-family:'ArialRoundedMTBold', 'Arial Rounded MT Bold', sans-serif;font-size:37.5px;fill:#ff0076;">t<tspan x="331.91px 354.205px 377.681px 388.079px 410.88px " y="512.769px 512.769px 512.769px 512.769px 512.769px ">ablet</tspan></text><text x="495.247px" y="210.581px" style="font-family:'ArialRoundedMTBold', 'Arial Rounded MT Bold', sans-serif;font-size:37.5px;fill:#00937b;">l<tspan x="505.645px 527.941px 551.922px 565.505px 588.681px " y="210.581px 210.581px 210.581px 210.581px 210.581px ">aptop</tspan></text><text x="856.762px" y="379.157px" style="font-family:'ArialRoundedMTBold', 'Arial Rounded MT Bold', sans-serif;font-size:37.5px;fill:#3d3d3d;">f<tspan x="870.008px 880.407px 902.252px " y="379.157px 379.157px 379.157px ">lat</tspan></text><text x="-3.372px" y="462.234px" style="font-family:'ArialRoundedMTBold', 'Arial Rounded MT Bold', sans-serif;font-size:50px;fill:#bdb65e;">b<tspan x="28.603px 59.004px 86.733px " y="462.234px 462.234px 462.234px ">ase</tspan></text><path d="M630.971,444.339l-428.177,199.662" style="fill:none;stroke:#7882ff;stroke-width:25px;"/><path d="M630.971,444.339l470.643,41.176" style="fill:none;stroke:#3d3d3d;stroke-width:25px;"/><path d="M776.276,322.413l-145.305,121.926l-189.714,0c0,-104.706 85.008,-189.715 189.714,-189.715c58.3,0 110.493,26.355 145.305,67.789Z" style="fill:#00937b;"/><path d="M630.971,444.339l361.911,-303.679" style="fill:none;stroke:#00937b;stroke-width:25px;"/><path d="M441.257,444.339l189.714,0l-171.959,80.186c-11.391,-24.362 -17.755,-51.537 -17.755,-80.186Z" style="fill:#ff0076;"/><path d="M459.012,524.525l171.959,-80.186l189.002,16.535c-8.389,96.976 -89.866,173.179 -189.002,173.179c-76.057,0 -141.72,-44.853 -171.959,-109.528Z" style="fill:#7882ff;"/><path d="M776.276,322.413c27.711,32.982 44.41,75.519 44.41,121.926c0,5.571 -0.241,11.086 -0.713,16.535l-189.002,-16.535l145.305,-121.926Z" style="fill:#3d3d3d;"/><path d="M158.53,444.339l472.441,0" style="fill:none;stroke:#bdb65e;stroke-width:25px;stroke-dasharray:0,50,0,0;stroke-dashoffset:25;"/><path d="M240.835,481.515l24.601,-25.393l25.392,24.601" style="fill:none;stroke:#ff0076;stroke-width:16.67px;stroke-linejoin:miter;stroke-miterlimit:10;"/><path d="M299.476,598.918c-20.391,-43.612 -32.426,-91.899 -34.04,-142.796" style="fill:none;stroke:#ff0076;stroke-width:16.67px;stroke-linejoin:miter;"/><path d="M293.121,642.937l11.519,-33.426l33.426,11.519" style="fill:none;stroke:#7882ff;stroke-width:16.67px;stroke-linejoin:miter;stroke-miterlimit:10;"/><path d="M995.321,476.215c-16.173,186.945 -173.241,333.846 -364.35,333.846c-142.429,0 -265.951,-81.595 -326.331,-200.55" style="fill:none;stroke:#7882ff;stroke-width:16.67px;stroke-linejoin:miter;"/><path d="M1023.72,425.452l-27.414,35.773l-22.477,-39.065" style="fill:none;stroke:#3d3d3d;stroke-width:16.67px;stroke-linejoin:miter;stroke-miterlimit:10;"/><path d="M911.084,209.296c53.419,63.581 85.61,145.583 85.61,235.043c0,5.659 -0.129,11.289 -0.384,16.886" style="fill:none;stroke:#3d3d3d;stroke-width:16.67px;stroke-linejoin:miter;"/><path d="M905.854,165.129l-2.495,35.267l-35.267,-2.495" style="fill:none;stroke:#00937b;stroke-width:16.67px;stroke-linejoin:miter;stroke-miterlimit:10;"/><path d="M265.249,444.339c0,-201.848 163.875,-365.722 365.722,-365.722c108.155,0 205.407,47.049 272.388,121.779" style="fill:none;stroke:#00937b;stroke-width:16.67px;stroke-linejoin:miter;"/><g transform="matrix(1,0,0,1,-7248.42,-2444.86)"><g transform="matrix(1.02321,0,0,1,-191.063,0)"><text x="8231.86px" y="2560.08px" style="font-family:'ArialRoundedMTBold', 'Arial Rounded MT Bold', sans-serif;font-size:33.333px;fill:#00937b;">110</text></g><text x="8292.67px" y="2560.08px" style="font-family:'ArialMT', 'Arial', sans-serif;font-size:33.333px;fill:#00937b;">°</text></g><g transform="matrix(1,0,0,1,-7101.93,-2059.59)"><g transform="matrix(1.02321,0,0,1,-191.063,0)"><text x="8231.86px" y="2560.08px" style="font-family:'ArialRoundedMTBold', 'Arial Rounded MT Bold', sans-serif;font-size:33.333px;fill:#3d3d3d;">185</text></g><text x="8292.67px" y="2560.08px" style="font-family:'ArialMT', 'Arial', sans-serif;font-size:33.333px;fill:#3d3d3d;">°</text></g><g transform="matrix(1,0,0,1,-8105.28,-1873.57)"><g transform="matrix(1.02321,0,0,1,-191.063,0)"><text x="8231.86px" y="2560.08px" style="font-family:'ArialRoundedMTBold', 'Arial Rounded MT Bold', sans-serif;font-size:33.333px;fill:#7882ff;">335</text></g><text x="8292.67px" y="2560.08px" style="font-family:'ArialMT', 'Arial', sans-serif;font-size:33.333px;fill:#7882ff;">°</text></g><g transform="matrix(1,0,0,1,-8125.24,-2047.26)"><g transform="matrix(1.02321,0,0,1,-191.063,0)"><text x="8231.86px" y="2560.08px" style="font-family:'ArialRoundedMTBold', 'Arial Rounded MT Bold', sans-serif;font-size:33.333px;fill:#ff0076;">360</text></g><text x="8292.67px" y="2560.08px" style="font-family:'ArialMT', 'Arial', sans-serif;font-size:33.333px;fill:#ff0076;">°</text></g><g transform="matrix(1,0,0,1,-7138.09,-2365.87)"><g transform="matrix(1.02321,0,0,1,-169.092,0)"><text x="7285.25px" y="2769.76px" style="font-family:'ArialRoundedMTBold', 'Arial Rounded MT Bold', sans-serif;font-size:33.333px;fill:#bdb65e;">0</text></g><text x="7305.52px" y="2769.76px" style="font-family:'ArialMT', 'Arial', sans-serif;font-size:33.333px;fill:#bdb65e;">°</text></g></svg>