<?xml version="1.0" encoding="UTF-8" standalone="no"?><!DOCTYPE svg PUBLIC "-//W3C//DTD SVG 1.1//EN" "http://www.w3.org/Graphics/SVG/1.1/DTD/svg11.dtd"><svg width="100%" height="100%" viewBox="0 0 300 214" version="1.1" xmlns="http://www.w3.org/2000/svg" xmlns:xlink="http://www.w3.org/1999/xlink" xml:space="preserve" xmlns:serif="http://www.serif.com/" style="fill-rule:evenodd;clip-rule:evenodd;stroke-linecap:round;stroke-linejoin:round;stroke-miterlimit:1;"><text x="157.278px" y="170.528px" style="font-family:'ArialRoundedMTBold', 'Arial Rounded MT Bold', sans-serif;font-size:9px;fill:#7882ff;">te<tspan x="166.01px 171.572px " y="170.528px 170.528px ">nt</tspan></text><text x="87.118px" y="123.065px" style="font-family:'ArialRoundedMTBold', 'Arial Rounded MT Bold', sans-serif;font-size:9px;fill:#ff0076;">tab<tspan x="101.363px 103.859px 109.331px " y="123.065px 123.065px 123.065px ">let</tspan></text><text x="129.579px" y="50.54px" style="font-family:'ArialRoundedMTBold', 'Arial Rounded MT Bold', sans-serif;font-size:9px;fill:#00937b;">lap<tspan x="143.181px 146.441px 152.003px " y="50.54px 50.54px 50.54px ">top</tspan></text><text x="216.343px" y="90.998px" style="font-family:'ArialRoundedMTBold', 'Arial Rounded MT Bold', sans-serif;font-size:9px;fill:#3d3d3d;">f<tspan x="219.522px 222.017px 227.26px " y="90.998px 90.998px 90.998px ">lat</tspan></text><text x="-0.528px" y="110.936px" style="font-family:'ArialRoundedMTBold', 'Arial Rounded MT Bold', sans-serif;font-size:12px;fill:#bdb65e;">c<tspan x="6.463px 9.79px 17.207px 23.862px 31.158px " y="110.936px 110.936px 110.936px 110.936px 110.936px ">losed</tspan></text><path d="M162.153,106.641l-102.763,47.919" style="fill:none;stroke:#7882ff;stroke-width:6px;"/><path d="M162.153,106.641l112.954,9.883" style="fill:none;stroke:#3d3d3d;stroke-width:6px;"/><path d="M197.026,77.379l-34.873,29.262l-45.532,0c0,-25.129 20.402,-45.531 45.532,-45.531c13.992,0 26.518,6.325 34.873,16.269Z" style="fill:#00937b;"/><path d="M162.153,106.641l86.858,-72.883" style="fill:none;stroke:#00937b;stroke-width:6px;"/><path d="M116.621,106.641l45.532,0l-41.27,19.245c-2.734,-5.847 -4.262,-12.369 -4.262,-19.245Z" style="fill:#ff0076;"/><path d="M120.883,125.886l41.27,-19.245l45.36,3.969c-2.013,23.274 -21.568,41.563 -45.36,41.563c-18.254,0 -34.013,-10.765 -41.27,-26.287Z" style="fill:#7882ff;"/><path d="M197.026,77.379c6.651,7.916 10.658,18.125 10.658,29.262c0,1.337 -0.057,2.661 -0.171,3.969l-45.36,-3.969l34.873,-29.262Z" style="fill:#3d3d3d;"/><path d="M48.767,106.641l113.386,0" style="fill:none;stroke:#bdb65e;stroke-width:6px;stroke-dasharray:0,12,0,0;stroke-dashoffset:6;"/><path d="M68.52,115.564l5.904,-6.095l6.095,5.905" style="fill:none;stroke:#ff0076;stroke-width:4px;stroke-linejoin:miter;stroke-miterlimit:10;"/><path d="M82.594,143.74c-4.894,-10.467 -7.782,-22.055 -8.17,-34.271" style="fill:none;stroke:#ff0076;stroke-width:4px;stroke-linejoin:miter;"/><path d="M81.069,154.305l2.764,-8.022l8.023,2.764" style="fill:none;stroke:#7882ff;stroke-width:4px;stroke-linejoin:miter;stroke-miterlimit:10;"/><path d="M249.597,114.292c-3.882,44.866 -41.578,80.123 -87.444,80.123c-34.183,0 -63.828,-19.583 -78.32,-48.132" style="fill:none;stroke:#7882ff;stroke-width:4px;stroke-linejoin:miter;"/><path d="M256.414,102.108l-6.58,8.586l-5.394,-9.376" style="fill:none;stroke:#3d3d3d;stroke-width:4px;stroke-linejoin:miter;stroke-miterlimit:10;"/><path d="M229.38,50.231c12.821,15.26 20.546,34.94 20.546,56.41c0,1.359 -0.031,2.71 -0.092,4.053" style="fill:none;stroke:#3d3d3d;stroke-width:4px;stroke-linejoin:miter;"/><path d="M228.125,39.631l-0.599,8.464l-8.464,-0.599" style="fill:none;stroke:#00937b;stroke-width:4px;stroke-linejoin:miter;stroke-miterlimit:10;"/><path d="M74.38,106.641c0,-48.443 39.329,-87.773 87.773,-87.773c25.957,0 49.297,11.292 65.373,29.227" style="fill:none;stroke:#00937b;stroke-width:4px;stroke-linejoin:miter;"/><g transform="matrix(0.24,0,0,0.24,-1728.9,-586.767)"><g transform="matrix(1.02321,0,0,1,-191.063,0)"><text x="8231.86px" y="2560.08px" style="font-family:'ArialRoundedMTBold', 'Arial Rounded MT Bold', sans-serif;font-size:33.333px;fill:#00937b;">140</text></g><text x="8292.67px" y="2560.08px" style="font-family:'ArialMT', 'Arial', sans-serif;font-size:33.333px;fill:#00937b;">°</text></g><g transform="matrix(0.24,0,0,0.24,-1693.74,-494.302)"><g transform="matrix(1.02321,0,0,1,-191.063,0)"><text x="8231.86px" y="2560.08px" style="font-family:'ArialRoundedMTBold', 'Arial Rounded MT Bold', sans-serif;font-size:33.333px;fill:#3d3d3d;">185</text></g><text x="8292.67px" y="2560.08px" style="font-family:'ArialMT', 'Arial', sans-serif;font-size:33.333px;fill:#3d3d3d;">°</text></g><g transform="matrix(0.24,0,0,0.24,-1934.55,-449.657)"><g transform="matrix(1.02321,0,0,1,-191.063,0)"><text x="8231.86px" y="2560.08px" style="font-family:'ArialRoundedMTBold', 'Arial Rounded MT Bold', sans-serif;font-size:33.333px;fill:#7882ff;">335</text></g><text x="8292.67px" y="2560.08px" style="font-family:'ArialMT', 'Arial', sans-serif;font-size:33.333px;fill:#7882ff;">°</text></g><g transform="matrix(0.24,0,0,0.24,-1939.34,-491.341)"><g transform="matrix(1.02321,0,0,1,-191.063,0)"><text x="8231.86px" y="2560.08px" style="font-family:'ArialRoundedMTBold', 'Arial Rounded MT Bold', sans-serif;font-size:33.333px;fill:#ff0076;">360</text></g><text x="8292.67px" y="2560.08px" style="font-family:'ArialMT', 'Arial', sans-serif;font-size:33.333px;fill:#ff0076;">°</text></g><g transform="matrix(0.24,0,0,0.24,-1702.42,-567.809)"><g transform="matrix(1.02321,0,0,1,-169.092,0)"><text x="7285.25px" y="2769.76px" style="font-family:'ArialRoundedMTBold', 'Arial Rounded MT Bold', sans-serif;font-size:33.333px;fill:#bdb65e;">0</text></g><text x="7305.52px" y="2769.76px" style="font-family:'ArialMT', 'Arial', sans-serif;font-size:33.333px;fill:#bdb65e;">°</text></g></svg>