<?xml version="1.0" encoding="UTF-8" standalone="no"?><!DOCTYPE svg PUBLIC "-//W3C//DTD SVG 1.1//EN" "http://www.w3.org/Graphics/SVG/1.1/DTD/svg11.dtd"><svg width="100%" height="100%" viewBox="0 0 792 607" version="1.1" xmlns="http://www.w3.org/2000/svg" xmlns:xlink="http://www.w3.org/1999/xlink" xml:space="preserve" xmlns:serif="http://www.serif.com/" style="fill-rule:evenodd;clip-rule:evenodd;stroke-linecap:round;stroke-linejoin:round;stroke-miterlimit:1.5;"><g><g><path d="M553.314,436.039c80.743,1.495 103.962,-36.348 85.75,-77.155c-18.247,-40.886 -60.561,-77.852 -69.191,-120.208c-8.51,-41.774 16.359,-67.088 85.544,-76.798" style="fill:none;stroke:#3d3d3d;stroke-width:32.09px;"/><path d="M785.352,113.576c-1.642,-6.131 -7.953,-9.774 -14.084,-8.132l-37.482,10.044c-6.13,1.642 -9.774,7.953 -8.131,14.084l5.952,22.215c1.643,6.13 7.954,9.774 14.084,8.131l37.482,-10.043c6.131,-1.643 9.774,-7.953 8.132,-14.084l-5.953,-22.215Z" style="fill:#961dd2;"/><path d="M737.218,115.86c-1.36,-5.076 -6.585,-8.093 -11.661,-6.733l-75.498,20.23c-5.076,1.36 -4.679,7.602 -6.733,11.661c-3.422,6.761 -26.421,32.745 -26.421,32.745c0,0 32.739,10.366 39.095,14.554c3.802,2.506 6.585,8.093 11.661,6.733l75.498,-20.23c5.076,-1.36 8.093,-6.585 6.733,-11.661l-12.674,-47.299Z" style="fill:#3d3d3d;"/></g><g><path d="M542.831,589.986l-203.872,-129.596" style="fill:none;stroke:#808080;stroke-width:32.1px;"/><path d="M302.889,588.367l-203.872,-129.596" style="fill:none;stroke:#808080;stroke-width:32.1px;"/><path d="M305.55,589.986l110.052,-473.226l127.229,473.226" style="fill:none;stroke:#3d3d3d;stroke-width:32.1px;"/><path d="M476.593,419.138l1.354,-31.791l-31.791,-1.354" style="fill:none;stroke:#e952ad;stroke-width:15px;stroke-linejoin:miter;stroke-miterlimit:10;"/><path d="M371.32,423.159l-3.783,-31.594l31.594,-3.783" style="fill:none;stroke:#e952ad;stroke-width:15px;stroke-linejoin:miter;stroke-miterlimit:10;"/><path d="M477.947,387.347c-15.761,12.871 -35.973,20.608 -57.999,20.608c-19.503,0 -37.583,-6.066 -52.411,-16.39" style="fill:none;stroke:#e952ad;stroke-width:15px;"/></g><g><path d="M103.786,39.729c-2.618,-4.311 -6.478,-7.288 -11.574,-8.923l14.519,-25.008l0,-4.803l-38.564,0l-14.226,48.34l-14.216,-48.34l-10.302,0l4.71,15.79l-9.614,32.55l-14.221,-48.34l-10.298,0l23.537,79.427l0.982,0l14.71,-49.221l14.712,49.221l0.98,0l20.153,-68.007l0.947,-1.612l16.586,0l-13.742,23.723l0,4.708l3.931,0c5.039,0 8.724,1.537 11.082,4.612c2.027,2.611 3.038,6.305 3.038,11.078c0,4.317 -0.945,8.011 -2.841,11.082c-1.895,3.075 -4.217,4.605 -6.963,4.605c-2.612,0 -4.89,-0.864 -6.822,-2.595c-1.925,-1.729 -3.485,-4.101 -4.658,-7.102l-8.047,3.327c1.632,4.971 4.154,8.907 7.552,11.817c3.396,2.905 7.395,4.364 11.974,4.364c6.072,0 11.025,-2.453 14.85,-7.354c3.829,-4.901 5.749,-10.953 5.749,-18.144c0.001,-5.818 -1.313,-10.886 -3.924,-15.195Z" style="fill:#808080;fill-rule:nonzero;"/><g><path d="M147.622,0.55l1.673,10.139l-5.915,11.297c0,0 -2.268,-4.797 -6.026,-7.449c-3.173,-2.235 -5.246,-2.721 -8.473,-2.052c-4.155,0.857 -8.865,5.817 -10.917,11.936c-2.463,7.323 -2.483,10.865 -2.566,14.121c-0.138,5.212 0.683,8.298 0.683,8.298c0,0 -3.583,-6.627 -3.55,-16.341c0.029,-6.932 1.114,-13.222 4.315,-19.427c2.827,-5.448 7.025,-8.723 10.749,-9.111c3.847,-0.4 6.894,1.457 9.248,3.465c2.465,2.106 4.956,6.717 4.956,6.717l5.823,-11.593Z" style="fill:#808080;fill-rule:nonzero;"/><path d="M148.351,57.921c0,0 -2.617,4.662 -4.239,6.461c-1.629,1.794 -4.534,4.965 -8.127,6.545c-3.599,1.581 -5.479,1.882 -9.035,1.541c-3.547,-0.341 -6.847,-2.392 -8.004,-3.252c-1.152,-0.857 -4.101,-3.384 -5.769,-5.731c-1.672,-2.357 -4.282,-7.062 -4.282,-7.062c0,0 1.45,4.717 2.365,6.718c0.523,1.15 2.134,4.67 4.418,7.739c2.123,2.87 6.263,7.791 12.558,8.903c6.295,1.109 10.614,-1.713 11.682,-2.394c1.068,-0.684 3.324,-2.576 4.749,-4.102c1.492,-1.59 2.899,-3.623 3.685,-4.84c0.575,-0.892 1.5,-2.699 1.5,-2.699l-1.501,-7.827Z" style="fill:#808080;fill-rule:nonzero;"/><path d="M155.379,1.887c0.682,0 0.998,0.192 0.998,0.666c0,0.454 -0.316,0.618 -0.978,0.618l-0.618,0l0,-1.284l0.598,0Zm0.132,-0.473l-1.46,0l0,3.876l0.729,0l0,-1.653l0.72,0l0.79,1.652l0.814,0l-0.863,-1.768c0.56,-0.113 0.884,-0.493 0.884,-1.044c0,-0.703 -0.532,-1.063 -1.614,-1.063Zm2.875,2.032c0,0.79 -0.304,1.521 -0.863,2.061c-0.587,0.571 -1.318,0.874 -2.125,0.874c-0.759,0 -1.508,-0.312 -2.069,-0.882c-0.56,-0.571 -0.871,-1.302 -0.871,-2.08c0,-0.781 0.324,-1.54 0.901,-2.128c0.542,-0.552 1.271,-0.847 2.066,-0.847c0.816,0 1.548,0.304 2.118,0.885c0.55,0.55 0.843,1.292 0.843,2.117Zm-2.969,-3.446c-0.922,0 -1.746,0.329 -2.372,0.968c-0.662,0.676 -1.033,1.548 -1.033,2.451c0,0.903 0.351,1.737 0.996,2.391c0.654,0.666 1.5,1.025 2.409,1.025c0.892,0 1.755,-0.359 2.429,-1.014c0.646,-0.627 0.996,-1.462 0.996,-2.402c0,-0.913 -0.362,-1.768 -0.988,-2.404c-0.652,-0.666 -1.507,-1.015 -2.437,-1.015Z" style="fill:#808080;"/></g></g><g><path d="M68.218,258.859l266.874,-133.437l0,266.874l-266.874,-133.437Z" style="fill:none;"/><clipPath id="_clip1"><path d="M68.218,258.859l266.874,-133.437l0,266.874l-266.874,-133.437Z"/></clipPath><g clip-path="url(#_clip1)"><path d="M251.089,138.487c34.993,25.489 57.753,66.78 57.753,113.344l0,14.056c0,46.564 -22.759,87.853 -57.753,113.342" style="fill:none;stroke:#e95271;stroke-width:32.1px;"/><path d="M211.197,183.078c22.03,16.046 36.359,42.041 36.359,71.356l0,8.849c0,29.315 -14.328,55.309 -36.359,71.356" style="fill:none;stroke:#e97252;stroke-width:32.1px;"/><path d="M162.813,210.15c14.16,10.314 23.37,27.023 23.37,45.865l0,5.687c0,18.842 -9.21,35.55 -23.37,45.864" style="fill:none;stroke:#e9b152;stroke-width:32.1px;"/></g><path d="M222.592,381.761c-12.785,4.525 -26.533,7.007 -40.85,7.053l-0.4,0.001l-86.25,0l0,-259.912l86.25,0c14.461,0 28.346,2.486 41.25,7.053" style="fill:none;stroke:#3d3d3d;stroke-width:32.1px;"/></g><g><path d="M686.792,166.941l-10.391,-17.933l-0.098,20.743c-0.018,1.576 -0.062,2.716 -0.133,3.418c-0.071,0.703 -0.339,1.387 -0.805,2.054c-0.465,0.667 -1.196,1.134 -2.193,1.401c-0.807,0.216 -1.51,0.244 -2.111,0.082c-0.601,-0.161 -1.136,-0.473 -1.606,-0.936c-0.47,-0.463 -0.909,-1.045 -1.316,-1.745c-0.408,-0.7 -0.779,-1.351 -1.113,-1.953l-11.181,-20.266c-0.66,-1.174 -1.079,-2.091 -1.255,-2.751c-0.224,-0.835 -0.12,-1.618 0.314,-2.347c0.433,-0.728 1.082,-1.209 1.947,-1.44c1.187,-0.319 2.088,-0.152 2.703,0.501c0.615,0.652 1.27,1.663 1.967,3.031l8.435,14.591l0.839,-15.779c-0.01,-1.443 0.031,-2.554 0.121,-3.332c0.09,-0.778 0.381,-1.509 0.874,-2.191c0.493,-0.682 1.282,-1.168 2.367,-1.459c1.099,-0.294 2.025,-0.255 2.776,0.117c0.752,0.372 1.33,0.842 1.733,1.409c0.404,0.568 0.998,1.524 1.782,2.869l8.661,13.234l0.009,-16.853c-0.058,-1.037 -0.07,-1.859 -0.036,-2.465c0.034,-0.606 0.216,-1.189 0.545,-1.749c0.329,-0.559 0.919,-0.953 1.769,-1.181c0.851,-0.228 1.648,-0.139 2.393,0.266c0.745,0.406 1.232,1.033 1.459,1.884c0.161,0.601 0.257,1.604 0.288,3.01l0.451,23.141c0.026,1.564 0.009,2.72 -0.05,3.466c-0.059,0.747 -0.31,1.454 -0.751,2.122c-0.442,0.669 -1.19,1.144 -2.246,1.427c-0.997,0.267 -1.862,0.232 -2.597,-0.105c-0.734,-0.338 -1.303,-0.787 -1.704,-1.347c-0.402,-0.56 -1.017,-1.538 -1.847,-2.934Z" style="fill:#fff;fill-rule:nonzero;"/><path d="M733.502,145.822l1.656,6.18c0.22,0.82 0.315,1.498 0.285,2.032c-0.029,0.535 -0.207,1.058 -0.534,1.569c-0.326,0.512 -0.777,1.042 -1.353,1.589c-1.667,1.578 -3.338,2.85 -5.011,3.817c-1.674,0.967 -3.573,1.735 -5.699,2.305c-2.477,0.664 -4.837,0.887 -7.079,0.671c-2.242,-0.216 -4.276,-0.858 -6.101,-1.924c-1.826,-1.066 -3.4,-2.53 -4.724,-4.391c-1.323,-1.86 -2.327,-4.066 -3.01,-6.617c-0.672,-2.507 -0.913,-4.901 -0.723,-7.183c0.19,-2.282 0.816,-4.343 1.878,-6.184c1.063,-1.84 2.532,-3.424 4.407,-4.751c1.876,-1.327 4.133,-2.345 6.772,-3.052c2.169,-0.581 4.167,-0.806 5.994,-0.675c1.826,0.131 3.377,0.497 4.654,1.098c1.276,0.601 2.31,1.322 3.101,2.162c0.791,0.841 1.289,1.643 1.493,2.405c0.22,0.821 0.103,1.602 -0.35,2.344c-0.453,0.743 -1.105,1.227 -1.955,1.455c-0.469,0.126 -0.95,0.137 -1.441,0.033c-0.491,-0.104 -0.937,-0.315 -1.336,-0.632c-1.144,-1.045 -2.081,-1.815 -2.811,-2.311c-0.73,-0.496 -1.626,-0.837 -2.69,-1.023c-1.063,-0.186 -2.328,-0.083 -3.794,0.31c-1.51,0.404 -2.479,0.943 -3.527,1.781c-1.048,0.839 -1.861,1.866 -2.438,3.081c-0.578,1.216 -0.898,2.601 -0.96,4.158c-0.062,1.556 0.14,3.207 0.608,4.951c1.013,3.783 2.661,6.46 4.945,8.032c0.142,0.098 0.287,0.192 0.432,0.281c2.189,1.333 4.43,1.692 7.344,0.911c1.51,-0.404 2.255,-0.816 3.476,-1.567c1.22,-0.752 2.414,-1.676 3.581,-2.775l-1.402,-5.233l-4.438,1.189c-1.216,0.326 -2.185,0.389 -2.907,0.19c-0.721,-0.2 -1.199,-0.74 -1.435,-1.619c-0.193,-0.719 -0.091,-1.382 0.303,-1.991c0.395,-0.608 1.04,-1.032 1.934,-1.272l7.41,-1.985c0.909,-0.244 1.7,-0.37 2.374,-0.377c0.674,-0.008 1.279,0.215 1.817,0.668c0.538,0.453 0.956,1.236 1.254,2.35Z" style="fill:#fff;fill-rule:nonzero;"/></g></g></svg>