<?xml version="1.0" encoding="UTF-8" standalone="no"?><!DOCTYPE svg PUBLIC "-//W3C//DTD SVG 1.1//EN" "http://www.w3.org/Graphics/SVG/1.1/DTD/svg11.dtd"><svg width="100%" height="100%" viewBox="0 0 595 426" version="1.1" xmlns="http://www.w3.org/2000/svg" xmlns:xlink="http://www.w3.org/1999/xlink" xml:space="preserve" xmlns:serif="http://www.serif.com/" style="fill-rule:evenodd;clip-rule:evenodd;stroke-linecap:round;stroke-linejoin:round;stroke-miterlimit:1.5;"><g transform="matrix(0.24,0,0,0.24,-1674.31,-1013.14)"><g transform="matrix(1.02321,0,0,1,-172.214,0)"><text x="7419.76px" y="5835.21px" style="font-family:'ArialRoundedMTBold', 'Arial Rounded MT Bold', sans-serif;font-size:58.333px;fill:#3d3d3d;">postur<tspan x="7603.05px 7637.72px " y="5835.21px 5835.21px ">e:</tspan> f<tspan x="7690.69px 7706.5px 7739.71px " y="5835.21px 5835.21px 5835.21px ">lat</tspan></text></g><g transform="matrix(1.02321,0,0,1,-172.214,0)"><text x="7419.76px" y="5897.6px" style="font-family:'ArialRoundedMTBold', 'Arial Rounded MT Bold', sans-serif;font-size:58.333px;fill:#3d3d3d;">ang<tspan x="7525.35px 7541.16px " y="5897.6px 5897.6px ">le</tspan>: 180</text></g><text x="7719.45px" y="5897.6px" style="font-family:'ArialMT', 'Arial', sans-serif;font-size:60.417px;">°</text></g><g><path d="M45.867,377.713c-1.252,-0.722 -3.148,-0.801 -4.232,-0.175l-20.621,11.906c-1.083,0.625 -0.947,1.72 0.304,2.443l44.562,25.728c1.252,0.722 3.148,0.801 4.232,0.175l20.621,-11.906c1.084,-0.625 0.948,-1.72 -0.304,-2.443l-44.562,-25.728Z" style="fill:#fff;stroke:#3d3d3d;stroke-width:3px;stroke-dasharray:0,0.15,0,0;"/><path d="M48.785,381.666l-20.621,11.906l29.096,16.798l20.621,-11.906l-29.096,-16.798Z" style="fill:#00937b;"/><clipPath id="_clip1"><path d="M48.785,381.666l-20.621,11.906l29.096,16.798l20.621,-11.906l-29.096,-16.798Z"/></clipPath><g clip-path="url(#_clip1)"><path d="M60.969,400.887c5.027,-2.902 13.189,-2.902 18.215,0c5.027,2.902 5.027,7.614 0,10.516c-5.026,2.902 -13.188,2.902 -18.215,0c-5.026,-2.902 -5.026,-7.614 0,-10.516Z" style="fill:#fff;"/><path d="M49.942,394.52c3.28,-1.893 8.606,-1.893 11.886,0c3.28,1.894 3.28,4.969 0,6.863c-3.28,1.894 -8.606,1.894 -11.886,0c-3.28,-1.894 -3.28,-4.969 0,-6.863Z" style="fill:#fff;stroke:#00937b;stroke-width:0.71px;stroke-linecap:butt;stroke-linejoin:miter;stroke-miterlimit:1;"/></g><path d="M42.975,404.39l24.549,-14.173" style="fill:none;stroke:#ff0076;stroke-width:3px;stroke-dasharray:0,6,0,0;stroke-dashoffset:3;"/></g><path d="M32.607,385.662c0.243,-0.14 0.636,-0.14 0.879,0c0.242,0.14 0.242,0.367 0,0.507c-0.243,0.14 -0.636,0.14 -0.879,0c-0.242,-0.14 -0.242,-0.367 0,-0.507Z" style="fill:#3d3d3d;"/><path d="M190.362,175.736l0,-156.473c0,-7.509 -6.097,-13.606 -13.607,-13.606l-142.866,0c-7.509,0 -13.606,6.097 -13.606,13.606l0,156.473" style="fill:#fff;stroke:#3d3d3d;stroke-width:8px;stroke-linejoin:miter;stroke-miterlimit:1;"/><path d="M20.283,175.736l0,156.472c0,7.51 6.097,13.606 13.606,13.606l142.866,0c7.51,0 13.607,-6.096 13.607,-13.606l0,-156.472" style="fill:#fff;stroke:#3d3d3d;stroke-width:8px;stroke-linejoin:miter;stroke-miterlimit:1;"/><g><rect x="201.7" y="284.528" width="158.74" height="22.677" style="fill:#fff688;"/><text x="209.917px" y="300.419px" style="font-family:'LucidaConsole', 'Lucida Console', monospace;font-stretch:semi-condensed;font-size:12px;fill:#3d3d3d;">.<tspan x="217.315px 224.714px 232.112px 239.51px 246.909px 254.307px 261.705px 269.103px 276.502px 283.9px 291.298px 298.697px 306.095px 313.493px 320.891px 328.29px 335.688px 343.086px " y="300.419px 300.419px 300.419px 300.419px 300.419px 300.419px 300.419px 300.419px 300.419px 300.419px 300.419px 300.419px 300.419px 300.419px 300.419px 300.419px 300.419px 300.419px ">videocall-controls</tspan></text><path d="M162.967,290.506l-4.5,-4.5l4.5,-4.5" style="fill:none;stroke:#fff688;stroke-width:3px;stroke-linecap:butt;stroke-linejoin:miter;stroke-miterlimit:10;"/><path d="M201.7,286.006l-43.233,0" style="fill:none;stroke:#fff688;stroke-width:3px;stroke-linecap:butt;stroke-linejoin:miter;stroke-miterlimit:1;"/></g><g><circle cx="105.322" cy="307.205" r="28.346" style="fill:#7882ff;"/><clipPath id="_clip2"><circle cx="105.322" cy="307.205" r="28.346"/></clipPath><g clip-path="url(#_clip2)"><path d="M113.551,314.01c1.267,1.109 0.555,6.104 0.555,6.104c0,4.903 -3.981,4.44 -8.883,4.44c-4.903,0 -8.884,-3.98 -8.884,-8.883l0,-16.901c0,-4.903 3.981,-8.884 8.884,-8.884c4.902,0 8.883,-0.759 8.883,4.144c0,0 0.712,4.532 -0.555,5.55c-1.267,1.017 -7.045,0.555 -7.045,0.555c-1.838,0 -3.33,1.492 -3.33,3.33l0,6.66c0,1.837 1.492,3.33 3.33,3.33c0,0 5.778,-0.555 7.045,0.555Z" style="fill:#fff;"/></g><circle cx="105.322" cy="307.205" r="28.346" style="fill:none;stroke:#fff;stroke-width:3px;stroke-linecap:butt;stroke-linejoin:miter;stroke-miterlimit:1;"/><circle cx="156.346" cy="307.205" r="11.339" style="fill:#7882ff;"/><circle cx="54.299" cy="307.205" r="11.339" style="fill:#7882ff;"/></g><rect x="24.627" y="43.368" width="161.728" height="228.195" style="fill:#00937b;"/><clipPath id="_clip3"><rect x="24.627" y="43.368" width="161.728" height="228.195"/></clipPath><g clip-path="url(#_clip3)"><circle cx="103.583" cy="293.126" r="71.43" style="fill:#fff;"/><circle cx="103.583" cy="181.824" r="46.611" style="fill:#fff;stroke:#00937b;stroke-width:3.92px;stroke-linecap:butt;stroke-linejoin:miter;stroke-miterlimit:1;"/></g><g><rect x="199.595" y="79.358" width="124.724" height="22.677" style="fill:#fff688;"/><text x="205.223px" y="95.249px" style="font-family:'LucidaConsole', 'Lucida Console', monospace;font-stretch:semi-condensed;font-size:12px;fill:#3d3d3d;">.<tspan x="212.621px 220.02px 227.418px 234.816px 242.214px 249.613px 257.011px 264.409px 271.808px 279.206px 286.604px 294.002px 301.401px 308.799px " y="95.249px 95.249px 95.249px 95.249px 95.249px 95.249px 95.249px 95.249px 95.249px 95.249px 95.249px 95.249px 95.249px 95.249px ">videocall-area</tspan></text><path d="M160.862,85.336l-4.5,-4.5l4.5,-4.5" style="fill:none;stroke:#fff688;stroke-width:3px;stroke-linecap:butt;stroke-linejoin:miter;stroke-miterlimit:10;"/><path d="M199.595,80.836l-43.233,0" style="fill:none;stroke:#fff688;stroke-width:3px;stroke-linecap:butt;stroke-linejoin:miter;stroke-miterlimit:1;"/></g><path d="M20.283,175.736l170.079,0" style="fill:none;stroke:#ff0076;stroke-width:10px;stroke-linejoin:miter;stroke-miterlimit:1;stroke-dasharray:0,20,0,0;stroke-dashoffset:10;"/><g transform="matrix(6.12323e-17,-1,1,6.12323e-17,-3151.15,1019.19)"><text x="744.853px" y="3159.88px" style="font-family:'ArialRoundedMTBold', 'Arial Rounded MT Bold', sans-serif;font-size:12px;fill:#3d3d3d;">c<tspan x="752.149px 759.566px 766.982px 771.329px 778.625px 786.041px 790.388px 793.457px 800.754px 807.409px 810.478px 817.133px 824.43px 831.726px 839.142px 842.212px 849.628px 857.044px 860.114px 867.41px 870.48px 874.719px 878.046px 885.037px 889.383px 892.453px 899.108px 906.404px 911.476px 918.773px 926.069px 933.485px " y="3159.88px 3159.88px 3159.88px 3159.88px 3159.88px 3159.88px 3159.88px 3159.88px 3159.88px 3159.88px 3159.88px 3159.88px 3159.88px 3159.88px 3159.88px 3159.88px 3159.88px 3159.88px 3159.88px 3159.88px 3159.88px 3159.88px 3159.88px 3159.88px 3159.88px 3159.88px 3159.88px 3159.88px 3159.88px 3159.88px 3159.88px 3159.88px ">ontent as seen on a flat screen </tspan>fo<tspan x="947.898px 953.276px 956.346px 961.418px 968.714px 972.641px 979.938px 985.01px 992.306px 999.722px 1007.02px " y="3159.88px 3159.88px 3159.88px 3159.88px 3159.88px 3159.88px 3159.88px 3159.88px 3159.88px 3159.88px 3159.88px ">r reference</tspan></text></g><g><path d="M69.596,405.587c2.063,-1.192 5.413,-1.192 7.476,0c2.063,1.191 2.063,3.125 0,4.316c-2.063,1.191 -5.413,1.191 -7.476,0c-2.063,-1.191 -2.063,-3.125 0,-4.316Z" style="fill:#7882ff;"/><clipPath id="_clip4"><path d="M69.596,405.587c2.063,-1.192 5.413,-1.192 7.476,0c2.063,1.191 2.063,3.125 0,4.316c-2.063,1.191 -5.413,1.191 -7.476,0c-2.063,-1.191 -2.063,-3.125 0,-4.316Z"/></clipPath><g clip-path="url(#_clip4)"><path d="M75.317,407.636c0.313,-0.012 0.878,0.423 0.878,0.423c0.646,0.373 0.061,0.641 -0.586,1.014c-0.647,0.374 -1.696,0.374 -2.343,0l-2.229,-1.287c-0.646,-0.373 -0.646,-0.979 0,-1.352c0.647,-0.374 1.072,-0.734 1.718,-0.361c0,0 0.692,0.291 0.659,0.465c-0.033,0.174 -0.856,0.578 -0.856,0.578c-0.242,0.14 -0.242,0.367 0,0.507l0.878,0.507c0.243,0.14 0.636,0.14 0.878,0c0,0 0.689,-0.482 1.003,-0.494Z" style="fill:#fff;"/></g><path d="M69.596,405.587c2.063,-1.192 5.413,-1.192 7.476,0c2.063,1.191 2.063,3.125 0,4.316c-2.063,1.191 -5.413,1.191 -7.476,0c-2.063,-1.191 -2.063,-3.125 0,-4.316Z" style="fill:none;stroke:#fff;stroke-width:0.56px;stroke-linecap:butt;stroke-linejoin:miter;stroke-miterlimit:1;"/><path d="M78.568,402.997c0.825,-0.477 2.165,-0.477 2.99,0c0.825,0.476 0.825,1.25 0,1.726c-0.825,0.477 -2.165,0.477 -2.99,0c-0.826,-0.476 -0.826,-1.25 0,-1.726Z" style="fill:#7882ff;"/><path d="M65.11,410.766c0.825,-0.476 2.165,-0.476 2.991,0c0.825,0.477 0.825,1.25 0,1.727c-0.826,0.476 -2.166,0.476 -2.991,0c-0.825,-0.477 -0.825,-1.25 0,-1.727Z" style="fill:#7882ff;"/></g><g transform="matrix(0.24,0,0,0.24,-1298.41,-1021.77)"><g transform="matrix(1.02321,0,0,1,-172.214,0)"><text x="7419.76px" y="5835.21px" style="font-family:'ArialRoundedMTBold', 'Arial Rounded MT Bold', sans-serif;font-size:58.333px;fill:#3d3d3d;">postur<tspan x="7603.05px 7637.72px " y="5835.21px 5835.21px ">e:</tspan> la<tspan x="7720.26px 7756.72px " y="5835.21px 5835.21px ">pt</tspan>op</text></g><g transform="matrix(1.02321,0,0,1,-172.214,0)"><text x="7419.76px" y="5897.6px" style="font-family:'ArialRoundedMTBold', 'Arial Rounded MT Bold', sans-serif;font-size:58.333px;fill:#3d3d3d;">ang<tspan x="7525.35px 7541.16px " y="5897.6px 5897.6px ">le</tspan>: 90</text></g><text x="7683.98px" y="5897.6px" style="font-family:'ArialMT', 'Arial', sans-serif;font-size:60.417px;">°</text></g><g><path d="M441.682,396.06l0,-26.079c0,-1.251 -0.762,-1.828 -1.701,-1.286l-21.147,12.21c-0.939,0.542 -1.701,1.998 -1.701,3.249l0,26.079" style="fill:#fff;"/><clipPath id="_clip5"><path d="M441.682,396.06l0,-26.079c0,-1.251 -0.762,-1.828 -1.701,-1.286l-21.147,12.21c-0.939,0.542 -1.701,1.998 -1.701,3.249l0,26.079"/></clipPath><g clip-path="url(#_clip5)"><path d="M441.682,367.713l-24.549,14.174l0,28.346l24.549,-14.173l0,-28.347Z" style="fill:#00937b;"/><clipPath id="_clip6"><path d="M441.682,367.713l-24.549,14.174l0,28.346l24.549,-14.173l0,-28.347Z"/></clipPath><g clip-path="url(#_clip6)"><path d="M429.118,394.573c5.984,-3.454 10.842,-0.649 10.842,6.26c0,6.91 -4.858,15.325 -10.842,18.78c-5.984,3.455 -10.842,0.65 -10.842,-6.26c0,-6.91 4.858,-15.325 10.842,-18.78Z" style="fill:#fff;"/><path d="M429.118,379.415c3.905,-2.254 7.075,-0.424 7.075,4.085c0,4.509 -3.17,10 -7.075,12.255c-3.905,2.254 -7.075,0.424 -7.075,-4.085c0,-4.509 3.17,-10 7.075,-12.255Z" style="fill:#fff;stroke:#00937b;stroke-width:0.49px;stroke-linecap:butt;stroke-linejoin:miter;stroke-miterlimit:1;"/></g></g><path d="M441.682,396.06l0,-26.079c0,-1.251 -0.762,-1.828 -1.701,-1.286l-21.147,12.21c-0.939,0.542 -1.701,1.998 -1.701,3.249l0,26.079" style="fill:none;stroke:#3d3d3d;stroke-width:3px;stroke-linejoin:miter;stroke-miterlimit:1;"/><path d="M417.133,410.233l22.585,13.039c1.084,0.626 2.726,0.694 3.665,0.152l21.147,-12.209c0.939,-0.542 0.821,-1.49 -0.263,-2.116l-22.585,-13.039" style="fill:#fff;stroke:#3d3d3d;stroke-width:3px;stroke-linejoin:miter;stroke-miterlimit:1;"/><path d="M417.133,410.233l24.549,-14.173" style="fill:none;stroke:#ff0076;stroke-width:3px;stroke-dasharray:0,6,0,0;"/></g><path d="M430.016,377.292c0.258,-0.149 0.467,-0.028 0.467,0.27c0,0.297 -0.209,0.659 -0.467,0.808c-0.257,0.148 -0.466,0.028 -0.466,-0.27c0,-0.297 0.209,-0.659 0.466,-0.808Z" style="fill:#3d3d3d;"/><path d="M587.212,175.736l0,-156.473c0,-7.509 -6.097,-13.606 -13.606,-13.606l-142.867,0c-7.509,0 -13.606,6.097 -13.606,13.606l0,156.473" style="fill:#fff;"/><clipPath id="_clip7"><path d="M587.212,175.736l0,-156.473c0,-7.509 -6.097,-13.606 -13.606,-13.606l-142.867,0c-7.509,0 -13.606,6.097 -13.606,13.606l0,156.473"/></clipPath><g clip-path="url(#_clip7)"><rect x="417.133" y="5.657" width="170.079" height="170.079" style="fill:#00937b;"/><clipPath id="_clip8"><rect x="417.133" y="5.657" width="170.079" height="170.079"/></clipPath><g clip-path="url(#_clip8)"><circle cx="500.166" cy="198.413" r="75.118" style="fill:#fff;"/><circle cx="500.166" cy="81.364" r="49.017" style="fill:#fff;stroke:#00937b;stroke-width:4.12px;stroke-linecap:butt;stroke-linejoin:miter;stroke-miterlimit:1;"/></g></g><path d="M587.212,175.736l0,-156.473c0,-7.509 -6.097,-13.606 -13.606,-13.606l-142.867,0c-7.509,0 -13.606,6.097 -13.606,13.606l0,156.473" style="fill:none;stroke:#3d3d3d;stroke-width:8px;stroke-linejoin:miter;stroke-miterlimit:1;"/><path d="M417.133,175.736l0,156.472c0,7.51 6.097,13.606 13.606,13.606l142.867,0c7.509,0 13.606,-6.096 13.606,-13.606l0,-156.472" style="fill:#fff;"/><clipPath id="_clip9"><path d="M417.133,175.736l0,156.472c0,7.51 6.097,13.606 13.606,13.606l142.867,0c7.509,0 13.606,-6.096 13.606,-13.606l0,-156.472"/></clipPath><g clip-path="url(#_clip9)"><rect x="417.133" y="175.736" width="170.079" height="169.726" style="fill:#fff;"/><g><circle cx="502.173" cy="260.775" r="28.346" style="fill:#7882ff;"/><clipPath id="_clip10"><circle cx="502.173" cy="260.775" r="28.346"/></clipPath><g clip-path="url(#_clip10)"><path d="M510.401,267.58c1.267,1.11 0.555,6.104 0.555,6.104c0,4.903 -3.98,4.44 -8.883,4.44c-4.903,0 -8.883,-3.98 -8.883,-8.883l0,-16.901c0,-4.903 3.98,-8.884 8.883,-8.884c4.903,0 8.883,-0.759 8.883,4.144c0,0 0.712,4.532 -0.555,5.55c-1.266,1.017 -7.044,0.555 -7.044,0.555c-1.838,0 -3.33,1.492 -3.33,3.33l0,6.66c0,1.838 1.492,3.33 3.33,3.33c0,0 5.778,-0.555 7.044,0.555Z" style="fill:#fff;"/></g><circle cx="502.173" cy="260.775" r="28.346" style="fill:none;stroke:#fff;stroke-width:3px;stroke-linecap:butt;stroke-linejoin:miter;stroke-miterlimit:1;"/><circle cx="553.196" cy="260.775" r="11.339" style="fill:#7882ff;"/><circle cx="451.149" cy="260.775" r="11.339" style="fill:#7882ff;"/></g></g><path d="M417.133,175.736l0,156.472c0,7.51 6.097,13.606 13.606,13.606l142.867,0c7.509,0 13.606,-6.096 13.606,-13.606l0,-156.472" style="fill:none;stroke:#3d3d3d;stroke-width:8px;stroke-linejoin:miter;stroke-miterlimit:1;"/><path d="M417.133,175.736l170.079,0" style="fill:none;stroke:#ff0076;stroke-width:10px;stroke-linejoin:miter;stroke-miterlimit:1;stroke-dasharray:0,20,0,0;stroke-dashoffset:10;"/><g transform="matrix(6.12323e-17,-1,1,6.12323e-17,-2754.24,1416.1)"><text x="1141.77px" y="3159.88px" style="font-family:'ArialRoundedMTBold', 'Arial Rounded MT Bold', sans-serif;font-size:12px;fill:#3d3d3d;">c<tspan x="1149.06px 1156.48px 1163.89px 1168.24px 1175.54px 1182.95px 1187.3px 1190.37px 1197.67px 1204.32px 1207.39px 1214.05px 1221.34px 1228.64px 1236.05px 1239.12px 1246.54px 1253.96px 1257.03px 1264.32px 1267.39px 1271.63px 1274.96px 1281.95px 1286.3px 1289.37px 1296.02px 1303.32px 1308.39px 1315.68px 1322.98px 1330.4px " y="3159.88px 3159.88px 3159.88px 3159.88px 3159.88px 3159.88px 3159.88px 3159.88px 3159.88px 3159.88px 3159.88px 3159.88px 3159.88px 3159.88px 3159.88px 3159.88px 3159.88px 3159.88px 3159.88px 3159.88px 3159.88px 3159.88px 3159.88px 3159.88px 3159.88px 3159.88px 3159.88px 3159.88px 3159.88px 3159.88px 3159.88px 3159.88px ">ontent as seen on a flat screen </tspan>fo<tspan x="1344.81px 1350.19px 1353.26px 1358.33px 1365.63px 1369.55px 1376.85px 1381.92px 1389.22px 1396.63px 1403.93px " y="3159.88px 3159.88px 3159.88px 3159.88px 3159.88px 3159.88px 3159.88px 3159.88px 3159.88px 3159.88px 3159.88px ">r reference</tspan></text></g><g><path d="M438.044,407.729c2.063,-1.191 5.413,-1.191 7.476,0c2.064,1.191 2.064,3.125 0,4.317c-2.063,1.191 -5.413,1.191 -7.476,0c-2.063,-1.192 -2.063,-3.126 0,-4.317Z" style="fill:#7882ff;"/><clipPath id="_clip11"><path d="M438.044,407.729c2.063,-1.191 5.413,-1.191 7.476,0c2.064,1.191 2.064,3.125 0,4.317c-2.063,1.191 -5.413,1.191 -7.476,0c-2.063,-1.192 -2.063,-3.126 0,-4.317Z"/></clipPath><g clip-path="url(#_clip11)"><path d="M443.765,409.779c0.313,-0.012 0.878,0.422 0.878,0.422c0.647,0.374 0.061,0.642 -0.586,1.015c-0.647,0.373 -1.696,0.373 -2.343,0l-2.229,-1.287c-0.646,-0.373 -0.646,-0.979 0,-1.353c0.647,-0.373 1.072,-0.734 1.718,-0.361c0,0 0.692,0.291 0.659,0.465c-0.033,0.174 -0.856,0.579 -0.856,0.579c-0.242,0.14 -0.242,0.367 0,0.507l0.878,0.507c0.243,0.14 0.636,0.14 0.879,0c0,0 0.688,-0.482 1.002,-0.494Z" style="fill:#fff;"/></g><path d="M438.044,407.729c2.063,-1.191 5.413,-1.191 7.476,0c2.064,1.191 2.064,3.125 0,4.317c-2.063,1.191 -5.413,1.191 -7.476,0c-2.063,-1.192 -2.063,-3.126 0,-4.317Z" style="fill:none;stroke:#fff;stroke-width:0.56px;stroke-linecap:butt;stroke-linejoin:miter;stroke-miterlimit:1;"/><path d="M447.016,405.139c0.825,-0.476 2.165,-0.476 2.99,0c0.825,0.477 0.825,1.25 0,1.727c-0.825,0.476 -2.165,0.476 -2.99,0c-0.826,-0.477 -0.826,-1.25 0,-1.727Z" style="fill:#7882ff;"/><path d="M433.558,412.909c0.826,-0.477 2.166,-0.477 2.991,0c0.825,0.476 0.825,1.25 0,1.726c-0.825,0.477 -2.165,0.477 -2.991,0c-0.825,-0.476 -0.825,-1.25 0,-1.726Z" style="fill:#7882ff;"/></g><circle cx="105.322" cy="17.14" r="3.299" style="fill:#3d3d3d;"/><circle cx="502.173" cy="17.14" r="3.299" style="fill:#3d3d3d;"/></svg>