<?xml version="1.0" encoding="UTF-8" standalone="no"?><!DOCTYPE svg PUBLIC "-//W3C//DTD SVG 1.1//EN" "http://www.w3.org/Graphics/SVG/1.1/DTD/svg11.dtd"><svg width="100%" height="100%" viewBox="0 0 361 114" version="1.1" xmlns="http://www.w3.org/2000/svg" xmlns:xlink="http://www.w3.org/1999/xlink" xml:space="preserve" xmlns:serif="http://www.serif.com/" style="fill-rule:evenodd;clip-rule:evenodd;stroke-linecap:round;stroke-linejoin:round;stroke-miterlimit:1.5;"><g><g><g><g id="flatFold"><path d="M49.974,47.807l-22.584,13.039c-1.084,0.626 -0.948,1.721 0.303,2.443l44.563,25.728c1.251,0.723 3.147,0.801 4.231,0.175l22.585,-13.039" style="fill:#fff;stroke:#3d3d3d;stroke-width:3px;stroke-dasharray:0,0.15,0,0;"/><path d="M99.072,76.153l22.585,-13.039c1.084,-0.626 0.948,-1.721 -0.304,-2.443l-44.562,-25.728c-1.252,-0.723 -3.148,-0.802 -4.232,-0.176l-22.585,13.04" style="fill:#fff;stroke:#3d3d3d;stroke-width:3px;stroke-dasharray:0,0.15,0,0;"/><path d="M79.672,39.35l-43.943,25.371l17.628,10.178l43.943,-25.371l-17.628,-10.178Z" style="fill:#00ffd6;fill-opacity:0.3;"/><path d="M57.848,74.889c0.928,-0.536 2.436,-0.536 3.364,0c0.928,0.536 0.928,1.406 0,1.942c-0.928,0.535 -2.436,0.535 -3.364,0c-0.928,-0.536 -0.928,-1.406 0,-1.942Z" style="fill:#00937b;fill-opacity:0.3;"/><path d="M74.771,66.375l-10.684,6.168l1.188,0.686l10.683,-6.169l-1.187,-0.685Z" style="fill:#00937b;fill-opacity:0.3;"/><path d="M76.814,67.554l-10.684,6.169l1.188,0.685l10.683,-6.168l-1.187,-0.686Z" style="fill:#00937b;fill-opacity:0.3;"/><path d="M79.52,69.116l-10.684,6.169l1.187,0.685l10.684,-6.168l-1.187,-0.686Z" style="fill:#00937b;fill-opacity:0.3;"/><path d="M81.563,70.296l-10.684,6.168l1.187,0.686l10.684,-6.169l-1.187,-0.685Z" style="fill:#00937b;fill-opacity:0.3;"/><path d="M57.152,58.464l8.024,-4.632l1.944,1.122l1.681,-2.791l6.308,3.641l-4.835,0.971l1.944,1.122l-8.024,4.633l-7.042,-4.066Z" style="fill:#00937b;fill-opacity:0.3;"/><path d="M80.977,62.023c0.942,-0.544 2.471,-0.544 3.413,0c0.942,0.543 0.942,1.426 0,1.97c-0.942,0.544 -2.471,0.544 -3.413,0c-0.942,-0.544 -0.942,-1.427 0,-1.97Z" style="fill:#7882ff;fill-opacity:0.3;"/><path d="M85.268,64.5c0.942,-0.544 2.471,-0.544 3.413,0c0.942,0.544 0.942,1.427 0,1.971c-0.942,0.544 -2.471,0.544 -3.413,0c-0.942,-0.544 -0.942,-1.427 0,-1.971Z" style="fill:#7882ff;fill-opacity:0.3;"/><path d="M89.559,66.978c0.942,-0.544 2.471,-0.544 3.413,0c0.942,0.543 0.942,1.426 0,1.97c-0.942,0.544 -2.471,0.544 -3.413,0c-0.942,-0.544 -0.942,-1.427 0,-1.97Z" style="fill:#7882ff;fill-opacity:0.3;"/><path d="M98.72,50.348l-16.46,9.504l19.153,11.058l16.461,-9.504l-19.154,-11.058Z" style="fill:#7882ff;fill-opacity:0.3;"/><path d="M98.926,51.417l-14.815,8.553l1.029,0.594l14.814,-8.553l-1.028,-0.594Z" style="fill:#fff;fill-opacity:0.3;"/><path d="M96.868,54.981l-10.7,6.177l1.029,0.594l10.699,-6.178l-1.028,-0.593Z" style="fill:#fff;fill-opacity:0.3;"/><path d="M103.04,53.792l-14.815,8.553l1.029,0.594l14.814,-8.553l-1.028,-0.594Z" style="fill:#fff;fill-opacity:0.3;"/><path d="M105.228,59.807l-10.699,6.178l1.028,0.594l10.7,-6.178l-1.029,-0.594Z" style="fill:#fff;fill-opacity:0.3;"/><path d="M107.286,56.244l-14.814,8.553l1.028,0.594l14.815,-8.553l-1.029,-0.594Z" style="fill:#fff;fill-opacity:0.3;"/><path d="M109.257,62.133l-10.699,6.178l1.028,0.594l10.699,-6.178l-1.028,-0.594Z" style="fill:#fff;fill-opacity:0.3;"/><path d="M111.315,58.57l-14.814,8.553l1.028,0.594l14.815,-8.553l-1.029,-0.594Z" style="fill:#fff;fill-opacity:0.3;"/><path d="M100.982,57.356l-10.7,6.177l1.029,0.594l10.699,-6.178l-1.028,-0.593Z" style="fill:#fff;fill-opacity:0.3;"/><path d="M76.17,38.285c-0.291,-0.168 -0.734,-0.186 -0.986,-0.04l-42.415,24.488c-0.253,0.146 -0.221,0.401 0.071,0.569l1.057,0.611c0.292,0.168 0.734,0.187 0.987,0.041l42.415,-24.488c0.252,-0.146 0.22,-0.402 -0.071,-0.57l-1.058,-0.611Z" style="fill:#3d3d3d;fill-opacity:0.3;"/><path d="M92.376,72.287l-37.342,-21.559" style="fill:none;stroke:#ff0076;stroke-width:2px;stroke-dasharray:0,4,0,0;stroke-dashoffset:2;"/><g transform="matrix(0.866025,-0.5,1,0.57735,-69.6574,27.5006)"><text x="24.133px" y="83.118px" style="font-family:'ArialMT', 'Arial', sans-serif;font-size:1.269px;fill:#fff;fill-opacity:0.3;">h<tspan x="24.948px 25.355px 25.762px 26.576px 27.309px 27.716px " y="83.118px 83.118px 83.118px 83.118px 83.118px 83.118px ">ttps:/</tspan>/</text></g><path d="M72.346,37.2c0.373,-0.216 0.98,-0.216 1.353,0c0.373,0.216 0.373,0.566 0,0.781c-0.373,0.216 -0.98,0.216 -1.353,0c-0.373,-0.215 -0.373,-0.565 0,-0.781Z" style="fill:#3d3d3d;fill-opacity:0.3;"/></g><path d="M17.635,48.263l-1.647,6.147l6.147,1.647" style="fill:none;stroke:#00937b;stroke-width:3px;stroke-linejoin:miter;stroke-miterlimit:10;"/><path d="M55.264,26.537l6.147,1.648l-1.647,6.147" style="fill:none;stroke:#00937b;stroke-width:3px;stroke-linejoin:miter;stroke-miterlimit:10;"/><path d="M15.988,54.41c7.744,-4.471 37.68,-21.755 45.423,-26.225" style="fill:none;stroke:#00937b;stroke-width:3px;stroke-linejoin:miter;stroke-miterlimit:1;"/><path d="M38.209,36.036l0,-6.221c-1.112,0.889 -1.861,1.333 -2.247,1.333c-0.184,0 -0.347,-0.076 -0.489,-0.229c-0.142,-0.152 -0.213,-0.329 -0.213,-0.529c0,-0.233 0.07,-0.404 0.21,-0.513c0.14,-0.11 0.387,-0.251 0.742,-0.424c0.53,-0.26 0.954,-0.533 1.271,-0.82c0.318,-0.287 0.599,-0.609 0.844,-0.964c0.245,-0.356 0.405,-0.574 0.48,-0.656c0.074,-0.082 0.214,-0.123 0.42,-0.123c0.232,0 0.418,0.093 0.558,0.28c0.14,0.187 0.211,0.444 0.211,0.772l0,7.827c0,0.916 -0.3,1.374 -0.9,1.374c-0.267,0 -0.482,-0.093 -0.644,-0.28c-0.162,-0.187 -0.243,-0.462 -0.243,-0.827Z" style="fill:#3d3d3d;fill-rule:nonzero;"/></g></g><g><path d="M30.469,108.58c0,0.515 -0.135,0.956 -0.406,1.323c-0.27,0.367 -0.67,0.645 -1.199,0.834c-0.529,0.189 -1.173,0.284 -1.931,0.284c-0.723,0 -1.343,-0.103 -1.86,-0.308c-0.517,-0.205 -0.898,-0.462 -1.144,-0.769c-0.246,-0.308 -0.369,-0.616 -0.369,-0.926c0,-0.205 0.079,-0.381 0.236,-0.527c0.158,-0.146 0.357,-0.219 0.598,-0.219c0.212,0 0.374,0.048 0.487,0.144c0.113,0.096 0.222,0.23 0.325,0.403c0.207,0.333 0.454,0.581 0.742,0.745c0.288,0.165 0.68,0.247 1.177,0.247c0.404,0 0.735,-0.084 0.993,-0.25c0.259,-0.166 0.388,-0.357 0.388,-0.571c0,-0.328 -0.134,-0.567 -0.402,-0.718c-0.269,-0.15 -0.71,-0.293 -1.326,-0.43c-0.693,-0.16 -1.258,-0.327 -1.694,-0.503c-0.435,-0.175 -0.784,-0.406 -1.044,-0.693c-0.261,-0.288 -0.392,-0.641 -0.392,-1.06c0,-0.374 0.121,-0.727 0.362,-1.06c0.241,-0.332 0.597,-0.598 1.067,-0.796c0.47,-0.198 1.037,-0.297 1.701,-0.297c0.522,0 0.991,0.05 1.407,0.15c0.416,0.1 0.763,0.235 1.041,0.403c0.278,0.169 0.489,0.356 0.634,0.561c0.146,0.205 0.218,0.406 0.218,0.601c0,0.215 -0.077,0.39 -0.232,0.527c-0.155,0.137 -0.376,0.205 -0.661,0.205c-0.207,0 -0.383,-0.055 -0.528,-0.164c-0.145,-0.11 -0.311,-0.274 -0.498,-0.492c-0.153,-0.183 -0.332,-0.328 -0.539,-0.438c-0.207,-0.109 -0.487,-0.164 -0.842,-0.164c-0.364,0 -0.666,0.072 -0.908,0.215c-0.241,0.144 -0.361,0.323 -0.361,0.537c0,0.196 0.088,0.357 0.265,0.482c0.178,0.125 0.416,0.229 0.717,0.311c0.3,0.082 0.713,0.182 1.24,0.301c0.625,0.141 1.135,0.31 1.532,0.506c0.396,0.196 0.696,0.427 0.9,0.694c0.204,0.266 0.306,0.57 0.306,0.912Z" style="fill:#3d3d3d;fill-rule:nonzero;"/><path d="M34.19,104.492l0,5.394c0,0.373 -0.096,0.656 -0.288,0.847c-0.192,0.192 -0.435,0.288 -0.731,0.288c-0.295,0 -0.535,-0.098 -0.719,-0.294c-0.185,-0.196 -0.277,-0.477 -0.277,-0.841l0,-5.339c0,-0.369 0.092,-0.647 0.277,-0.834c0.184,-0.187 0.424,-0.28 0.719,-0.28c0.296,0 0.539,0.093 0.731,0.28c0.192,0.187 0.288,0.447 0.288,0.779Zm-0.996,-1.928c-0.281,0 -0.521,-0.079 -0.72,-0.239c-0.2,-0.159 -0.299,-0.385 -0.299,-0.677c0,-0.264 0.102,-0.481 0.306,-0.652c0.204,-0.171 0.442,-0.257 0.713,-0.257c0.26,0 0.492,0.078 0.693,0.233c0.202,0.155 0.303,0.38 0.303,0.676c0,0.288 -0.098,0.512 -0.295,0.674c-0.197,0.162 -0.431,0.242 -0.701,0.242Z" style="fill:#3d3d3d;fill-rule:nonzero;"/><path d="M38.103,104.465l0,0.225c0.354,-0.432 0.742,-0.75 1.162,-0.953c0.421,-0.203 0.905,-0.304 1.451,-0.304c0.531,0 1.006,0.107 1.425,0.321c0.418,0.214 0.73,0.517 0.937,0.909c0.133,0.228 0.219,0.474 0.259,0.738c0.039,0.265 0.059,0.602 0.059,1.012l0,3.473c0,0.373 -0.093,0.656 -0.277,0.847c-0.185,0.192 -0.425,0.288 -0.72,0.288c-0.3,0 -0.544,-0.098 -0.731,-0.294c-0.187,-0.196 -0.28,-0.477 -0.28,-0.841l0,-3.111c0,-0.615 -0.093,-1.085 -0.277,-1.411c-0.185,-0.326 -0.553,-0.489 -1.104,-0.489c-0.359,0 -0.686,0.099 -0.982,0.297c-0.295,0.199 -0.511,0.471 -0.649,0.817c-0.099,0.278 -0.148,0.798 -0.148,1.559l0,2.338c0,0.378 -0.095,0.662 -0.284,0.851c-0.19,0.189 -0.434,0.284 -0.735,0.284c-0.29,0 -0.529,-0.098 -0.716,-0.294c-0.187,-0.196 -0.28,-0.477 -0.28,-0.841l0,-5.394c0,-0.355 0.083,-0.621 0.251,-0.796c0.167,-0.176 0.396,-0.263 0.686,-0.263c0.178,0 0.337,0.038 0.48,0.116c0.143,0.077 0.257,0.194 0.343,0.348c0.087,0.155 0.13,0.345 0.13,0.568Z" style="fill:#3d3d3d;fill-rule:nonzero;"/><path d="M52.815,104.8l0,5.421c0,0.62 -0.071,1.153 -0.214,1.599c-0.143,0.447 -0.371,0.816 -0.686,1.108c-0.315,0.291 -0.728,0.508 -1.237,0.649c-0.509,0.141 -1.143,0.212 -1.901,0.212c-0.694,0 -1.314,-0.09 -1.86,-0.27c-0.546,-0.18 -0.967,-0.412 -1.262,-0.697c-0.296,-0.285 -0.443,-0.578 -0.443,-0.879c0,-0.227 0.083,-0.413 0.251,-0.557c0.167,-0.143 0.369,-0.215 0.605,-0.215c0.295,0 0.554,0.121 0.775,0.362c0.108,0.123 0.22,0.247 0.336,0.373c0.116,0.125 0.244,0.232 0.384,0.321c0.14,0.089 0.309,0.155 0.506,0.198c0.196,0.044 0.423,0.065 0.679,0.065c0.521,0 0.926,-0.067 1.214,-0.201c0.288,-0.135 0.49,-0.323 0.605,-0.564c0.116,-0.242 0.184,-0.501 0.203,-0.776c0.02,-0.276 0.035,-0.719 0.045,-1.33c-0.31,0.401 -0.668,0.707 -1.074,0.916c-0.406,0.21 -0.89,0.315 -1.451,0.315c-0.674,0 -1.264,-0.16 -1.768,-0.479c-0.504,-0.319 -0.892,-0.765 -1.163,-1.34c-0.27,-0.574 -0.406,-1.237 -0.406,-1.989c0,-0.561 0.083,-1.066 0.248,-1.518c0.164,-0.451 0.399,-0.831 0.705,-1.141c0.305,-0.31 0.657,-0.544 1.055,-0.701c0.399,-0.157 0.837,-0.236 1.314,-0.236c0.571,0 1.066,0.102 1.484,0.305c0.418,0.202 0.807,0.52 1.166,0.953l0,-0.253c0,-0.323 0.087,-0.574 0.259,-0.752c0.172,-0.177 0.393,-0.266 0.664,-0.266c0.389,0 0.647,0.117 0.775,0.352c0.128,0.234 0.192,0.573 0.192,1.015Zm-5.839,2.365c0,0.757 0.178,1.329 0.535,1.716c0.357,0.387 0.818,0.581 1.384,0.581c0.335,0 0.651,-0.083 0.949,-0.25c0.298,-0.166 0.54,-0.417 0.727,-0.752c0.187,-0.334 0.281,-0.741 0.281,-1.22c0,-0.761 -0.181,-1.353 -0.543,-1.777c-0.362,-0.424 -0.838,-0.636 -1.428,-0.636c-0.576,0 -1.038,0.203 -1.385,0.609c-0.347,0.405 -0.52,0.982 -0.52,1.729Z" style="fill:#3d3d3d;fill-rule:nonzero;"/><path d="M54.653,109.886l0,-8.094c0,-0.374 0.09,-0.656 0.27,-0.848c0.179,-0.191 0.422,-0.287 0.727,-0.287c0.305,0 0.551,0.095 0.738,0.284c0.187,0.189 0.281,0.473 0.281,0.851l0,8.094c0,0.378 -0.095,0.662 -0.285,0.851c-0.189,0.189 -0.434,0.284 -0.734,0.284c-0.295,0 -0.535,-0.098 -0.72,-0.294c-0.184,-0.196 -0.277,-0.477 -0.277,-0.841Z" style="fill:#3d3d3d;fill-rule:nonzero;"/><path d="M64.376,107.685l-3.942,0c0.005,0.423 0.097,0.797 0.276,1.121c0.18,0.323 0.419,0.567 0.716,0.731c0.298,0.164 0.627,0.246 0.986,0.246c0.241,0 0.461,-0.026 0.661,-0.078c0.199,-0.053 0.392,-0.135 0.579,-0.246c0.187,-0.112 0.359,-0.232 0.517,-0.359c0.157,-0.128 0.362,-0.301 0.613,-0.52c0.103,-0.082 0.251,-0.123 0.443,-0.123c0.206,0 0.374,0.052 0.502,0.157c0.128,0.105 0.192,0.253 0.192,0.445c0,0.168 -0.072,0.365 -0.215,0.591c-0.142,0.226 -0.358,0.442 -0.645,0.649c-0.288,0.208 -0.65,0.38 -1.086,0.516c-0.435,0.137 -0.936,0.206 -1.502,0.206c-1.294,0 -2.301,-0.342 -3.019,-1.026c-0.719,-0.683 -1.078,-1.611 -1.078,-2.782c0,-0.552 0.089,-1.063 0.266,-1.535c0.177,-0.471 0.435,-0.876 0.775,-1.213c0.339,-0.337 0.758,-0.596 1.255,-0.776c0.497,-0.18 1.048,-0.27 1.653,-0.27c0.788,0 1.463,0.154 2.027,0.461c0.563,0.308 0.985,0.706 1.266,1.193c0.28,0.488 0.421,0.985 0.421,1.491c0,0.469 -0.146,0.773 -0.436,0.912c-0.29,0.139 -0.699,0.209 -1.225,0.209Zm-3.942,-1.06l3.654,0c-0.049,-0.638 -0.235,-1.115 -0.558,-1.432c-0.322,-0.317 -0.746,-0.475 -1.273,-0.475c-0.502,0 -0.914,0.16 -1.237,0.482c-0.322,0.321 -0.518,0.796 -0.586,1.425Z" style="fill:#3d3d3d;fill-rule:nonzero;"/><path d="M78.003,108.58c0,0.515 -0.135,0.956 -0.406,1.323c-0.271,0.367 -0.67,0.645 -1.2,0.834c-0.529,0.189 -1.172,0.284 -1.93,0.284c-0.723,0 -1.344,-0.103 -1.86,-0.308c-0.517,-0.205 -0.898,-0.462 -1.144,-0.769c-0.247,-0.308 -0.37,-0.616 -0.37,-0.926c0,-0.205 0.079,-0.381 0.237,-0.527c0.157,-0.146 0.356,-0.219 0.598,-0.219c0.211,0 0.374,0.048 0.487,0.144c0.113,0.096 0.221,0.23 0.325,0.403c0.206,0.333 0.454,0.581 0.742,0.745c0.287,0.165 0.68,0.247 1.177,0.247c0.404,0 0.735,-0.084 0.993,-0.25c0.258,-0.166 0.387,-0.357 0.387,-0.571c0,-0.328 -0.134,-0.567 -0.402,-0.718c-0.268,-0.15 -0.71,-0.293 -1.325,-0.43c-0.694,-0.16 -1.259,-0.327 -1.694,-0.503c-0.436,-0.175 -0.784,-0.406 -1.045,-0.693c-0.261,-0.288 -0.391,-0.641 -0.391,-1.06c0,-0.374 0.121,-0.727 0.362,-1.06c0.241,-0.332 0.596,-0.598 1.066,-0.796c0.47,-0.198 1.038,-0.297 1.702,-0.297c0.522,0 0.99,0.05 1.406,0.15c0.416,0.1 0.763,0.235 1.041,0.403c0.278,0.169 0.49,0.356 0.635,0.561c0.145,0.205 0.218,0.406 0.218,0.601c0,0.215 -0.078,0.39 -0.233,0.527c-0.155,0.137 -0.375,0.205 -0.66,0.205c-0.207,0 -0.383,-0.055 -0.528,-0.164c-0.145,-0.11 -0.312,-0.274 -0.499,-0.492c-0.152,-0.183 -0.332,-0.328 -0.538,-0.438c-0.207,-0.109 -0.488,-0.164 -0.842,-0.164c-0.364,0 -0.667,0.072 -0.908,0.215c-0.241,0.144 -0.362,0.323 -0.362,0.537c0,0.196 0.089,0.357 0.266,0.482c0.177,0.125 0.416,0.229 0.716,0.311c0.3,0.082 0.714,0.182 1.24,0.301c0.625,0.141 1.136,0.31 1.532,0.506c0.396,0.196 0.696,0.427 0.901,0.694c0.204,0.266 0.306,0.57 0.306,0.912Z" style="fill:#3d3d3d;fill-rule:nonzero;"/><path d="M86.935,108.71c0,0.232 -0.075,0.481 -0.225,0.745c-0.15,0.264 -0.379,0.516 -0.686,0.755c-0.308,0.24 -0.695,0.432 -1.163,0.578c-0.467,0.146 -0.994,0.219 -1.58,0.219c-1.245,0 -2.217,-0.336 -2.916,-1.008c-0.698,-0.673 -1.048,-1.574 -1.048,-2.704c0,-0.766 0.16,-1.442 0.48,-2.03c0.32,-0.588 0.782,-1.043 1.388,-1.364c0.605,-0.321 1.329,-0.482 2.17,-0.482c0.522,0 1,0.071 1.436,0.212c0.436,0.141 0.805,0.323 1.107,0.547c0.303,0.223 0.534,0.461 0.694,0.714c0.16,0.253 0.24,0.489 0.24,0.708c0,0.223 -0.09,0.412 -0.269,0.567c-0.18,0.155 -0.398,0.232 -0.654,0.232c-0.167,0 -0.306,-0.039 -0.417,-0.119c-0.11,-0.08 -0.235,-0.209 -0.373,-0.386c-0.246,-0.347 -0.503,-0.607 -0.771,-0.78c-0.268,-0.173 -0.609,-0.259 -1.022,-0.259c-0.596,0 -1.076,0.215 -1.44,0.646c-0.364,0.43 -0.546,1.019 -0.546,1.767c0,0.351 0.047,0.673 0.14,0.967c0.094,0.294 0.229,0.544 0.406,0.752c0.177,0.207 0.391,0.364 0.642,0.472c0.251,0.107 0.527,0.16 0.827,0.16c0.404,0 0.749,-0.086 1.037,-0.26c0.288,-0.173 0.543,-0.437 0.764,-0.793c0.123,-0.209 0.256,-0.373 0.399,-0.492c0.143,-0.118 0.317,-0.177 0.524,-0.177c0.246,0 0.45,0.086 0.613,0.259c0.162,0.173 0.243,0.358 0.243,0.554Z" style="fill:#3d3d3d;fill-rule:nonzero;"/><path d="M90.693,108.327l0,1.559c0,0.378 -0.096,0.662 -0.288,0.851c-0.192,0.189 -0.435,0.284 -0.731,0.284c-0.29,0 -0.529,-0.096 -0.716,-0.288c-0.187,-0.191 -0.28,-0.474 -0.28,-0.847l0,-5.196c0,-0.838 0.327,-1.257 0.981,-1.257c0.335,0 0.576,0.098 0.724,0.294c0.148,0.196 0.229,0.485 0.244,0.868c0.241,-0.383 0.488,-0.672 0.741,-0.868c0.254,-0.196 0.592,-0.294 1.015,-0.294c0.424,0 0.835,0.098 1.233,0.294c0.399,0.196 0.598,0.455 0.598,0.779c0,0.228 -0.085,0.416 -0.254,0.564c-0.17,0.148 -0.354,0.222 -0.55,0.222c-0.074,0 -0.253,-0.042 -0.536,-0.126c-0.283,-0.085 -0.532,-0.127 -0.749,-0.127c-0.295,0 -0.536,0.072 -0.723,0.215c-0.187,0.144 -0.333,0.357 -0.436,0.64c-0.103,0.282 -0.175,0.618 -0.214,1.008c-0.039,0.39 -0.059,0.865 -0.059,1.425Z" style="fill:#3d3d3d;fill-rule:nonzero;"/><path d="M100.563,107.685l-3.942,0c0.005,0.423 0.097,0.797 0.277,1.121c0.179,0.323 0.418,0.567 0.716,0.731c0.297,0.164 0.626,0.246 0.985,0.246c0.241,0 0.462,-0.026 0.661,-0.078c0.199,-0.053 0.392,-0.135 0.579,-0.246c0.187,-0.112 0.36,-0.232 0.517,-0.359c0.158,-0.128 0.362,-0.301 0.613,-0.52c0.103,-0.082 0.251,-0.123 0.443,-0.123c0.207,0 0.374,0.052 0.502,0.157c0.128,0.105 0.192,0.253 0.192,0.445c0,0.168 -0.072,0.365 -0.214,0.591c-0.143,0.226 -0.358,0.442 -0.646,0.649c-0.288,0.208 -0.65,0.38 -1.085,0.516c-0.436,0.137 -0.937,0.206 -1.503,0.206c-1.294,0 -2.3,-0.342 -3.019,-1.026c-0.719,-0.683 -1.078,-1.611 -1.078,-2.782c0,-0.552 0.089,-1.063 0.266,-1.535c0.177,-0.471 0.436,-0.876 0.775,-1.213c0.34,-0.337 0.758,-0.596 1.255,-0.776c0.497,-0.18 1.048,-0.27 1.654,-0.27c0.787,0 1.463,0.154 2.026,0.461c0.564,0.308 0.986,0.706 1.266,1.193c0.281,0.488 0.421,0.985 0.421,1.491c0,0.469 -0.145,0.773 -0.436,0.912c-0.29,0.139 -0.699,0.209 -1.225,0.209Zm-3.942,-1.06l3.654,0c-0.049,-0.638 -0.235,-1.115 -0.557,-1.432c-0.323,-0.317 -0.747,-0.475 -1.274,-0.475c-0.502,0 -0.914,0.16 -1.236,0.482c-0.323,0.321 -0.518,0.796 -0.587,1.425Z" style="fill:#3d3d3d;fill-rule:nonzero;"/><path d="M109.547,107.685l-3.942,0c0.005,0.423 0.097,0.797 0.277,1.121c0.179,0.323 0.418,0.567 0.716,0.731c0.298,0.164 0.626,0.246 0.985,0.246c0.241,0 0.462,-0.026 0.661,-0.078c0.199,-0.053 0.392,-0.135 0.58,-0.246c0.187,-0.112 0.359,-0.232 0.516,-0.359c0.158,-0.128 0.362,-0.301 0.613,-0.52c0.103,-0.082 0.251,-0.123 0.443,-0.123c0.207,0 0.374,0.052 0.502,0.157c0.128,0.105 0.192,0.253 0.192,0.445c0,0.168 -0.072,0.365 -0.214,0.591c-0.143,0.226 -0.358,0.442 -0.646,0.649c-0.288,0.208 -0.65,0.38 -1.085,0.516c-0.436,0.137 -0.937,0.206 -1.503,0.206c-1.294,0 -2.3,-0.342 -3.019,-1.026c-0.718,-0.683 -1.078,-1.611 -1.078,-2.782c0,-0.552 0.089,-1.063 0.266,-1.535c0.177,-0.471 0.436,-0.876 0.775,-1.213c0.34,-0.337 0.758,-0.596 1.255,-0.776c0.497,-0.18 1.048,-0.27 1.654,-0.27c0.787,0 1.463,0.154 2.026,0.461c0.564,0.308 0.986,0.706 1.266,1.193c0.281,0.488 0.421,0.985 0.421,1.491c0,0.469 -0.145,0.773 -0.436,0.912c-0.29,0.139 -0.698,0.209 -1.225,0.209Zm-3.942,-1.06l3.654,0c-0.049,-0.638 -0.235,-1.115 -0.557,-1.432c-0.323,-0.317 -0.747,-0.475 -1.274,-0.475c-0.502,0 -0.914,0.16 -1.236,0.482c-0.323,0.321 -0.518,0.796 -0.587,1.425Z" style="fill:#3d3d3d;fill-rule:nonzero;"/><path d="M114.737,104.465l0,0.225c0.354,-0.432 0.742,-0.75 1.162,-0.953c0.421,-0.203 0.905,-0.304 1.451,-0.304c0.531,0 1.006,0.107 1.425,0.321c0.418,0.214 0.73,0.517 0.937,0.909c0.133,0.228 0.219,0.474 0.259,0.738c0.039,0.265 0.059,0.602 0.059,1.012l0,3.473c0,0.373 -0.093,0.656 -0.277,0.847c-0.185,0.192 -0.425,0.288 -0.72,0.288c-0.3,0 -0.544,-0.098 -0.731,-0.294c-0.187,-0.196 -0.28,-0.477 -0.28,-0.841l0,-3.111c0,-0.615 -0.093,-1.085 -0.277,-1.411c-0.185,-0.326 -0.553,-0.489 -1.104,-0.489c-0.359,0 -0.686,0.099 -0.982,0.297c-0.295,0.199 -0.511,0.471 -0.649,0.817c-0.099,0.278 -0.148,0.798 -0.148,1.559l0,2.338c0,0.378 -0.095,0.662 -0.284,0.851c-0.19,0.189 -0.434,0.284 -0.735,0.284c-0.29,0 -0.529,-0.098 -0.716,-0.294c-0.187,-0.196 -0.28,-0.477 -0.28,-0.841l0,-5.394c0,-0.355 0.083,-0.621 0.251,-0.796c0.167,-0.176 0.396,-0.263 0.686,-0.263c0.177,0 0.337,0.038 0.48,0.116c0.143,0.077 0.257,0.194 0.343,0.348c0.087,0.155 0.13,0.345 0.13,0.568Z" style="fill:#3d3d3d;fill-rule:nonzero;"/></g></g><g><g><g id="flatFold1" serif:id="flatFold"><path d="M286.126,35.189l-22.585,13.039c-1.084,0.626 -0.948,1.721 0.304,2.443l44.562,25.728c1.251,0.723 3.148,0.802 4.232,0.176l22.584,-13.04" style="fill:#fff;stroke:#3d3d3d;stroke-width:3px;stroke-dasharray:0,0.15,0,0;"/><path d="M335.223,63.535l22.585,-13.039c1.084,-0.626 0.948,-1.721 -0.304,-2.443l-44.562,-25.728c-1.251,-0.723 -3.147,-0.801 -4.231,-0.175l-22.585,13.039" style="fill:#fff;stroke:#3d3d3d;stroke-width:3px;stroke-dasharray:0,0.15,0,0;"/><path d="M291.118,40.996l-19.238,11.107l17.628,10.178l19.238,-11.107l-17.628,-10.178Z" style="fill:#00ffd6;fill-opacity:0.3;"/><path d="M294,62.271c0.928,-0.536 2.435,-0.536 3.363,0c0.928,0.536 0.928,1.406 0,1.942c-0.928,0.536 -2.435,0.536 -3.363,0c-0.928,-0.536 -0.928,-1.406 0,-1.942Z" style="fill:#00937b;fill-opacity:0.3;"/><path d="M310.923,53.757l-10.684,6.168l1.187,0.686l10.684,-6.169l-1.187,-0.685Z" style="fill:#00937b;fill-opacity:0.3;"/><path d="M312.966,54.937l-10.684,6.168l1.187,0.685l10.684,-6.168l-1.187,-0.685Z" style="fill:#00937b;fill-opacity:0.3;"/><path d="M315.671,56.499l-10.684,6.168l1.187,0.685l10.684,-6.168l-1.187,-0.685Z" style="fill:#00937b;fill-opacity:0.3;"/><path d="M317.714,57.678l-10.684,6.169l1.187,0.685l10.684,-6.168l-1.187,-0.686Z" style="fill:#00937b;fill-opacity:0.3;"/><path d="M285.869,52.234l3.721,-2.148l1.065,0.615l0.647,-1.371l3.455,1.995l-2.375,0.373l1.065,0.615l-3.721,2.148l-3.857,-2.227Z" style="fill:#00937b;fill-opacity:0.3;"/><path d="M317.173,48.554c0.942,-0.544 2.472,-0.544 3.414,0c0.942,0.544 0.942,1.427 0,1.97c-0.942,0.544 -2.472,0.544 -3.414,0c-0.942,-0.543 -0.942,-1.426 0,-1.97Z" style="fill:#7882ff;fill-opacity:0.3;"/><path d="M321.464,51.031c0.942,-0.544 2.472,-0.544 3.414,0c0.942,0.544 0.942,1.427 0,1.971c-0.942,0.544 -2.472,0.544 -3.414,0c-0.942,-0.544 -0.942,-1.427 0,-1.971Z" style="fill:#7882ff;fill-opacity:0.3;"/><path d="M325.755,53.509c0.942,-0.544 2.472,-0.544 3.414,0c0.942,0.543 0.942,1.427 0,1.97c-0.942,0.544 -2.472,0.544 -3.414,0c-0.942,-0.543 -0.942,-1.427 0,-1.97Z" style="fill:#7882ff;fill-opacity:0.3;"/><path d="M315.503,27.422l-14.386,8.305l37.766,21.804l14.385,-8.305l-37.765,-21.804Z" style="fill:#7882ff;fill-opacity:0.3;"/><path d="M335.143,38.761l-13.628,7.869l1.028,0.593l13.629,-7.868l-1.029,-0.594Z" style="fill:#fff;fill-opacity:0.3;"/><path d="M333.414,42.135l-9.842,5.682l1.028,0.594l9.843,-5.683l-1.029,-0.593Z" style="fill:#fff;fill-opacity:0.3;"/><path d="M339.257,41.137l-13.628,7.868l1.028,0.594l13.629,-7.869l-1.029,-0.593Z" style="fill:#fff;fill-opacity:0.3;"/><path d="M341.775,46.961l-9.843,5.683l1.029,0.594l9.842,-5.683l-1.028,-0.594Z" style="fill:#fff;fill-opacity:0.3;"/><path d="M343.504,43.588l-13.629,7.869l1.029,0.593l13.628,-7.868l-1.028,-0.594Z" style="fill:#fff;fill-opacity:0.3;"/><path d="M345.804,49.288l-9.843,5.682l1.029,0.594l9.842,-5.683l-1.028,-0.593Z" style="fill:#fff;fill-opacity:0.3;"/><path d="M347.532,45.914l-13.628,7.869l1.029,0.593l13.628,-7.868l-1.029,-0.594Z" style="fill:#fff;fill-opacity:0.3;"/><path d="M337.528,44.51l-9.842,5.682l1.028,0.594l9.843,-5.682l-1.029,-0.594Z" style="fill:#fff;fill-opacity:0.3;"/><path d="M312.322,25.668c-0.292,-0.169 -0.734,-0.187 -0.987,-0.041l-42.415,24.488c-0.252,0.146 -0.221,0.401 0.071,0.57l1.058,0.61c0.291,0.169 0.733,0.187 0.986,0.041l42.415,-24.488c0.253,-0.146 0.221,-0.401 -0.071,-0.57l-1.057,-0.61Z" style="fill:#3d3d3d;fill-opacity:0.3;"/><path d="M335.223,63.535l-49.097,-28.346" style="fill:none;stroke:#3d3d3d;stroke-width:3px;"/><g transform="matrix(0.866025,-0.5,1,0.57735,-25.4015,140.243)"><text x="260.284px" y="70.501px" style="font-family:'ArialMT', 'Arial', sans-serif;font-size:1.269px;fill:#fff;fill-opacity:0.3;">h<tspan x="261.099px 261.506px 261.913px 262.728px 263.46px 263.867px " y="70.501px 70.501px 70.501px 70.501px 70.501px 70.501px ">ttps:/</tspan>/</text></g><path d="M308.497,24.582c0.374,-0.215 0.98,-0.215 1.353,0c0.374,0.216 0.374,0.566 0,0.781c-0.373,0.216 -0.979,0.216 -1.353,0c-0.373,-0.215 -0.373,-0.565 0,-0.781Z" style="fill:#3d3d3d;fill-opacity:0.3;"/></g><path d="M253.171,35.29l-1.647,6.147l6.147,1.647" style="fill:none;stroke:#00937b;stroke-width:3px;stroke-linejoin:miter;stroke-miterlimit:10;"/><path d="M266.252,27.738l6.147,1.647l-1.647,6.147" style="fill:none;stroke:#00937b;stroke-width:3px;stroke-linejoin:miter;stroke-miterlimit:10;"/><path d="M251.524,41.437c4.554,-2.629 16.321,-9.423 20.875,-12.052" style="fill:none;stroke:#00937b;stroke-width:3px;stroke-linejoin:miter;stroke-miterlimit:1;"/><path d="M277.72,21.116l-1.647,6.148l6.147,1.647" style="fill:none;stroke:#7882ff;stroke-width:3px;stroke-linejoin:miter;stroke-miterlimit:10;"/><path d="M290.8,13.565l6.147,1.647l-1.647,6.147" style="fill:none;stroke:#7882ff;stroke-width:3px;stroke-linejoin:miter;stroke-miterlimit:10;"/><path d="M276.073,27.264c4.553,-2.629 16.321,-9.423 20.874,-12.052" style="fill:none;stroke:#7882ff;stroke-width:3px;stroke-linejoin:miter;stroke-miterlimit:1;"/><path d="M258.076,27.55l0,-6.221c-1.113,0.889 -1.861,1.333 -2.247,1.333c-0.184,0 -0.347,-0.076 -0.489,-0.229c-0.142,-0.152 -0.214,-0.329 -0.214,-0.53c0,-0.232 0.07,-0.403 0.211,-0.512c0.14,-0.11 0.387,-0.251 0.742,-0.424c0.53,-0.26 0.953,-0.533 1.271,-0.82c0.317,-0.287 0.599,-0.609 0.844,-0.964c0.245,-0.356 0.405,-0.574 0.479,-0.657c0.075,-0.082 0.215,-0.123 0.421,-0.123c0.232,0 0.418,0.094 0.558,0.281c0.14,0.187 0.21,0.444 0.21,0.772l0,7.827c0,0.916 -0.3,1.374 -0.899,1.374c-0.268,0 -0.482,-0.093 -0.644,-0.28c-0.162,-0.187 -0.243,-0.462 -0.243,-0.827Z" style="fill:#3d3d3d;fill-rule:nonzero;"/><path d="M282.909,12.839l3.429,0c0.342,0 0.602,0.073 0.782,0.218c0.179,0.146 0.269,0.344 0.269,0.595c0,0.223 -0.071,0.413 -0.213,0.567c-0.143,0.155 -0.358,0.233 -0.647,0.233l-4.835,0c-0.328,0 -0.585,-0.095 -0.769,-0.284c-0.184,-0.189 -0.275,-0.411 -0.275,-0.666c0,-0.164 0.059,-0.382 0.177,-0.653c0.118,-0.271 0.247,-0.484 0.387,-0.639c0.583,-0.629 1.108,-1.168 1.577,-1.617c0.469,-0.449 0.804,-0.744 1.005,-0.885c0.359,-0.265 0.658,-0.53 0.897,-0.797c0.238,-0.266 0.42,-0.54 0.545,-0.82c0.125,-0.28 0.187,-0.555 0.187,-0.824c0,-0.291 -0.067,-0.552 -0.2,-0.782c-0.134,-0.231 -0.316,-0.409 -0.546,-0.537c-0.229,-0.128 -0.48,-0.191 -0.752,-0.191c-0.573,0 -1.024,0.262 -1.353,0.786c-0.044,0.068 -0.117,0.255 -0.22,0.56c-0.103,0.306 -0.219,0.54 -0.348,0.704c-0.129,0.164 -0.319,0.246 -0.568,0.246c-0.219,0 -0.401,-0.075 -0.545,-0.225c-0.145,-0.151 -0.217,-0.356 -0.217,-0.615c0,-0.315 0.068,-0.643 0.203,-0.985c0.136,-0.342 0.339,-0.651 0.608,-0.929c0.269,-0.278 0.611,-0.503 1.025,-0.674c0.414,-0.171 0.899,-0.256 1.455,-0.256c0.67,0 1.241,0.109 1.714,0.328c0.307,0.146 0.576,0.346 0.808,0.602c0.232,0.255 0.413,0.55 0.542,0.885c0.129,0.335 0.194,0.682 0.194,1.042c0,0.565 -0.135,1.079 -0.404,1.542c-0.269,0.462 -0.544,0.825 -0.825,1.087c-0.28,0.262 -0.749,0.673 -1.409,1.234c-0.659,0.56 -1.111,0.995 -1.356,1.305c-0.105,0.123 -0.212,0.271 -0.322,0.445Z" style="fill:#3d3d3d;fill-rule:nonzero;"/></g><g><path d="M263.829,90.979l0.222,0l0,-1.121c0,-0.301 0.008,-0.537 0.025,-0.708c0.018,-0.17 0.066,-0.317 0.144,-0.441c0.079,-0.127 0.192,-0.231 0.34,-0.311c0.148,-0.079 0.312,-0.119 0.495,-0.119c0.255,0 0.487,0.089 0.694,0.266c0.137,0.119 0.225,0.264 0.262,0.435c0.036,0.17 0.055,0.413 0.055,0.728l0,1.271l0.738,0c0.286,0 0.503,0.063 0.653,0.188c0.151,0.125 0.226,0.286 0.226,0.482c0,0.251 -0.107,0.426 -0.322,0.526c-0.214,0.101 -0.52,0.151 -0.919,0.151l-0.376,0l0,3.431c0,0.292 0.011,0.516 0.033,0.674c0.022,0.157 0.081,0.285 0.177,0.383c0.096,0.097 0.253,0.146 0.469,0.146c0.118,0 0.278,-0.019 0.48,-0.058c0.202,-0.038 0.359,-0.058 0.472,-0.058c0.163,0 0.309,0.061 0.44,0.181c0.13,0.121 0.195,0.27 0.195,0.448c0,0.301 -0.177,0.531 -0.531,0.691c-0.355,0.159 -0.864,0.239 -1.528,0.239c-0.63,0 -1.108,-0.098 -1.433,-0.294c-0.324,-0.196 -0.537,-0.467 -0.638,-0.814c-0.101,-0.346 -0.151,-0.808 -0.151,-1.387l0,-3.582l-0.266,0c-0.291,0 -0.512,-0.064 -0.665,-0.192c-0.152,-0.127 -0.228,-0.289 -0.228,-0.485c0,-0.196 0.08,-0.357 0.24,-0.482c0.159,-0.125 0.392,-0.188 0.697,-0.188Z" style="fill:#3d3d3d;fill-rule:nonzero;"/><path d="M270.325,91.977l1.314,4.17l1.196,-3.876c0.128,-0.406 0.223,-0.682 0.285,-0.831c0.061,-0.148 0.177,-0.289 0.347,-0.423c0.169,-0.135 0.402,-0.202 0.697,-0.202c0.3,0 0.535,0.067 0.705,0.202c0.17,0.134 0.289,0.28 0.358,0.437c0.069,0.157 0.165,0.43 0.288,0.817l1.196,3.876l1.329,-4.17c0.088,-0.301 0.16,-0.518 0.214,-0.653c0.054,-0.134 0.145,-0.253 0.273,-0.355c0.128,-0.103 0.312,-0.154 0.554,-0.154c0.241,0 0.45,0.077 0.627,0.232c0.177,0.155 0.266,0.338 0.266,0.547c0,0.192 -0.076,0.481 -0.229,0.868l-1.646,4.471c-0.143,0.378 -0.254,0.652 -0.332,0.82c-0.079,0.169 -0.203,0.319 -0.373,0.452c-0.17,0.132 -0.403,0.198 -0.698,0.198c-0.305,0 -0.545,-0.071 -0.72,-0.212c-0.174,-0.141 -0.303,-0.315 -0.387,-0.52c-0.084,-0.205 -0.175,-0.471 -0.273,-0.799l-1.152,-3.637l-1.115,3.637c-0.147,0.505 -0.307,0.887 -0.479,1.145c-0.173,0.257 -0.475,0.386 -0.908,0.386c-0.222,0 -0.41,-0.04 -0.565,-0.12c-0.155,-0.08 -0.284,-0.193 -0.388,-0.342c-0.103,-0.148 -0.194,-0.323 -0.273,-0.526c-0.079,-0.203 -0.14,-0.363 -0.184,-0.482l-1.632,-4.471c-0.162,-0.419 -0.243,-0.708 -0.243,-0.868c0,-0.2 0.086,-0.38 0.258,-0.54c0.172,-0.159 0.384,-0.239 0.635,-0.239c0.334,0 0.561,0.088 0.679,0.263c0.118,0.176 0.244,0.475 0.376,0.899Z" style="fill:#3d3d3d;fill-rule:nonzero;"/><path d="M288.707,94.609c0,0.556 -0.094,1.069 -0.281,1.538c-0.187,0.469 -0.457,0.873 -0.812,1.21c-0.354,0.337 -0.777,0.596 -1.269,0.776c-0.492,0.18 -1.046,0.27 -1.661,0.27c-0.611,0 -1.159,-0.091 -1.647,-0.274c-0.487,-0.182 -0.909,-0.443 -1.266,-0.782c-0.356,-0.34 -0.627,-0.741 -0.812,-1.203c-0.184,-0.463 -0.276,-0.975 -0.276,-1.535c0,-0.565 0.093,-1.082 0.28,-1.552c0.187,-0.469 0.455,-0.87 0.805,-1.203c0.349,-0.333 0.772,-0.589 1.269,-0.769c0.498,-0.18 1.046,-0.27 1.647,-0.27c0.61,0 1.164,0.091 1.661,0.273c0.497,0.183 0.922,0.442 1.277,0.78c0.354,0.337 0.624,0.738 0.808,1.203c0.185,0.465 0.277,0.977 0.277,1.538Zm-2.023,0c0,-0.761 -0.181,-1.354 -0.542,-1.777c-0.362,-0.424 -0.848,-0.636 -1.458,-0.636c-0.394,0 -0.741,0.094 -1.041,0.284c-0.3,0.189 -0.532,0.468 -0.694,0.837c-0.163,0.369 -0.244,0.8 -0.244,1.292c0,0.488 0.08,0.914 0.24,1.278c0.16,0.365 0.389,0.644 0.687,0.838c0.297,0.193 0.648,0.29 1.052,0.29c0.61,0 1.096,-0.213 1.458,-0.639c0.361,-0.426 0.542,-1.015 0.542,-1.767Z" style="fill:#3d3d3d;fill-rule:nonzero;"/><path d="M300.563,95.962c0,0.515 -0.136,0.956 -0.406,1.323c-0.271,0.367 -0.671,0.645 -1.2,0.834c-0.529,0.189 -1.172,0.284 -1.93,0.284c-0.724,0 -1.344,-0.103 -1.861,-0.308c-0.516,-0.205 -0.898,-0.461 -1.144,-0.769c-0.246,-0.307 -0.369,-0.616 -0.369,-0.926c0,-0.205 0.079,-0.381 0.236,-0.526c0.158,-0.146 0.357,-0.219 0.598,-0.219c0.212,0 0.374,0.048 0.487,0.143c0.114,0.096 0.222,0.231 0.325,0.404c0.207,0.332 0.454,0.581 0.742,0.745c0.288,0.164 0.68,0.246 1.178,0.246c0.403,0 0.734,-0.083 0.992,-0.25c0.259,-0.166 0.388,-0.356 0.388,-0.57c0,-0.329 -0.134,-0.568 -0.402,-0.718c-0.269,-0.151 -0.71,-0.294 -1.325,-0.431c-0.694,-0.159 -1.259,-0.327 -1.695,-0.502c-0.435,-0.176 -0.783,-0.407 -1.044,-0.694c-0.261,-0.287 -0.391,-0.64 -0.391,-1.06c0,-0.373 0.12,-0.727 0.361,-1.059c0.241,-0.333 0.597,-0.598 1.067,-0.797c0.47,-0.198 1.037,-0.297 1.702,-0.297c0.521,0 0.99,0.05 1.406,0.15c0.416,0.101 0.763,0.235 1.041,0.404c0.278,0.168 0.489,0.355 0.635,0.56c0.145,0.205 0.217,0.406 0.217,0.602c0,0.214 -0.077,0.389 -0.232,0.526c-0.155,0.137 -0.375,0.205 -0.661,0.205c-0.207,0 -0.382,-0.054 -0.528,-0.164c-0.145,-0.109 -0.311,-0.273 -0.498,-0.492c-0.153,-0.182 -0.332,-0.328 -0.539,-0.438c-0.207,-0.109 -0.487,-0.164 -0.841,-0.164c-0.365,0 -0.667,0.072 -0.908,0.216c-0.242,0.143 -0.362,0.322 -0.362,0.536c0,0.196 0.088,0.357 0.266,0.482c0.177,0.126 0.415,0.229 0.716,0.311c0.3,0.082 0.713,0.183 1.24,0.301c0.625,0.141 1.136,0.31 1.532,0.506c0.396,0.196 0.696,0.427 0.9,0.694c0.205,0.266 0.307,0.571 0.307,0.912Z" style="fill:#3d3d3d;fill-rule:nonzero;"/><path d="M309.495,96.092c0,0.233 -0.075,0.481 -0.225,0.745c-0.15,0.265 -0.379,0.517 -0.687,0.756c-0.307,0.239 -0.695,0.432 -1.162,0.577c-0.468,0.146 -0.994,0.219 -1.58,0.219c-1.245,0 -2.217,-0.336 -2.916,-1.008c-0.699,-0.672 -1.048,-1.574 -1.048,-2.704c0,-0.765 0.16,-1.442 0.48,-2.03c0.319,-0.588 0.782,-1.042 1.387,-1.364c0.606,-0.321 1.329,-0.482 2.171,-0.482c0.521,0 1,0.071 1.436,0.212c0.435,0.141 0.804,0.324 1.107,0.547c0.303,0.223 0.534,0.462 0.694,0.714c0.16,0.253 0.24,0.489 0.24,0.708c0,0.223 -0.09,0.412 -0.27,0.567c-0.179,0.155 -0.397,0.233 -0.653,0.233c-0.167,0 -0.306,-0.04 -0.417,-0.12c-0.111,-0.08 -0.235,-0.208 -0.373,-0.386c-0.246,-0.346 -0.503,-0.606 -0.771,-0.779c-0.269,-0.174 -0.609,-0.26 -1.023,-0.26c-0.595,0 -1.075,0.215 -1.439,0.646c-0.365,0.431 -0.547,1.02 -0.547,1.767c0,0.351 0.047,0.673 0.141,0.967c0.093,0.294 0.228,0.545 0.406,0.752c0.177,0.208 0.391,0.365 0.642,0.472c0.251,0.107 0.527,0.16 0.827,0.16c0.403,0 0.749,-0.086 1.037,-0.259c0.288,-0.173 0.542,-0.438 0.764,-0.793c0.123,-0.21 0.256,-0.374 0.399,-0.492c0.142,-0.119 0.317,-0.178 0.524,-0.178c0.246,0 0.45,0.086 0.612,0.26c0.163,0.173 0.244,0.357 0.244,0.553Z" style="fill:#3d3d3d;fill-rule:nonzero;"/><path d="M313.253,95.709l0,1.559c0,0.378 -0.096,0.662 -0.288,0.851c-0.192,0.189 -0.436,0.284 -0.731,0.284c-0.291,0 -0.529,-0.096 -0.716,-0.287c-0.187,-0.192 -0.281,-0.474 -0.281,-0.848l0,-5.195c0,-0.839 0.328,-1.258 0.982,-1.258c0.335,0 0.576,0.098 0.724,0.294c0.147,0.196 0.228,0.485 0.243,0.868c0.241,-0.383 0.489,-0.672 0.742,-0.868c0.253,-0.196 0.592,-0.294 1.015,-0.294c0.423,0 0.834,0.098 1.233,0.294c0.399,0.196 0.598,0.456 0.598,0.779c0,0.228 -0.085,0.416 -0.255,0.564c-0.17,0.148 -0.353,0.222 -0.55,0.222c-0.074,0 -0.252,-0.042 -0.535,-0.126c-0.283,-0.084 -0.533,-0.127 -0.749,-0.127c-0.296,0 -0.537,0.072 -0.724,0.216c-0.187,0.143 -0.332,0.356 -0.435,0.639c-0.104,0.282 -0.175,0.619 -0.214,1.008c-0.04,0.39 -0.059,0.865 -0.059,1.425Z" style="fill:#3d3d3d;fill-rule:nonzero;"/><path d="M323.122,95.067l-3.942,0c0.005,0.424 0.098,0.797 0.277,1.121c0.18,0.324 0.419,0.567 0.716,0.731c0.298,0.165 0.627,0.247 0.986,0.247c0.241,0 0.461,-0.027 0.661,-0.079c0.199,-0.052 0.392,-0.135 0.579,-0.246c0.187,-0.112 0.359,-0.231 0.517,-0.359c0.157,-0.128 0.362,-0.301 0.612,-0.52c0.104,-0.082 0.251,-0.123 0.443,-0.123c0.207,0 0.374,0.053 0.502,0.158c0.128,0.104 0.192,0.253 0.192,0.444c0,0.169 -0.071,0.366 -0.214,0.591c-0.142,0.226 -0.358,0.442 -0.646,0.65c-0.288,0.207 -0.649,0.379 -1.085,0.516c-0.435,0.136 -0.936,0.205 -1.502,0.205c-1.294,0 -2.301,-0.342 -3.019,-1.026c-0.719,-0.683 -1.078,-1.611 -1.078,-2.782c0,-0.551 0.088,-1.063 0.266,-1.534c0.177,-0.472 0.435,-0.877 0.775,-1.214c0.339,-0.337 0.758,-0.596 1.255,-0.776c0.497,-0.18 1.048,-0.27 1.653,-0.27c0.788,0 1.463,0.154 2.027,0.462c0.563,0.307 0.985,0.705 1.266,1.193c0.28,0.487 0.42,0.984 0.42,1.49c0,0.469 -0.145,0.773 -0.435,0.912c-0.29,0.139 -0.699,0.209 -1.226,0.209Zm-3.942,-1.06l3.655,0c-0.05,-0.638 -0.235,-1.115 -0.558,-1.432c-0.322,-0.317 -0.747,-0.475 -1.273,-0.475c-0.502,0 -0.914,0.161 -1.237,0.482c-0.322,0.321 -0.518,0.796 -0.587,1.425Z" style="fill:#3d3d3d;fill-rule:nonzero;"/><path d="M332.107,95.067l-3.943,0c0.005,0.424 0.098,0.797 0.277,1.121c0.18,0.324 0.419,0.567 0.716,0.731c0.298,0.165 0.627,0.247 0.986,0.247c0.241,0 0.461,-0.027 0.661,-0.079c0.199,-0.052 0.392,-0.135 0.579,-0.246c0.187,-0.112 0.359,-0.231 0.517,-0.359c0.157,-0.128 0.362,-0.301 0.613,-0.52c0.103,-0.082 0.251,-0.123 0.442,-0.123c0.207,0 0.375,0.053 0.502,0.158c0.128,0.104 0.192,0.253 0.192,0.444c0,0.169 -0.071,0.366 -0.214,0.591c-0.142,0.226 -0.358,0.442 -0.646,0.65c-0.288,0.207 -0.649,0.379 -1.085,0.516c-0.435,0.136 -0.936,0.205 -1.502,0.205c-1.294,0 -2.301,-0.342 -3.019,-1.026c-0.719,-0.683 -1.078,-1.611 -1.078,-2.782c0,-0.551 0.088,-1.063 0.266,-1.534c0.177,-0.472 0.435,-0.877 0.775,-1.214c0.339,-0.337 0.758,-0.596 1.255,-0.776c0.497,-0.18 1.048,-0.27 1.653,-0.27c0.788,0 1.463,0.154 2.027,0.462c0.563,0.307 0.985,0.705 1.266,1.193c0.28,0.487 0.421,0.984 0.421,1.49c0,0.469 -0.146,0.773 -0.436,0.912c-0.29,0.139 -0.699,0.209 -1.225,0.209Zm-3.943,-1.06l3.655,0c-0.05,-0.638 -0.235,-1.115 -0.558,-1.432c-0.322,-0.317 -0.747,-0.475 -1.273,-0.475c-0.502,0 -0.914,0.161 -1.237,0.482c-0.322,0.321 -0.518,0.796 -0.587,1.425Z" style="fill:#3d3d3d;fill-rule:nonzero;"/><path d="M337.296,91.847l0,0.226c0.355,-0.433 0.742,-0.751 1.163,-0.954c0.421,-0.203 0.904,-0.304 1.45,-0.304c0.532,0 1.007,0.107 1.425,0.321c0.419,0.214 0.731,0.518 0.938,0.909c0.133,0.228 0.219,0.474 0.258,0.739c0.039,0.264 0.059,0.601 0.059,1.011l0,3.473c0,0.374 -0.092,0.656 -0.277,0.848c-0.184,0.191 -0.424,0.287 -0.719,0.287c-0.301,0 -0.544,-0.098 -0.731,-0.294c-0.187,-0.196 -0.281,-0.476 -0.281,-0.841l0,-3.11c0,-0.615 -0.092,-1.086 -0.277,-1.412c-0.184,-0.326 -0.552,-0.489 -1.103,-0.489c-0.359,0 -0.687,0.099 -0.982,0.298c-0.295,0.198 -0.512,0.47 -0.65,0.817c-0.098,0.278 -0.147,0.797 -0.147,1.558l0,2.338c0,0.378 -0.095,0.662 -0.285,0.851c-0.189,0.189 -0.434,0.284 -0.734,0.284c-0.29,0 -0.529,-0.098 -0.716,-0.294c-0.187,-0.196 -0.281,-0.476 -0.281,-0.841l0,-5.393c0,-0.356 0.084,-0.621 0.251,-0.797c0.168,-0.175 0.397,-0.263 0.687,-0.263c0.177,0 0.337,0.039 0.48,0.116c0.142,0.078 0.257,0.194 0.343,0.349c0.086,0.155 0.129,0.344 0.129,0.567Z" style="fill:#3d3d3d;fill-rule:nonzero;"/><path d="M351.086,95.962c0,0.515 -0.135,0.956 -0.406,1.323c-0.271,0.367 -0.671,0.645 -1.2,0.834c-0.529,0.189 -1.172,0.284 -1.93,0.284c-0.723,0 -1.344,-0.103 -1.86,-0.308c-0.517,-0.205 -0.898,-0.461 -1.145,-0.769c-0.246,-0.307 -0.369,-0.616 -0.369,-0.926c0,-0.205 0.079,-0.381 0.237,-0.526c0.157,-0.146 0.356,-0.219 0.598,-0.219c0.211,0 0.374,0.048 0.487,0.143c0.113,0.096 0.221,0.231 0.325,0.404c0.206,0.332 0.454,0.581 0.741,0.745c0.288,0.164 0.681,0.246 1.178,0.246c0.403,0 0.734,-0.083 0.993,-0.25c0.258,-0.166 0.387,-0.356 0.387,-0.57c0,-0.329 -0.134,-0.568 -0.402,-0.718c-0.268,-0.151 -0.71,-0.294 -1.325,-0.431c-0.694,-0.159 -1.259,-0.327 -1.694,-0.502c-0.436,-0.176 -0.784,-0.407 -1.045,-0.694c-0.261,-0.287 -0.391,-0.64 -0.391,-1.06c0,-0.373 0.12,-0.727 0.362,-1.059c0.241,-0.333 0.596,-0.598 1.066,-0.797c0.47,-0.198 1.038,-0.297 1.702,-0.297c0.522,0 0.99,0.05 1.406,0.15c0.416,0.101 0.763,0.235 1.041,0.404c0.278,0.168 0.49,0.355 0.635,0.56c0.145,0.205 0.218,0.406 0.218,0.602c0,0.214 -0.078,0.389 -0.233,0.526c-0.155,0.137 -0.375,0.205 -0.66,0.205c-0.207,0 -0.383,-0.054 -0.528,-0.164c-0.145,-0.109 -0.312,-0.273 -0.499,-0.492c-0.152,-0.182 -0.332,-0.328 -0.538,-0.438c-0.207,-0.109 -0.488,-0.164 -0.842,-0.164c-0.364,0 -0.667,0.072 -0.908,0.216c-0.241,0.143 -0.362,0.322 -0.362,0.536c0,0.196 0.089,0.357 0.266,0.482c0.177,0.126 0.416,0.229 0.716,0.311c0.3,0.082 0.714,0.183 1.24,0.301c0.625,0.141 1.136,0.31 1.532,0.506c0.396,0.196 0.696,0.427 0.901,0.694c0.204,0.266 0.306,0.571 0.306,0.912Z" style="fill:#3d3d3d;fill-rule:nonzero;"/></g></g></svg>