<?xml version="1.0" encoding="UTF-8" standalone="no"?><!DOCTYPE svg PUBLIC "-//W3C//DTD SVG 1.1//EN" "http://www.w3.org/Graphics/SVG/1.1/DTD/svg11.dtd"><svg width="100%" height="100%" viewBox="0 0 297 102" version="1.1" xmlns="http://www.w3.org/2000/svg" xmlns:xlink="http://www.w3.org/1999/xlink" xml:space="preserve" xmlns:serif="http://www.serif.com/" style="fill-rule:evenodd;clip-rule:evenodd;stroke-linecap:round;stroke-linejoin:round;stroke-miterlimit:1.5;"><g><g><g><g id="flatFold"><path d="M49.974,35.189l-22.584,13.039c-1.084,0.626 -0.948,1.721 0.303,2.443l44.563,25.728c1.251,0.723 3.147,0.802 4.231,0.176l22.585,-13.04" style="fill:#fff;stroke:#3d3d3d;stroke-width:3px;stroke-dasharray:0,0.15,0,0;"/><path d="M99.072,63.535l22.585,-13.039c1.084,-0.626 0.948,-1.721 -0.304,-2.443l-44.562,-25.728c-1.252,-0.723 -3.148,-0.801 -4.232,-0.175l-22.585,13.039" style="fill:#fff;stroke:#3d3d3d;stroke-width:3px;stroke-dasharray:0,0.15,0,0;"/><path d="M79.672,26.733l-43.943,25.37l17.628,10.178l43.943,-25.371l-17.628,-10.177Z" style="fill:#00ffd6;fill-opacity:0.3;"/><path d="M57.848,62.271c0.928,-0.536 2.436,-0.536 3.364,0c0.928,0.536 0.928,1.406 0,1.942c-0.928,0.536 -2.436,0.536 -3.364,0c-0.928,-0.536 -0.928,-1.406 0,-1.942Z" style="fill:#00937b;fill-opacity:0.3;"/><path d="M74.771,53.757l-10.684,6.168l1.188,0.686l10.683,-6.169l-1.187,-0.685Z" style="fill:#00937b;fill-opacity:0.3;"/><path d="M76.814,54.937l-10.684,6.168l1.188,0.685l10.683,-6.168l-1.187,-0.685Z" style="fill:#00937b;fill-opacity:0.3;"/><path d="M79.52,56.499l-10.684,6.168l1.187,0.685l10.684,-6.168l-1.187,-0.685Z" style="fill:#00937b;fill-opacity:0.3;"/><path d="M81.563,57.678l-10.684,6.169l1.187,0.685l10.684,-6.168l-1.187,-0.686Z" style="fill:#00937b;fill-opacity:0.3;"/><path d="M57.152,45.847l8.024,-4.633l1.944,1.122l1.681,-2.791l6.308,3.642l-4.835,0.97l1.944,1.122l-8.024,4.633l-7.042,-4.065Z" style="fill:#00937b;fill-opacity:0.3;"/><path d="M80.977,49.405c0.942,-0.544 2.471,-0.544 3.413,0c0.942,0.544 0.942,1.427 0,1.971c-0.942,0.543 -2.471,0.543 -3.413,0c-0.942,-0.544 -0.942,-1.427 0,-1.971Z" style="fill:#7882ff;fill-opacity:0.3;"/><path d="M85.268,51.882c0.942,-0.543 2.471,-0.543 3.413,0c0.942,0.544 0.942,1.427 0,1.971c-0.942,0.544 -2.471,0.544 -3.413,0c-0.942,-0.544 -0.942,-1.427 0,-1.971Z" style="fill:#7882ff;fill-opacity:0.3;"/><path d="M89.559,54.36c0.942,-0.544 2.471,-0.544 3.413,0c0.942,0.544 0.942,1.427 0,1.971c-0.942,0.543 -2.471,0.543 -3.413,0c-0.942,-0.544 -0.942,-1.427 0,-1.971Z" style="fill:#7882ff;fill-opacity:0.3;"/><path d="M98.72,37.73l-16.46,9.504l19.153,11.058l16.461,-9.503l-19.154,-11.059Z" style="fill:#7882ff;fill-opacity:0.3;"/><path d="M98.926,38.799l-14.815,8.554l1.029,0.593l14.814,-8.553l-1.028,-0.594Z" style="fill:#fff;fill-opacity:0.3;"/><path d="M96.868,42.363l-10.7,6.177l1.029,0.594l10.699,-6.177l-1.028,-0.594Z" style="fill:#fff;fill-opacity:0.3;"/><path d="M103.04,41.175l-14.815,8.553l1.029,0.594l14.814,-8.554l-1.028,-0.593Z" style="fill:#fff;fill-opacity:0.3;"/><path d="M105.228,47.19l-10.699,6.177l1.028,0.594l10.7,-6.177l-1.029,-0.594Z" style="fill:#fff;fill-opacity:0.3;"/><path d="M107.286,43.626l-14.814,8.554l1.028,0.593l14.815,-8.553l-1.029,-0.594Z" style="fill:#fff;fill-opacity:0.3;"/><path d="M109.257,49.516l-10.699,6.177l1.028,0.594l10.699,-6.177l-1.028,-0.594Z" style="fill:#fff;fill-opacity:0.3;"/><path d="M111.315,45.952l-14.814,8.554l1.028,0.593l14.815,-8.553l-1.029,-0.594Z" style="fill:#fff;fill-opacity:0.3;"/><path d="M100.982,44.738l-10.7,6.177l1.029,0.594l10.699,-6.177l-1.028,-0.594Z" style="fill:#fff;fill-opacity:0.3;"/><path d="M76.17,25.668c-0.291,-0.169 -0.734,-0.187 -0.986,-0.041l-42.415,24.488c-0.253,0.146 -0.221,0.401 0.071,0.57l1.057,0.61c0.292,0.169 0.734,0.187 0.987,0.041l42.415,-24.488c0.252,-0.146 0.22,-0.401 -0.071,-0.57l-1.058,-0.61Z" style="fill:#3d3d3d;fill-opacity:0.3;"/><path d="M92.376,59.67l-37.342,-21.56" style="fill:none;stroke:#ff0076;stroke-width:2px;stroke-dasharray:0,4,0,0;stroke-dashoffset:2;"/><g transform="matrix(0.866025,-0.5,1,0.57735,-57.0397,22.1677)"><text x="24.133px" y="70.501px" style="font-family:'ArialMT', 'Arial', sans-serif;font-size:1.269px;fill:#fff;fill-opacity:0.3;">h<tspan x="24.948px 25.355px 25.762px 26.576px 27.309px 27.716px " y="70.501px 70.501px 70.501px 70.501px 70.501px 70.501px ">ttps:/</tspan>/</text></g><path d="M72.346,24.582c0.373,-0.215 0.98,-0.215 1.353,0c0.373,0.216 0.373,0.566 0,0.781c-0.373,0.216 -0.98,0.216 -1.353,0c-0.373,-0.215 -0.373,-0.565 0,-0.781Z" style="fill:#3d3d3d;fill-opacity:0.3;"/></g><path d="M17.635,35.645l-1.647,6.147l6.147,1.647" style="fill:none;stroke:#00937b;stroke-width:3px;stroke-linejoin:miter;stroke-miterlimit:10;"/><path d="M55.264,13.92l6.147,1.647l-1.647,6.147" style="fill:none;stroke:#00937b;stroke-width:3px;stroke-linejoin:miter;stroke-miterlimit:10;"/><path d="M15.988,41.792c7.744,-4.471 37.68,-21.754 45.423,-26.225" style="fill:none;stroke:#00937b;stroke-width:3px;stroke-linejoin:miter;stroke-miterlimit:1;"/><text x="34.412px" y="24.355px" style="font-family:'Bahnschrift', sans-serif;font-size:14px;fill:#3d3d3d;">1</text></g></g><text x="22.94px" y="98.232px" style="font-family:'Bahnschrift', sans-serif;font-size:14px;fill:#3d3d3d;">s<tspan x="30.78px 34.574px 43.019px 51.169px 55.547px 63.652px 67.712px 75.552px 83.082px 89.423px 97.529px 105.634px " y="98.232px 98.232px 98.232px 98.232px 98.232px 98.232px 98.232px 98.232px 98.232px 98.232px 98.232px 98.232px ">ingle screen</tspan></text></g><g><g><g id="flatFold1" serif:id="flatFold"><path d="M222.723,35.189l-22.585,13.039c-1.084,0.626 -0.948,1.721 0.304,2.443l44.562,25.728c1.251,0.723 3.148,0.802 4.231,0.176l22.585,-13.04" style="fill:#fff;stroke:#3d3d3d;stroke-width:3px;stroke-dasharray:0,0.15,0,0;"/><path d="M271.82,63.535l22.585,-13.039c1.084,-0.626 0.948,-1.721 -0.304,-2.443l-44.562,-25.728c-1.251,-0.723 -3.147,-0.801 -4.231,-0.175l-22.585,13.039" style="fill:#fff;stroke:#3d3d3d;stroke-width:3px;stroke-dasharray:0,0.15,0,0;"/><path d="M227.715,40.996l-19.238,11.107l17.628,10.178l19.238,-11.107l-17.628,-10.178Z" style="fill:#00ffd6;fill-opacity:0.3;"/><path d="M230.597,62.271c0.928,-0.536 2.435,-0.536 3.363,0c0.928,0.536 0.928,1.406 0,1.942c-0.928,0.536 -2.435,0.536 -3.363,0c-0.928,-0.536 -0.928,-1.406 0,-1.942Z" style="fill:#00937b;fill-opacity:0.3;"/><path d="M247.52,53.757l-10.684,6.168l1.187,0.686l10.684,-6.169l-1.187,-0.685Z" style="fill:#00937b;fill-opacity:0.3;"/><path d="M249.563,54.937l-10.684,6.168l1.187,0.685l10.684,-6.168l-1.187,-0.685Z" style="fill:#00937b;fill-opacity:0.3;"/><path d="M252.268,56.499l-10.684,6.168l1.187,0.685l10.684,-6.168l-1.187,-0.685Z" style="fill:#00937b;fill-opacity:0.3;"/><path d="M254.311,57.678l-10.684,6.169l1.187,0.685l10.684,-6.168l-1.187,-0.686Z" style="fill:#00937b;fill-opacity:0.3;"/><path d="M222.466,52.234l3.721,-2.148l1.065,0.615l0.647,-1.371l3.455,1.995l-2.375,0.373l1.065,0.615l-3.721,2.148l-3.857,-2.227Z" style="fill:#00937b;fill-opacity:0.3;"/><path d="M253.77,48.554c0.942,-0.544 2.472,-0.544 3.414,0c0.942,0.544 0.942,1.427 0,1.97c-0.942,0.544 -2.472,0.544 -3.414,0c-0.942,-0.543 -0.942,-1.426 0,-1.97Z" style="fill:#7882ff;fill-opacity:0.3;"/><path d="M258.061,51.031c0.942,-0.544 2.472,-0.544 3.414,0c0.942,0.544 0.942,1.427 0,1.971c-0.942,0.544 -2.472,0.544 -3.414,0c-0.942,-0.544 -0.942,-1.427 0,-1.971Z" style="fill:#7882ff;fill-opacity:0.3;"/><path d="M262.352,53.509c0.942,-0.544 2.472,-0.544 3.414,0c0.942,0.543 0.942,1.427 0,1.97c-0.942,0.544 -2.472,0.544 -3.414,0c-0.942,-0.543 -0.942,-1.427 0,-1.97Z" style="fill:#7882ff;fill-opacity:0.3;"/><path d="M252.1,27.422l-14.386,8.305l37.766,21.804l14.385,-8.305l-37.765,-21.804Z" style="fill:#7882ff;fill-opacity:0.3;"/><path d="M271.74,38.761l-13.628,7.869l1.028,0.593l13.629,-7.868l-1.029,-0.594Z" style="fill:#fff;fill-opacity:0.3;"/><path d="M270.011,42.135l-9.842,5.682l1.028,0.594l9.843,-5.683l-1.029,-0.593Z" style="fill:#fff;fill-opacity:0.3;"/><path d="M275.854,41.137l-13.628,7.868l1.028,0.594l13.629,-7.869l-1.029,-0.593Z" style="fill:#fff;fill-opacity:0.3;"/><path d="M278.372,46.961l-9.843,5.683l1.029,0.594l9.842,-5.683l-1.028,-0.594Z" style="fill:#fff;fill-opacity:0.3;"/><path d="M280.101,43.588l-13.629,7.869l1.029,0.593l13.628,-7.868l-1.028,-0.594Z" style="fill:#fff;fill-opacity:0.3;"/><path d="M282.401,49.288l-9.843,5.682l1.028,0.594l9.843,-5.683l-1.028,-0.593Z" style="fill:#fff;fill-opacity:0.3;"/><path d="M284.129,45.914l-13.628,7.869l1.029,0.593l13.628,-7.868l-1.029,-0.594Z" style="fill:#fff;fill-opacity:0.3;"/><path d="M274.125,44.51l-9.842,5.682l1.028,0.594l9.843,-5.682l-1.029,-0.594Z" style="fill:#fff;fill-opacity:0.3;"/><path d="M248.919,25.668c-0.292,-0.169 -0.734,-0.187 -0.987,-0.041l-42.415,24.488c-0.252,0.146 -0.221,0.401 0.071,0.57l1.058,0.61c0.291,0.169 0.733,0.187 0.986,0.041l42.415,-24.488c0.253,-0.146 0.221,-0.401 -0.071,-0.57l-1.057,-0.61Z" style="fill:#3d3d3d;fill-opacity:0.3;"/><path d="M271.82,63.535l-49.097,-28.346" style="fill:none;stroke:#3d3d3d;stroke-width:3px;"/><g transform="matrix(0.866025,-0.5,1,0.57735,-33.8959,108.542)"><text x="196.881px" y="70.501px" style="font-family:'ArialMT', 'Arial', sans-serif;font-size:1.269px;fill:#fff;fill-opacity:0.3;">h<tspan x="197.696px 198.103px 198.51px 199.325px 200.057px 200.464px " y="70.501px 70.501px 70.501px 70.501px 70.501px 70.501px ">ttps:/</tspan>/</text></g><path d="M245.094,24.582c0.374,-0.215 0.98,-0.215 1.353,0c0.374,0.216 0.374,0.566 0,0.781c-0.373,0.216 -0.979,0.216 -1.353,0c-0.373,-0.215 -0.373,-0.565 0,-0.781Z" style="fill:#3d3d3d;fill-opacity:0.3;"/></g><path d="M189.768,35.29l-1.647,6.147l6.147,1.647" style="fill:none;stroke:#00937b;stroke-width:3px;stroke-linejoin:miter;stroke-miterlimit:10;"/><path d="M202.849,27.738l6.147,1.647l-1.647,6.147" style="fill:none;stroke:#00937b;stroke-width:3px;stroke-linejoin:miter;stroke-miterlimit:10;"/><path d="M188.121,41.437c4.554,-2.629 16.321,-9.423 20.875,-12.052" style="fill:none;stroke:#00937b;stroke-width:3px;stroke-linejoin:miter;stroke-miterlimit:1;"/><path d="M214.317,21.116l-1.647,6.148l6.147,1.647" style="fill:none;stroke:#7882ff;stroke-width:3px;stroke-linejoin:miter;stroke-miterlimit:10;"/><path d="M227.397,13.565l6.147,1.647l-1.647,6.147" style="fill:none;stroke:#7882ff;stroke-width:3px;stroke-linejoin:miter;stroke-miterlimit:10;"/><path d="M212.67,27.264c4.553,-2.629 16.321,-9.423 20.874,-12.052" style="fill:none;stroke:#7882ff;stroke-width:3px;stroke-linejoin:miter;stroke-miterlimit:1;"/><text x="190.876px" y="28.486px" style="font-family:'Bahnschrift', sans-serif;font-size:14px;fill:#3d3d3d;">1</text><text x="216.504px" y="14.452px" style="font-family:'Bahnschrift', sans-serif;font-size:14px;fill:#3d3d3d;">2</text></g><text x="199.274px" y="98.232px" style="font-family:'Bahnschrift', sans-serif;font-size:14px;fill:#3d3d3d;">t<tspan x="204.206px 215.788px 224.027px 228.087px 235.927px 243.457px 249.798px 257.903px 266.009px 274.454px " y="98.232px 98.232px 98.232px 98.232px 98.232px 98.232px 98.232px 98.232px 98.232px 98.232px ">wo screens</tspan></text></g></svg>