<?xml version="1.0" encoding="UTF-8" standalone="no"?><!DOCTYPE svg PUBLIC "-//W3C//DTD SVG 1.1//EN" "http://www.w3.org/Graphics/SVG/1.1/DTD/svg11.dtd"><svg width="100%" height="100%" viewBox="0 0 530 114" version="1.1" xmlns="http://www.w3.org/2000/svg" xmlns:xlink="http://www.w3.org/1999/xlink" xml:space="preserve" xmlns:serif="http://www.serif.com/" style="fill-rule:evenodd;clip-rule:evenodd;stroke-linecap:round;stroke-linejoin:round;stroke-miterlimit:1.5;"><g><path d="M0.61,83.559l73.382,0" style="fill:none;stroke:#000;stroke-width:1.22px;stroke-dasharray:0,0.06,0,0;"/><path d="M0.61,81.175l0,-73.382" style="fill:none;stroke:#000;stroke-width:1.22px;stroke-dasharray:0,0.06,0,0;"/><text x="19.742px" y="111.392px" style="font-family:'ArialMT', 'Arial', sans-serif;font-size:10px;">Laptop</text><path d="M5.511,65.211l12.817,0l0,13.684" style="fill:none;stroke:#c9cdff;stroke-width:3.66px;stroke-dasharray:0,0.18,0,0;"/></g><g><path d="M164.567,50.215l73.382,0" style="fill:none;stroke:#000;stroke-width:1.22px;stroke-dasharray:0,0.06,0,0;"/><path d="M161.987,50.215l-73.383,0" style="fill:none;stroke:#000;stroke-width:1.22px;stroke-dasharray:0,0.06,0,0;"/><text x="154.898px" y="111.392px" style="font-family:'ArialMT', 'Arial', sans-serif;font-size:10px;">Flat</text><path d="M155.404,45.166c2.179,-2.369 5.304,-3.855 8.774,-3.855c3.276,0 6.246,1.325 8.401,3.468" style="fill:none;stroke:#c9cdff;stroke-width:3.66px;stroke-dasharray:0,0.18,0,0;"/></g><g><path d="M282.905,12.678l-18.993,70.881" style="fill:none;stroke:#000;stroke-width:1.22px;stroke-dasharray:0,0.06,0,0;"/><path d="M284.661,12.678l18.993,70.881" style="fill:none;stroke:#000;stroke-width:1.22px;stroke-dasharray:0,0.06,0,0;"/><text x="273.871px" y="111.392px" style="font-family:'ArialMT', 'Arial', sans-serif;font-size:10px;">T<tspan x="278.871px 284.433px " y="111.392px 111.392px ">en</tspan>t</text><path d="M274.92,22.202c-2.172,-2.16 -3.518,-5.15 -3.518,-8.453c0,-6.578 5.341,-11.92 11.92,-11.92c6.579,0 11.92,5.342 11.92,11.92c0,3.11 -1.193,5.943 -3.146,8.066" style="fill:none;stroke:#c9cdff;stroke-width:3.66px;stroke-dasharray:0,0.18,0,0;"/></g><g><path d="M477.386,74.063l51.889,-51.889" style="fill:none;stroke:#000;stroke-width:1.22px;stroke-dasharray:0,0.06,0,0;"/><path d="M475.316,74.063l-51.889,-51.889" style="fill:none;stroke:#000;stroke-width:1.22px;stroke-dasharray:0,0.06,0,0;"/><text x="464.955px" y="111.392px" style="font-family:'ArialMT', 'Arial', sans-serif;font-size:10px;">Book</text><path d="M467.577,57.909c2.18,-2.369 5.305,-3.854 8.774,-3.854c3.277,0 6.246,1.325 8.402,3.467" style="fill:none;stroke:#c9cdff;stroke-width:3.66px;stroke-dasharray:0,0.18,0,0;"/></g><g><path d="M335.432,53.932l73.383,0" style="fill:none;stroke:#000;stroke-width:1.22px;stroke-dasharray:0,0.06,0,0;"/><path d="M408.815,50.215l-73.383,0" style="fill:none;stroke:#000;stroke-width:1.22px;stroke-dasharray:0,0.06,0,0;"/><text x="359.365px" y="111.392px" style="font-family:'ArialMT', 'Arial', sans-serif;font-size:10px;">T<tspan x="364.365px 369.927px " y="111.392px 111.392px ">ab</tspan>let</text><path d="M343.472,57.979c-1.567,1.576 -3.736,2.552 -6.131,2.552c-4.772,0 -8.646,-3.874 -8.646,-8.646c0,-4.772 3.874,-8.646 8.646,-8.646c2.255,0 4.31,0.865 5.85,2.282" style="fill:none;stroke:#c9cdff;stroke-width:2.65px;stroke-dasharray:0,0.13,0,0;"/></g></svg>