<?xml version="1.0" encoding="UTF-8" standalone="no"?><!DOCTYPE svg PUBLIC "-//W3C//DTD SVG 1.1//EN" "http://www.w3.org/Graphics/SVG/1.1/DTD/svg11.dtd"><svg width="100%" height="100%" viewBox="0 0 1440 900" version="1.1" xmlns="http://www.w3.org/2000/svg" xmlns:xlink="http://www.w3.org/1999/xlink" xml:space="preserve" xmlns:serif="http://www.serif.com/" style="fill-rule:evenodd;clip-rule:evenodd;stroke-linecap:round;stroke-linejoin:round;stroke-miterlimit:1.5;"><g><path d="M767.795,265.274c-1.413,-0.817 -3.555,-0.905 -4.779,-0.199l-23.292,13.448c-1.224,0.707 -1.07,1.943 0.343,2.759l50.333,29.06c1.414,0.816 3.556,0.905 4.78,0.198l23.291,-13.447c1.225,-0.707 1.071,-1.944 -0.343,-2.76l-50.333,-29.059Z" style="fill:#fff;stroke:#3d3d3d;stroke-width:3.39px;stroke-dasharray:0,0.17,0,0;"/><path d="M767.821,268.63c-0.329,-0.191 -0.829,-0.211 -1.114,-0.047l-20.907,12.071c-0.285,0.165 -0.249,0.453 0.08,0.643l1.195,0.69c0.329,0.19 0.828,0.211 1.114,0.046l20.906,-12.071c0.286,-0.164 0.25,-0.453 -0.08,-0.643l-1.194,-0.689Z" style="fill:#3d3d3d;"/><g transform="matrix(0.866025,-0.5,1,0.57735,-193.516,474.126)"><text x="736.046px" y="303.679px" style="font-family:'ArialMT', 'Arial', sans-serif;font-size:1.433px;fill:#fff;">h<tspan x="736.966px 737.426px 737.885px 738.806px 739.633px 740.093px 740.553px " y="303.679px 303.679px 303.679px 303.679px 303.679px 303.679px 303.679px ">ttps://</tspan></text></g><path d="M763.858,289.202c1.049,-0.605 2.751,-0.605 3.799,0c1.048,0.605 1.048,1.588 0,2.193c-1.048,0.606 -2.75,0.606 -3.799,0c-1.048,-0.605 -1.048,-1.588 0,-2.193Z" style="fill:#00937b;"/><path d="M770.597,270.513l-21.454,12.387l11.852,6.842l21.453,-12.386l-11.851,-6.843Z" style="fill:#00ffd6;"/><path d="M780.296,281.131l-12.067,6.967l1.341,0.774l12.067,-6.967l-1.341,-0.774Z" style="fill:#00937b;"/><path d="M759.786,280.931l5.263,-3.039l1.275,0.736l1.103,-1.831l4.137,2.389l-3.171,0.636l1.275,0.737l-5.263,3.038l-4.619,-2.666Z" style="fill:#00937b;"/><path d="M772.989,295.591c1.064,-0.614 2.792,-0.614 3.856,0c1.064,0.614 1.064,1.612 0,2.226c-1.064,0.614 -2.792,0.614 -3.856,0c-1.064,-0.614 -1.064,-1.612 0,-2.226Z" style="fill:#7882ff;"/><path d="M777.836,298.389c1.064,-0.614 2.792,-0.614 3.856,0c1.064,0.615 1.064,1.612 0,2.226c-1.064,0.615 -2.792,0.615 -3.856,0c-1.064,-0.614 -1.064,-1.611 0,-2.226Z" style="fill:#7882ff;"/><path d="M782.683,301.188c1.064,-0.614 2.791,-0.614 3.855,0c1.064,0.614 1.064,1.611 0,2.226c-1.064,0.614 -2.791,0.614 -3.855,0c-1.064,-0.615 -1.064,-1.612 0,-2.226Z" style="fill:#7882ff;"/><path d="M793.031,282.405l-18.592,10.734l21.634,12.49l18.592,-10.734l-21.634,-12.49Z" style="fill:#7882ff;"/><path d="M793.263,283.612l-16.733,9.661l1.162,0.671l16.733,-9.661l-1.162,-0.671Z" style="fill:#fff;"/><path d="M790.938,287.637l-12.085,6.977l1.162,0.671l12.085,-6.977l-1.162,-0.671Z" style="fill:#fff;"/><path d="M797.91,286.295l-16.733,9.661l1.161,0.671l16.733,-9.661l-1.161,-0.671Z" style="fill:#fff;"/><path d="M800.382,293.089l-12.085,6.977l1.161,0.671l12.085,-6.977l-1.161,-0.671Z" style="fill:#fff;"/><path d="M802.706,289.064l-16.733,9.661l1.162,0.671l16.733,-9.661l-1.162,-0.671Z" style="fill:#fff;"/><path d="M804.932,295.716l-12.085,6.978l1.162,0.67l12.085,-6.977l-1.162,-0.671Z" style="fill:#fff;"/><path d="M807.257,291.691l-16.733,9.661l1.161,0.671l16.734,-9.661l-1.162,-0.671Z" style="fill:#fff;"/><path d="M795.585,290.32l-12.085,6.977l1.162,0.671l12.085,-6.977l-1.162,-0.671Z" style="fill:#fff;"/><path d="M764.529,295.405l27.728,-16.008" style="fill:none;stroke:#ff0076;stroke-width:1.69px;stroke-dasharray:0,3.39,0,0;stroke-dashoffset:1.69;"/><path d="M753.629,273.103c0.422,-0.243 1.107,-0.243 1.528,0c0.422,0.244 0.422,0.639 0,0.883c-0.421,0.243 -1.106,0.243 -1.528,0c-0.422,-0.244 -0.422,-0.639 0,-0.883Z" style="fill:#3d3d3d;"/></g><g><g><path d="M324.492,235.619c-3.673,-2.12 -9.237,-2.351 -12.418,-0.514l-99.385,57.38c-3.181,1.836 -2.781,5.049 0.891,7.169l69.875,40.342c3.673,2.121 9.237,2.351 12.418,0.515l99.385,-57.38c3.181,-1.837 2.781,-5.049 -0.892,-7.17l-69.874,-40.342Z" style="fill:#fff;"/><clipPath id="_clip1"><path d="M324.492,235.619c-3.673,-2.12 -9.237,-2.351 -12.418,-0.514l-99.385,57.38c-3.181,1.836 -2.781,5.049 0.891,7.169l69.875,40.342c3.673,2.121 9.237,2.351 12.418,0.515l99.385,-57.38c3.181,-1.837 2.781,-5.049 -0.892,-7.17l-69.874,-40.342Z"/></clipPath><g clip-path="url(#_clip1)"><path d="M291.662,332.45c3.332,-1.924 8.743,-1.924 12.075,0c3.332,1.924 3.332,5.048 0,6.971c-3.332,1.924 -8.743,1.924 -12.075,0c-3.332,-1.923 -3.332,-5.047 0,-6.971Z" style="fill:#7882ff;"/><path d="M276.482,323.686c3.332,-1.924 8.743,-1.924 12.075,0c3.332,1.924 3.332,5.047 0,6.971c-3.332,1.924 -8.743,1.924 -12.075,0c-3.332,-1.924 -3.332,-5.047 0,-6.971Z" style="fill:#7882ff;"/><path d="M369.636,268.516l-84.316,48.68l25.468,14.704l84.316,-48.68l-25.468,-14.704Z" style="fill:#7882ff;"/></g><path d="M324.492,235.619c-3.673,-2.12 -9.237,-2.351 -12.418,-0.514l-99.385,57.38c-3.181,1.836 -2.781,5.049 0.891,7.169l69.875,40.342c3.673,2.121 9.237,2.351 12.418,0.515l99.385,-57.38c3.181,-1.837 2.781,-5.049 -0.892,-7.17l-69.874,-40.342Z" style="fill:none;stroke:#3d3d3d;stroke-width:3.39px;stroke-dasharray:0,0.17,0,0;"/><path d="M265.419,265.549c0.422,-0.244 1.107,-0.244 1.528,0c0.422,0.243 0.422,0.638 0,0.882c-0.421,0.243 -1.106,0.243 -1.528,0c-0.421,-0.244 -0.421,-0.639 0,-0.882Z" style="fill:#3d3d3d;"/><path d="M308.829,263.851l-58.259,33.636l32.184,18.581l58.258,-33.636l-32.183,-18.581Z" style="fill:#00ffd6;"/><path d="M312.47,291.18l-32.77,18.92l3.641,2.102l32.77,-18.92l-3.641,-2.102Z" style="fill:#00937b;"/><path d="M241.467,302.742c3.015,-1.74 7.909,-1.74 10.924,0c3.014,1.741 3.014,4.567 0,6.307c-3.015,1.74 -7.909,1.74 -10.924,0c-3.014,-1.74 -3.014,-4.566 0,-6.307Z" style="fill:#00937b;"/><path d="M276.059,289.078l14.291,-8.252l3.463,1.999l2.994,-4.972l11.235,6.487l-8.612,1.729l3.463,1.999l-14.292,8.251l-12.542,-7.241Z" style="fill:#00937b;"/><path d="M326.1,240.319c-1.414,-0.817 -3.555,-0.906 -4.78,-0.199l-98.031,56.599c-1.224,0.707 -1.071,1.943 0.343,2.759l5.124,2.958c1.414,0.817 3.555,0.906 4.78,0.199l98.031,-56.599c1.224,-0.707 1.071,-1.943 -0.343,-2.759l-5.124,-2.958Z" style="fill:#3d3d3d;"/><g transform="matrix(0.866025,-0.5,1,0.57735,-321.629,162.443)"><text x="181.442px" y="395.496px" style="font-family:'ArialMT', 'Arial', sans-serif;font-size:6.148px;fill:#fff;">h<tspan x="185.39px 187.363px 189.335px 193.283px 196.833px 198.805px 200.778px " y="395.496px 395.496px 395.496px 395.496px 395.496px 395.496px 395.496px ">ttps://</tspan></text></g><path d="M369.059,273.051l-75.885,43.811l3.638,2.101l75.885,-43.812l-3.638,-2.1Z" style="fill:#fff;"/><path d="M355.256,289.422l-54.805,31.641l3.638,2.101l54.805,-31.642l-3.638,-2.1Z" style="fill:#fff;"/><path d="M383.611,281.453l-75.884,43.812l3.638,2.1l75.885,-43.812l-3.639,-2.1Z" style="fill:#fff;"/><path d="M248.518,319.825l110.911,-64.035" style="fill:none;stroke:#ff0076;stroke-width:1.69px;stroke-dasharray:0,3.39,0,0;stroke-dashoffset:1.69;"/></g></g><g><path d="M866.85,303.144c-0.032,0.127 -21.757,12.877 -22.11,12.238c-0.395,-0.713 15.307,-23.393 15.307,-23.393" style="fill:#8b8b8b;stroke:#3d3d3d;stroke-width:3.39px;stroke-linejoin:miter;stroke-miterlimit:1;"/><path d="M860.047,291.989l18.763,32.498c0.901,1.56 2.898,2.095 4.458,1.195l67.948,-39.23c1.559,-0.901 2.095,-2.898 1.194,-4.458l-18.763,-32.497" style="fill:#fff;stroke:#3d3d3d;stroke-width:3.39px;stroke-linejoin:miter;stroke-miterlimit:1;"/><path d="M907.993,271.786c1.307,-0.755 2.956,-0.349 3.68,0.905c0.724,1.254 0.251,2.884 -1.056,3.639c-1.307,0.754 -2.956,0.349 -3.68,-0.905c-0.724,-1.254 -0.251,-2.885 1.056,-3.639Z" style="fill:#7882ff;"/><path d="M911.291,277.498c1.307,-0.754 2.956,-0.349 3.68,0.905c0.724,1.254 0.251,2.885 -1.056,3.639c-1.307,0.755 -2.956,0.349 -3.68,-0.905c-0.724,-1.254 -0.25,-2.884 1.056,-3.639Z" style="fill:#7882ff;"/><path d="M914.63,283.383c1.306,-0.754 2.955,-0.349 3.679,0.905c0.724,1.254 0.251,2.885 -1.056,3.639c-1.307,0.755 -2.956,0.349 -3.68,-0.905c-0.724,-1.254 -0.25,-2.884 1.057,-3.639Z" style="fill:#7882ff;"/><path d="M933.47,255.093l-22.837,13.185l15.342,26.574l22.838,-13.185l-15.343,-26.574Z" style="fill:#7882ff;"/><path d="M933.042,256.988l-20.554,11.866l0.714,1.236l20.553,-11.867l-0.713,-1.235Z" style="fill:#fff;"/><path d="M928.759,262.755l-14.844,8.571l0.713,1.235l14.845,-8.57l-0.714,-1.236Z" style="fill:#fff;"/><path d="M935.895,261.93l-20.553,11.867l0.713,1.236l20.554,-11.867l-0.714,-1.236Z" style="fill:#fff;"/><path d="M931.613,267.698l-14.844,8.57l0.713,1.236l14.844,-8.57l-0.713,-1.236Z" style="fill:#fff;"/><path d="M938.639,266.667l-20.553,11.866l0.713,1.236l20.553,-11.867l-0.713,-1.235Z" style="fill:#fff;"/><path d="M934.357,272.434l-14.845,8.571l0.714,1.235l14.844,-8.57l-0.713,-1.236Z" style="fill:#fff;"/><path d="M881.449,313.429c1.795,-1.036 4.099,-0.411 5.141,1.394c1.042,1.806 0.432,4.113 -1.363,5.149c-1.795,1.037 -4.099,0.412 -5.141,-1.393c-1.043,-1.806 -0.432,-4.113 1.363,-5.15Z" style="fill:#00937b;"/><path d="M902.185,272.026l-36.732,21.207l11.785,20.413l36.732,-21.207l-11.785,-20.413Z" style="fill:#00ffd6;"/><path d="M908.711,300.512l-20.661,11.929l1.333,2.309l20.662,-11.929l-1.334,-2.309Z" style="fill:#00937b;"/><path d="M881.08,292.516l9.011,-5.203l1.268,2.196l2.63,-3.893l4.114,7.125l-4.687,0.331l1.268,2.196l-9.011,5.203l-4.593,-7.955Z" style="fill:#00937b;"/><path d="M933.376,249.654l-73.057,42.179" style="fill:none;stroke:#3d3d3d;stroke-opacity:0.25;stroke-width:3.39px;stroke-linejoin:miter;stroke-miterlimit:1;"/><path d="M933.376,249.654l-73.057,42.179" style="fill:none;stroke:#ff0076;stroke-width:1.69px;stroke-linejoin:miter;stroke-miterlimit:1;stroke-dasharray:0,3.39,0,0;"/></g><g id="book-big"><path d="M464.396,289.786l-39.027,6.702c-2.393,0.411 -3.238,1.379 -1.884,2.16l58.798,33.947c1.353,0.782 4.395,1.082 6.788,0.671l39.027,-6.701" style="fill:#fff;stroke:#3d3d3d;stroke-width:3.39px;stroke-linejoin:miter;stroke-miterlimit:1;"/><path d="M468.674,293.909c-0.543,-0.313 -1.305,-0.513 -1.7,-0.445l-35.869,6.16c-0.395,0.067 -0.275,0.377 0.268,0.691l1.968,1.136c0.544,0.314 1.305,0.513 1.701,0.445l35.868,-6.159c0.396,-0.068 0.276,-0.378 -0.268,-0.691l-1.968,-1.137Z" style="fill:#3d3d3d;"/><path d="M463.616,316.602c1.715,-0.294 3.984,-0.027 5.064,0.596c1.08,0.624 0.564,1.369 -1.151,1.663c-1.715,0.295 -3.984,0.028 -5.064,-0.595c-1.08,-0.624 -0.564,-1.369 1.151,-1.664Z" style="fill:#00937b;"/><path d="M472.069,297.517l-35.101,6.028l21.831,12.604l35.101,-6.028l-21.831,-12.604Z" style="fill:#00ffd6;"/><path d="M482.716,317.205l-15.108,2.594l8.064,4.656l15.108,-2.595l-8.064,-4.655Z" style="fill:#00ffd6;"/><path d="M500.793,314.101l-15.108,2.594l8.064,4.656l15.108,-2.595l-8.064,-4.655Z" style="fill:#00ffd6;"/><path d="M492.936,323.105l-15.109,2.594l8.064,4.656l15.108,-2.595l-8.063,-4.655Z" style="fill:#00ffd6;"/><path d="M511.012,320.001l-15.108,2.594l8.064,4.656l15.108,-2.595l-8.064,-4.655Z" style="fill:#00ffd6;"/><path d="M489.766,313.06l-19.744,3.391l1.381,0.797l19.744,-3.391l-1.381,-0.797Z" style="fill:#00937b;"/><path d="M457.002,306.499l8.611,-1.478l1.313,0.758l2.431,-1.216l4.261,2.461l-4.561,-0.015l1.313,0.758l-8.611,1.479l-4.757,-2.747Z" style="fill:#00937b;"/><path d="M464.396,289.786l22.642,-43.951c1.388,-2.695 3.614,-4.249 4.968,-3.468l58.798,33.947c1.353,0.782 1.324,3.604 -0.064,6.3l-22.642,43.951" style="fill:#fff;stroke:#3d3d3d;stroke-width:3.39px;stroke-linejoin:miter;stroke-miterlimit:1;"/><path d="M474.122,287.144c0.702,-1.363 2.234,-1.914 3.419,-1.23c1.185,0.684 1.577,2.346 0.875,3.708c-0.702,1.363 -2.234,1.914 -3.419,1.23c-1.185,-0.684 -1.577,-2.346 -0.875,-3.708Z" style="fill:#7882ff;"/><path d="M480.91,291.063c0.702,-1.363 2.234,-1.914 3.419,-1.23c1.185,0.684 1.577,2.346 0.875,3.708c-0.702,1.363 -2.234,1.914 -3.419,1.23c-1.185,-0.684 -1.577,-2.346 -0.875,-3.708Z" style="fill:#7882ff;"/><path d="M487.698,294.982c0.702,-1.363 2.234,-1.914 3.419,-1.23c1.184,0.684 1.577,2.346 0.875,3.708c-0.702,1.363 -2.234,1.914 -3.419,1.23c-1.185,-0.684 -1.577,-2.346 -0.875,-3.708Z" style="fill:#7882ff;"/><path d="M492.231,248.234l-17.296,33.575l53.791,31.056l17.297,-33.574l-53.792,-31.057Z" style="fill:#7882ff;"/><path d="M493.641,251.226l-15.567,30.217l1.788,1.033l15.567,-30.218l-1.788,-1.032Z" style="fill:#fff;"/><path d="M492.893,261.684l-11.243,21.824l1.788,1.032l11.243,-21.823l-1.788,-1.033Z" style="fill:#fff;"/><path d="M500.793,255.355l-15.567,30.217l1.788,1.033l15.567,-30.218l-1.788,-1.032Z" style="fill:#fff;"/><path d="M507.427,270.075l-11.243,21.824l1.788,1.032l11.243,-21.823l-1.788,-1.033Z" style="fill:#fff;"/><path d="M508.175,259.617l-15.567,30.217l1.788,1.033l15.567,-30.217l-1.788,-1.033Z" style="fill:#fff;"/><path d="M514.43,274.119l-11.243,21.824l1.788,1.032l11.243,-21.824l-1.788,-1.032Z" style="fill:#fff;"/><path d="M515.179,263.661l-15.567,30.217l1.788,1.032l15.567,-30.217l-1.788,-1.032Z" style="fill:#fff;"/><path d="M500.044,265.813l-11.242,21.824l1.787,1.032l11.243,-21.823l-1.788,-1.033Z" style="fill:#fff;"/><path d="M464.396,289.786l63.702,36.779" style="fill:none;stroke:#ff0076;stroke-width:1.69px;stroke-linejoin:miter;stroke-miterlimit:1;stroke-dasharray:0,3.39,0,0;"/><g transform="matrix(0.985574,-0.169247,1.35452,0.782033,-288.142,63.4982)"><text x="243.346px" y="356.283px" style="font-family:'Bahnschrift', sans-serif;font-size:1.682px;fill:#fff;">h<tspan x="244.868px 245.757px 246.645px 248.128px 249.541px 250.158px 251.189px " y="356.283px 356.283px 356.283px 356.283px 356.283px 356.283px 356.283px ">ttps://</tspan></text></g></g><g><path d="M158.585,287.716l0,-29.456c0,-1.413 -0.861,-2.064 -1.921,-1.452l-23.886,13.79c-1.06,0.613 -1.921,2.257 -1.921,3.671l0,29.456" style="fill:#fff;stroke:#3d3d3d;stroke-width:3.39px;stroke-linejoin:miter;stroke-miterlimit:1;"/><path d="M130.857,303.725l25.51,14.728c1.224,0.707 3.079,0.784 4.139,0.172l23.886,-13.791c1.06,-0.612 0.927,-1.683 -0.297,-2.39l-25.51,-14.728" style="fill:#fff;stroke:#3d3d3d;stroke-width:3.39px;stroke-linejoin:miter;stroke-miterlimit:1;"/><path d="M130.857,303.725l27.728,-16.009" style="fill:none;stroke:#ff0076;stroke-width:1.69px;stroke-dasharray:0,3.39,0,0;"/><path d="M144.721,265.853c0.422,-0.244 0.764,-0.046 0.764,0.441c0,0.487 -0.342,1.08 -0.764,1.323c-0.422,0.244 -0.764,0.046 -0.764,-0.441c0,-0.487 0.342,-1.08 0.764,-1.323Z" style="fill:#3d3d3d;"/><path d="M135.894,295.002c1.048,-0.606 1.899,-0.114 1.899,1.096c0,1.211 -0.851,2.685 -1.899,3.29c-1.049,0.605 -1.9,0.114 -1.9,-1.097c0,-1.21 0.851,-2.684 1.9,-3.289Z" style="fill:#00937b;"/><path d="M156.664,264.132c0,-0.381 -0.232,-0.556 -0.517,-0.391l-22.852,13.193c-0.285,0.165 -0.517,0.608 -0.517,0.988l0,1.38c0,0.38 0.232,0.555 0.517,0.39l22.852,-13.193c0.285,-0.165 0.517,-0.607 0.517,-0.988l0,-1.379Z" style="fill:#3d3d3d;"/><g transform="matrix(0.866025,-0.5,5.55112e-17,1.1547,14.2688,10.5461)"><text x="137.698px" y="291.786px" style="font-family:'ArialMT', 'Arial', sans-serif;font-size:1.433px;fill:#fff;">h<tspan x="138.619px 139.079px 139.538px 140.459px 141.286px 141.746px 142.206px " y="291.786px 291.786px 291.786px 291.786px 291.786px 291.786px 291.786px ">ttps://</tspan></text></g><path d="M138.285,303.427c1.064,-0.615 2.792,-0.615 3.856,0c1.063,0.614 1.063,1.611 0,2.226c-1.064,0.614 -2.792,0.614 -3.856,0c-1.064,-0.615 -1.064,-1.612 0,-2.226Z" style="fill:#7882ff;"/><path d="M143.132,306.225c1.064,-0.614 2.791,-0.614 3.855,0c1.064,0.614 1.064,1.612 0,2.226c-1.064,0.614 -2.791,0.614 -3.855,0c-1.064,-0.614 -1.064,-1.612 0,-2.226Z" style="fill:#7882ff;"/><path d="M147.979,309.023c1.064,-0.614 2.791,-0.614 3.855,0c1.064,0.615 1.064,1.612 0,2.226c-1.064,0.614 -2.791,0.614 -3.855,0c-1.064,-0.614 -1.064,-1.611 0,-2.226Z" style="fill:#7882ff;"/><path d="M158.327,290.24l-18.593,10.735l21.634,12.49l18.593,-10.734l-21.634,-12.491Z" style="fill:#7882ff;"/><path d="M158.559,291.448l-16.733,9.661l1.161,0.67l16.734,-9.661l-1.162,-0.67Z" style="fill:#fff;"/><path d="M156.234,295.473l-12.085,6.977l1.162,0.671l12.085,-6.978l-1.162,-0.67Z" style="fill:#fff;"/><path d="M163.206,294.13l-16.734,9.661l1.162,0.671l16.733,-9.661l-1.161,-0.671Z" style="fill:#fff;"/><path d="M165.677,300.925l-12.085,6.977l1.162,0.671l12.085,-6.978l-1.162,-0.67Z" style="fill:#fff;"/><path d="M168.002,296.9l-16.733,9.661l1.162,0.67l16.733,-9.661l-1.162,-0.67Z" style="fill:#fff;"/><path d="M170.228,303.552l-12.085,6.977l1.161,0.671l12.086,-6.977l-1.162,-0.671Z" style="fill:#fff;"/><path d="M172.553,299.527l-16.734,9.661l1.162,0.671l16.733,-9.661l-1.161,-0.671Z" style="fill:#fff;"/><path d="M160.881,298.155l-12.085,6.978l1.161,0.67l12.085,-6.977l-1.161,-0.671Z" style="fill:#fff;"/><path d="M155.448,268.914l-21.454,12.386l0,13.684l21.454,-12.386l0,-13.684Z" style="fill:#00ffd6;"/><path d="M151.103,287.64l-12.068,6.967l0,1.548l12.068,-6.967l0,-1.548Z" style="fill:#00937b;"/><path d="M141.021,281.419l5.263,-3.039l0,1.472l2.137,-2.428l0,4.777l-2.137,0.04l0,1.472l-5.263,3.039l0,-5.333Z" style="fill:#00937b;"/></g><g><path d="M978.282,327.647l51.019,29.456c2.449,1.413 6.158,1.567 8.279,0.343l75.499,-43.59c2.12,-1.224 1.854,-3.366 -0.594,-4.78l-51.02,-29.456" style="fill:#fff;stroke:#3d3d3d;stroke-width:3.39px;stroke-linejoin:miter;stroke-miterlimit:1;"/><path d="M1061.46,279.62l0,-58.912c0,-2.827 -1.721,-4.128 -3.842,-2.904l-75.499,43.59c-2.121,1.224 -3.842,4.513 -3.842,7.341l0,58.912" style="fill:#fff;stroke:#3d3d3d;stroke-width:3.39px;stroke-linejoin:miter;stroke-miterlimit:1;"/><path d="M1019.87,243.403c0.422,-0.244 0.765,-0.046 0.765,0.441c0,0.487 -0.343,1.08 -0.765,1.323c-0.421,0.244 -0.764,0.046 -0.764,-0.441c0,-0.487 0.343,-1.08 0.764,-1.323Z" style="fill:#3d3d3d;"/><path d="M1056.29,231.237c0,-1.16 -0.706,-1.694 -1.576,-1.192l-69.671,40.224c-0.87,0.503 -1.576,1.853 -1.576,3.013l0,4.204c0,1.161 0.706,1.695 1.576,1.192l69.671,-40.224c0.87,-0.502 1.576,-1.852 1.576,-3.012l0,-4.205Z" style="fill:#3d3d3d;"/><g transform="matrix(0.866025,-0.5,5.55112e-17,1.1547,121.027,410.282)"><text x="998.463px" y="315.549px" style="font-family:'ArialMT', 'Arial', sans-serif;font-size:4.369px;fill:#fff;">h<tspan x="1001.27px 1002.67px 1004.07px 1006.88px 1009.4px 1010.8px 1012.21px " y="315.549px 315.549px 315.549px 315.549px 315.549px 315.549px 315.549px ">ttps://</tspan></text></g><path d="M1056.29,241.748l-58.259,33.636l0,37.162l58.259,-33.636l0,-37.162Z" style="fill:#00ffd6;"/><path d="M1034.44,283.793l-32.77,18.92l0,4.205l32.77,-18.92l0,-4.205Z" style="fill:#00937b;"/><path d="M988.924,280.64c3.014,-1.741 5.461,-0.328 5.461,3.153c0,3.481 -2.447,7.72 -5.461,9.46c-3.015,1.74 -5.462,0.328 -5.462,-3.153c0,-3.481 2.447,-7.72 5.462,-9.46Z" style="fill:#00937b;"/><path d="M993.487,323.927c3.332,-1.924 8.743,-1.924 12.075,0c3.332,1.923 3.332,5.047 0,6.971c-3.332,1.924 -8.743,1.924 -12.075,0c-3.332,-1.924 -3.332,-5.048 0,-6.971Z" style="fill:#7882ff;"/><path d="M1008.67,332.691c3.332,-1.924 8.743,-1.924 12.075,0c3.332,1.923 3.332,5.047 0,6.971c-3.332,1.924 -8.743,1.924 -12.075,0c-3.332,-1.924 -3.332,-5.048 0,-6.971Z" style="fill:#7882ff;"/><path d="M1023.85,341.455c3.332,-1.924 8.742,-1.924 12.074,0c3.333,1.923 3.333,5.047 0,6.971c-3.332,1.924 -8.742,1.924 -12.074,0c-3.333,-1.924 -3.333,-5.048 0,-6.971Z" style="fill:#7882ff;"/><path d="M1056.26,282.628l-58.23,33.619l50.936,29.407l58.229,-33.618l-50.935,-29.408Z" style="fill:#7882ff;"/><path d="M1056.98,286.41l-52.406,30.256l3.638,2.101l52.407,-30.257l-3.639,-2.1Z" style="fill:#fff;"/><path d="M1049.7,299.015l-37.849,21.853l3.638,2.1l37.849,-21.852l-3.638,-2.101Z" style="fill:#fff;"/><path d="M1071.54,294.812l-52.406,30.257l3.638,2.1l52.407,-30.257l-3.639,-2.1Z" style="fill:#fff;"/><path d="M1079.28,316.091l-37.849,21.852l3.638,2.1l37.849,-21.852l-3.638,-2.1Z" style="fill:#fff;"/><path d="M1086.56,303.485l-52.407,30.257l3.638,2.1l52.407,-30.257l-3.638,-2.1Z" style="fill:#fff;"/><path d="M1064.26,307.418l-37.85,21.852l3.639,2.1l37.849,-21.852l-3.638,-2.1Z" style="fill:#fff;"/><path d="M978.282,327.647l83.183,-48.027" style="fill:none;stroke:#ff0076;stroke-width:1.69px;stroke-dasharray:0,3.39,0,0;"/><path d="M1018.05,270.129l14.292,-8.252l0,3.998l5.803,-6.593l0,12.972l-5.803,0.107l0,3.998l-14.292,8.252l0,-14.482Z" style="fill:#00937b;"/></g><g><path d="M577.235,298.948l51.019,29.456c2.449,1.413 6.158,1.567 8.279,0.343l75.499,-43.59c2.121,-1.224 1.854,-3.366 -0.594,-4.779l-51.02,-29.456" style="fill:#fff;stroke:#3d3d3d;stroke-width:3.39px;stroke-linejoin:miter;stroke-miterlimit:1;"/><path d="M577.235,294.068l51.019,29.456c2.449,1.414 6.158,1.568 8.279,0.343l75.499,-43.589c2.121,-1.224 1.854,-3.366 -0.594,-4.78l-51.02,-29.456" style="fill:#fff;stroke:#3d3d3d;stroke-width:3.39px;stroke-linejoin:miter;stroke-miterlimit:1;"/><path d="M699.346,279.916c0.599,-0.346 0.665,-0.87 0.145,-1.17l-41.557,-23.993c-0.519,-0.299 -1.427,-0.262 -2.027,0.084l-2.171,1.254c-0.6,0.346 -0.665,0.87 -0.146,1.17l41.558,23.993c0.519,0.3 1.427,0.262 2.026,-0.084l2.172,-1.254Z" style="fill:#3d3d3d;"/><g transform="matrix(0.866025,0.5,-1,0.57735,296.826,-227.98)"><text x="691.689px" y="240.367px" style="font-family:'ArialMT', 'Arial', sans-serif;font-size:2.606px;fill:#fff;">h<tspan x="693.363px 694.199px 695.035px 696.709px 698.214px 699.05px 699.886px " y="240.367px 240.367px 240.367px 240.367px 240.367px 240.367px 240.367px ">ttps://</tspan></text></g><path d="M693.916,283.051l-34.751,-20.063l-19.197,11.083l34.751,20.064l19.197,-11.084Z" style="fill:#00ffd6;"/><path d="M665.681,284.305l-19.547,-11.285l-2.172,1.254l19.547,11.285l2.172,-1.254Z" style="fill:#00937b;"/><path d="M653.736,259.853c1.798,1.038 1.798,2.724 0,3.762c-1.799,1.038 -4.718,1.038 -6.516,0c-1.798,-1.038 -1.798,-2.724 0,-3.762c1.798,-1.038 4.717,-1.038 6.516,0Z" style="fill:#00937b;"/><path d="M667.853,271.766l8.525,4.922l-2.065,1.192l5.137,1.031l-6.702,3.869l-1.786,-2.965l-2.065,1.192l-8.525,-4.922l7.481,-4.319Z" style="fill:#00937b;"/><path d="M624.355,276.807c2.085,1.204 2.085,3.158 0,4.361c-2.084,1.204 -5.469,1.204 -7.554,0c-2.084,-1.203 -2.084,-3.157 0,-4.361c2.085,-1.203 5.47,-1.203 7.554,0Z" style="fill:#7882ff;"/><path d="M614.859,282.29c2.085,1.203 2.085,3.158 0,4.361c-2.085,1.204 -5.47,1.204 -7.554,0c-2.085,-1.203 -2.085,-3.158 0,-4.361c2.084,-1.204 5.469,-1.204 7.554,0Z" style="fill:#7882ff;"/><path d="M605.362,287.773c2.085,1.203 2.085,3.158 0,4.361c-2.084,1.204 -5.469,1.204 -7.554,0c-2.084,-1.203 -2.084,-3.158 0,-4.361c2.085,-1.204 5.47,-1.204 7.554,0Z" style="fill:#7882ff;"/><path d="M669.106,299.479l-36.429,-21.032l-31.865,18.397l36.428,21.032l31.866,-18.397Z" style="fill:#7882ff;"/><path d="M665.008,299.741l-32.786,-18.929l-2.276,1.314l32.786,18.929l2.276,-1.314Z" style="fill:#fff;"/><path d="M651.349,297.111l-23.679,-13.67l-2.276,1.314l23.679,13.671l2.276,-1.315Z" style="fill:#fff;"/><path d="M655.904,304.998l-32.786,-18.929l-2.276,1.314l32.786,18.929l2.276,-1.314Z" style="fill:#fff;"/><path d="M632.846,307.794l-23.678,-13.671l-2.276,1.314l23.678,13.671l2.276,-1.314Z" style="fill:#fff;"/><path d="M646.506,310.424l-32.786,-18.929l-2.276,1.314l32.786,18.929l2.276,-1.314Z" style="fill:#fff;"/><path d="M642.244,302.368l-23.678,-13.671l-2.276,1.314l23.678,13.671l2.276,-1.314Z" style="fill:#fff;"/><path d="M577.235,294.068l83.183,-48.026" style="fill:none;stroke:#3d3d3d;stroke-opacity:0.25;stroke-width:1.69px;"/><path d="M577.235,294.068l83.183,-48.026" style="fill:none;stroke:#ff0076;stroke-width:1.69px;stroke-dasharray:0,3.39,0,0;"/></g></svg>