<?xml version="1.0" encoding="UTF-8" standalone="no"?><!DOCTYPE svg PUBLIC "-//W3C//DTD SVG 1.1//EN" "http://www.w3.org/Graphics/SVG/1.1/DTD/svg11.dtd"><svg width="100%" height="100%" viewBox="0 0 92 74" version="1.1" xmlns="http://www.w3.org/2000/svg" xmlns:xlink="http://www.w3.org/1999/xlink" xml:space="preserve" xmlns:serif="http://www.serif.com/" style="fill-rule:evenodd;clip-rule:evenodd;stroke-linecap:round;stroke-miterlimit:1;"><g><path d="M65.676,44.027l11.43,-6.599c0.466,-0.269 -0.036,-0.995 -1.119,-1.621l-20.621,-11.906c-1.084,-0.626 -2.343,-0.915 -2.809,-0.646l-11.43,6.599" style="fill:#00ffd6;stroke:#3d3d3d;stroke-width:3px;"/><path d="M65.676,29.854l22.86,-13.198c0.932,-0.538 0.809,-1.483 -0.275,-2.109l-20.621,-11.906c-1.084,-0.625 -2.721,-0.696 -3.653,-0.158l-22.86,13.198" style="fill:#00ffd6;stroke:#3d3d3d;stroke-width:3px;"/><path d="M41.127,44.027l-22.848,13.191c-0.938,0.542 -0.82,1.49 0.263,2.116l20.621,11.906c1.084,0.626 2.726,0.694 3.665,0.152l22.848,-13.192" style="fill:#7882ff;stroke:#3d3d3d;stroke-width:3px;"/><path d="M65.676,29.854l-24.549,-14.173l0,28.346l24.549,14.173l0,-28.346Z" style="fill:#fff;"/><clipPath id="_clip1"><path d="M65.676,29.854l-24.549,-14.173l0,28.346l24.549,14.173l0,-28.346Z"/></clipPath><g clip-path="url(#_clip1)"><path d="M63.776,28.757c12.5,7.217 22.648,24.794 22.648,39.228c0,14.433 -10.148,20.292 -22.648,13.076c-12.5,-7.217 -22.649,-24.795 -22.649,-39.228c0,-14.434 10.149,-20.293 22.649,-13.076Z" style="fill:url(#_Radial2);"/><path d="M41.127,-10.471c12.5,7.217 22.649,24.794 22.649,39.228c0,14.433 -10.149,20.293 -22.649,13.076c-12.5,-7.217 -22.648,-24.795 -22.648,-39.228c0,-14.434 10.148,-20.293 22.648,-13.076Z" style="fill:url(#_Radial3);"/></g><path d="M65.676,29.854l-24.549,-14.173" style="fill:none;stroke:#ff0076;stroke-width:2px;stroke-linejoin:round;stroke-miterlimit:1.5;stroke-dasharray:0,4,0,0;"/><path d="M65.676,58.2l-24.549,-14.173" style="fill:none;stroke:#ff0076;stroke-width:2px;stroke-linejoin:round;stroke-miterlimit:1.5;stroke-dasharray:0,4,0,0;"/><path d="M41.206,44.073l-0.079,-28.392" style="fill:none;stroke:#3d3d3d;stroke-width:3px;"/><path d="M65.676,58.2l0,-28.346" style="fill:none;stroke:#3d3d3d;stroke-width:3px;"/></g><g><path d="M5.746,20.037c0,0.428 -0.112,0.812 -0.338,1.152c-0.225,0.341 -0.555,0.608 -0.989,0.801c-0.434,0.192 -0.948,0.289 -1.543,0.289c-0.714,0 -1.303,-0.132 -1.766,-0.396c-0.329,-0.189 -0.596,-0.442 -0.802,-0.759c-0.205,-0.316 -0.308,-0.624 -0.308,-0.923c0,-0.173 0.062,-0.322 0.185,-0.446c0.123,-0.123 0.28,-0.185 0.471,-0.185c0.155,0 0.285,0.048 0.392,0.144c0.107,0.097 0.198,0.24 0.274,0.429c0.092,0.225 0.191,0.413 0.298,0.564c0.107,0.151 0.258,0.276 0.452,0.374c0.194,0.098 0.448,0.147 0.764,0.147c0.434,0 0.787,-0.099 1.058,-0.297c0.271,-0.197 0.407,-0.444 0.407,-0.74c0,-0.234 -0.073,-0.425 -0.219,-0.571c-0.147,-0.146 -0.336,-0.258 -0.568,-0.335c-0.231,-0.077 -0.541,-0.159 -0.929,-0.246c-0.52,-0.119 -0.955,-0.258 -1.305,-0.417c-0.35,-0.159 -0.628,-0.376 -0.834,-0.65c-0.205,-0.275 -0.308,-0.617 -0.308,-1.025c0,-0.389 0.109,-0.734 0.326,-1.036c0.217,-0.302 0.531,-0.534 0.942,-0.697c0.411,-0.162 0.894,-0.243 1.45,-0.243c0.444,0 0.828,0.054 1.152,0.161c0.323,0.108 0.592,0.251 0.806,0.429c0.214,0.179 0.37,0.366 0.469,0.562c0.098,0.196 0.148,0.387 0.148,0.574c0,0.17 -0.062,0.323 -0.185,0.46c-0.124,0.137 -0.277,0.205 -0.462,0.205c-0.167,0 -0.295,-0.041 -0.382,-0.123c-0.087,-0.082 -0.181,-0.216 -0.283,-0.403c-0.132,-0.266 -0.29,-0.474 -0.474,-0.624c-0.184,-0.149 -0.48,-0.224 -0.888,-0.224c-0.378,0 -0.683,0.081 -0.915,0.243c-0.232,0.163 -0.347,0.358 -0.347,0.586c0,0.142 0.039,0.264 0.118,0.366c0.079,0.103 0.187,0.192 0.325,0.266c0.139,0.074 0.278,0.131 0.42,0.173c0.141,0.042 0.375,0.103 0.7,0.183c0.408,0.094 0.777,0.196 1.107,0.309c0.331,0.112 0.612,0.249 0.844,0.41c0.232,0.16 0.413,0.364 0.542,0.609c0.13,0.246 0.195,0.548 0.195,0.904Z" style="fill:#3d3d3d;fill-rule:nonzero;"/><path d="M11.724,20.649c0,0.164 -0.05,0.339 -0.15,0.526c-0.1,0.186 -0.253,0.364 -0.459,0.533c-0.205,0.168 -0.464,0.304 -0.777,0.407c-0.312,0.103 -0.664,0.154 -1.055,0.154c-0.832,0 -1.482,-0.237 -1.948,-0.711c-0.467,-0.474 -0.701,-1.109 -0.701,-1.906c0,-0.54 0.107,-1.018 0.321,-1.432c0.213,-0.415 0.523,-0.735 0.927,-0.962c0.404,-0.226 0.888,-0.34 1.45,-0.34c0.349,0 0.668,0.05 0.959,0.15c0.292,0.099 0.538,0.228 0.74,0.385c0.203,0.158 0.357,0.326 0.464,0.504c0.107,0.179 0.16,0.345 0.16,0.499c0,0.158 -0.06,0.291 -0.18,0.4c-0.12,0.109 -0.265,0.164 -0.436,0.164c-0.112,0 -0.205,-0.028 -0.279,-0.084c-0.074,-0.056 -0.157,-0.147 -0.249,-0.273c-0.164,-0.244 -0.336,-0.427 -0.515,-0.549c-0.18,-0.122 -0.407,-0.183 -0.684,-0.183c-0.397,0 -0.718,0.152 -0.961,0.455c-0.244,0.304 -0.365,0.719 -0.365,1.246c0,0.248 0.031,0.475 0.093,0.682c0.063,0.208 0.153,0.384 0.272,0.531c0.118,0.146 0.261,0.257 0.429,0.332c0.167,0.076 0.352,0.114 0.552,0.114c0.27,0 0.501,-0.061 0.693,-0.184c0.193,-0.122 0.363,-0.308 0.511,-0.559c0.082,-0.148 0.171,-0.263 0.266,-0.347c0.095,-0.083 0.212,-0.125 0.35,-0.125c0.165,0 0.301,0.061 0.41,0.183c0.108,0.122 0.162,0.252 0.162,0.39Z" style="fill:#3d3d3d;fill-rule:nonzero;"/><path d="M14.235,20.379l0,1.1c0,0.266 -0.064,0.466 -0.192,0.6c-0.129,0.133 -0.291,0.2 -0.489,0.2c-0.194,0 -0.353,-0.068 -0.478,-0.203c-0.125,-0.135 -0.188,-0.334 -0.188,-0.597l0,-3.664c0,-0.591 0.219,-0.887 0.656,-0.887c0.224,0 0.385,0.069 0.484,0.207c0.098,0.138 0.153,0.343 0.163,0.612c0.161,-0.269 0.326,-0.474 0.495,-0.612c0.17,-0.138 0.396,-0.207 0.678,-0.207c0.283,0 0.558,0.069 0.824,0.207c0.267,0.138 0.4,0.322 0.4,0.55c0,0.16 -0.057,0.293 -0.17,0.398c-0.114,0.104 -0.236,0.156 -0.368,0.156c-0.049,0 -0.168,-0.03 -0.358,-0.089c-0.189,-0.059 -0.355,-0.089 -0.5,-0.089c-0.197,0 -0.359,0.05 -0.484,0.152c-0.124,0.101 -0.221,0.251 -0.291,0.45c-0.069,0.2 -0.116,0.437 -0.143,0.711c-0.026,0.275 -0.039,0.61 -0.039,1.005Z" style="fill:#3d3d3d;fill-rule:nonzero;"/><path d="M20.83,19.926l-2.634,0c0.003,0.299 0.065,0.563 0.185,0.791c0.12,0.228 0.279,0.4 0.478,0.516c0.199,0.115 0.419,0.173 0.659,0.173c0.161,0 0.308,-0.018 0.441,-0.055c0.133,-0.037 0.262,-0.095 0.387,-0.174c0.125,-0.078 0.24,-0.163 0.345,-0.253c0.106,-0.09 0.242,-0.212 0.41,-0.366c0.069,-0.058 0.168,-0.087 0.296,-0.087c0.138,0 0.25,0.037 0.335,0.111c0.086,0.074 0.128,0.178 0.128,0.313c0,0.119 -0.047,0.258 -0.143,0.417c-0.095,0.159 -0.239,0.312 -0.431,0.458c-0.193,0.146 -0.434,0.268 -0.725,0.364c-0.291,0.097 -0.626,0.145 -1.004,0.145c-0.865,0 -1.537,-0.241 -2.017,-0.723c-0.48,-0.482 -0.72,-1.136 -0.72,-1.962c0,-0.389 0.059,-0.75 0.177,-1.082c0.118,-0.333 0.291,-0.618 0.518,-0.856c0.227,-0.238 0.506,-0.42 0.839,-0.547c0.332,-0.127 0.7,-0.191 1.104,-0.191c0.527,0 0.978,0.109 1.354,0.326c0.377,0.217 0.659,0.497 0.846,0.841c0.188,0.344 0.281,0.694 0.281,1.051c0,0.331 -0.097,0.545 -0.291,0.643c-0.194,0.098 -0.467,0.147 -0.818,0.147Zm-2.634,-0.747l2.441,0c-0.033,-0.45 -0.157,-0.786 -0.372,-1.01c-0.216,-0.223 -0.499,-0.335 -0.851,-0.335c-0.335,0 -0.611,0.114 -0.826,0.34c-0.216,0.227 -0.346,0.562 -0.392,1.005Z" style="fill:#3d3d3d;fill-rule:nonzero;"/><path d="M26.832,19.926l-2.634,0c0.004,0.299 0.065,0.563 0.185,0.791c0.12,0.228 0.28,0.4 0.479,0.516c0.199,0.115 0.418,0.173 0.658,0.173c0.161,0 0.309,-0.018 0.442,-0.055c0.133,-0.037 0.262,-0.095 0.387,-0.174c0.125,-0.078 0.24,-0.163 0.345,-0.253c0.105,-0.09 0.242,-0.212 0.41,-0.366c0.069,-0.058 0.167,-0.087 0.296,-0.087c0.138,0 0.249,0.037 0.335,0.111c0.085,0.074 0.128,0.178 0.128,0.313c0,0.119 -0.047,0.258 -0.143,0.417c-0.095,0.159 -0.239,0.312 -0.431,0.458c-0.193,0.146 -0.434,0.268 -0.725,0.364c-0.291,0.097 -0.626,0.145 -1.004,0.145c-0.865,0 -1.537,-0.241 -2.018,-0.723c-0.48,-0.482 -0.72,-1.136 -0.72,-1.962c0,-0.389 0.059,-0.75 0.178,-1.082c0.118,-0.333 0.291,-0.618 0.518,-0.856c0.227,-0.238 0.506,-0.42 0.838,-0.547c0.332,-0.127 0.701,-0.191 1.105,-0.191c0.526,0 0.978,0.109 1.354,0.326c0.377,0.217 0.659,0.497 0.846,0.841c0.187,0.344 0.281,0.694 0.281,1.051c0,0.331 -0.097,0.545 -0.291,0.643c-0.194,0.098 -0.467,0.147 -0.819,0.147Zm-2.634,-0.747l2.442,0c-0.033,-0.45 -0.157,-0.786 -0.372,-1.01c-0.216,-0.223 -0.499,-0.335 -0.851,-0.335c-0.336,0 -0.611,0.114 -0.826,0.34c-0.216,0.227 -0.347,0.562 -0.393,1.005Z" style="fill:#3d3d3d;fill-rule:nonzero;"/><path d="M30.3,17.656l0,0.159c0.237,-0.305 0.496,-0.529 0.777,-0.672c0.281,-0.144 0.604,-0.215 0.969,-0.215c0.355,0 0.672,0.076 0.952,0.227c0.279,0.151 0.488,0.364 0.626,0.641c0.089,0.16 0.147,0.334 0.173,0.52c0.026,0.187 0.039,0.425 0.039,0.714l0,2.449c0,0.263 -0.061,0.462 -0.185,0.597c-0.123,0.135 -0.283,0.203 -0.48,0.203c-0.201,0 -0.364,-0.069 -0.489,-0.207c-0.125,-0.139 -0.187,-0.336 -0.187,-0.593l0,-2.194c0,-0.434 -0.062,-0.765 -0.185,-0.995c-0.124,-0.23 -0.369,-0.345 -0.738,-0.345c-0.24,0 -0.458,0.07 -0.656,0.21c-0.197,0.14 -0.342,0.332 -0.434,0.576c-0.065,0.196 -0.098,0.562 -0.098,1.099l0,1.649c0,0.266 -0.064,0.466 -0.19,0.6c-0.127,0.133 -0.29,0.2 -0.491,0.2c-0.194,0 -0.353,-0.069 -0.478,-0.207c-0.125,-0.139 -0.188,-0.336 -0.188,-0.593l0,-3.804c0,-0.25 0.056,-0.438 0.168,-0.561c0.112,-0.124 0.265,-0.186 0.459,-0.186c0.118,0 0.225,0.027 0.32,0.082c0.096,0.055 0.172,0.137 0.23,0.246c0.057,0.109 0.086,0.242 0.086,0.4Z" style="fill:#3d3d3d;fill-rule:nonzero;"/><path d="M18.723,26.068l-2.885,0l0,1.807l2.412,0c0.224,0 0.39,0.049 0.501,0.147c0.11,0.098 0.165,0.229 0.165,0.393c0,0.164 -0.056,0.294 -0.168,0.391c-0.112,0.096 -0.278,0.144 -0.498,0.144l-2.412,0l0,2.329c0,0.295 -0.068,0.515 -0.205,0.658c-0.136,0.143 -0.311,0.214 -0.525,0.214c-0.217,0 -0.394,-0.072 -0.53,-0.217c-0.137,-0.144 -0.205,-0.363 -0.205,-0.655l0,-5.438c0,-0.206 0.031,-0.373 0.094,-0.504c0.062,-0.13 0.16,-0.225 0.293,-0.284c0.133,-0.059 0.304,-0.089 0.511,-0.089l3.452,0c0.234,0 0.407,0.05 0.521,0.152c0.113,0.101 0.17,0.233 0.17,0.397c0,0.167 -0.057,0.302 -0.17,0.403c-0.114,0.101 -0.287,0.152 -0.521,0.152Z" style="fill:#ff0076;fill-rule:nonzero;"/><path d="M25.067,29.476c0,0.392 -0.063,0.753 -0.188,1.084c-0.125,0.331 -0.306,0.616 -0.542,0.854c-0.237,0.238 -0.52,0.42 -0.849,0.547c-0.329,0.127 -0.699,0.19 -1.11,0.19c-0.407,0 -0.774,-0.064 -1.1,-0.193c-0.325,-0.128 -0.607,-0.312 -0.845,-0.552c-0.239,-0.239 -0.42,-0.522 -0.543,-0.848c-0.123,-0.326 -0.185,-0.687 -0.185,-1.082c0,-0.399 0.062,-0.763 0.187,-1.094c0.125,-0.331 0.305,-0.614 0.538,-0.849c0.234,-0.234 0.516,-0.415 0.848,-0.542c0.333,-0.127 0.699,-0.191 1.1,-0.191c0.408,0 0.778,0.065 1.11,0.193c0.332,0.129 0.617,0.312 0.853,0.55c0.237,0.238 0.417,0.52 0.541,0.848c0.123,0.328 0.185,0.69 0.185,1.085Zm-1.352,0c0,-0.537 -0.121,-0.955 -0.362,-1.253c-0.242,-0.299 -0.567,-0.449 -0.975,-0.449c-0.263,0 -0.495,0.067 -0.695,0.2c-0.201,0.134 -0.355,0.33 -0.464,0.591c-0.108,0.26 -0.163,0.564 -0.163,0.911c0,0.344 0.054,0.644 0.161,0.901c0.107,0.257 0.26,0.454 0.459,0.591c0.198,0.136 0.433,0.205 0.702,0.205c0.408,0 0.733,-0.151 0.975,-0.451c0.241,-0.301 0.362,-0.716 0.362,-1.246Z" style="fill:#ff0076;fill-rule:nonzero;"/><path d="M26.127,31.351l0,-5.707c0,-0.264 0.06,-0.463 0.18,-0.598c0.12,-0.135 0.282,-0.203 0.486,-0.203c0.204,0 0.368,0.067 0.493,0.2c0.125,0.134 0.188,0.334 0.188,0.601l0,5.707c0,0.267 -0.064,0.467 -0.19,0.6c-0.127,0.134 -0.291,0.2 -0.491,0.2c-0.197,0 -0.358,-0.069 -0.481,-0.207c-0.123,-0.138 -0.185,-0.336 -0.185,-0.593Z" style="fill:#ff0076;fill-rule:nonzero;"/><path d="M32.554,31.399l0,-0.13c-0.181,0.203 -0.359,0.367 -0.535,0.494c-0.176,0.127 -0.367,0.224 -0.572,0.289c-0.206,0.066 -0.43,0.099 -0.674,0.099c-0.322,0 -0.62,-0.066 -0.895,-0.2c-0.274,-0.133 -0.512,-0.324 -0.713,-0.571c-0.2,-0.248 -0.352,-0.538 -0.456,-0.873c-0.103,-0.334 -0.155,-0.695 -0.155,-1.084c0,-0.823 0.205,-1.464 0.616,-1.924c0.411,-0.459 0.952,-0.689 1.623,-0.689c0.388,0 0.715,0.065 0.982,0.195c0.266,0.13 0.526,0.331 0.779,0.6l0,-1.942c0,-0.27 0.055,-0.474 0.165,-0.612c0.11,-0.139 0.267,-0.208 0.471,-0.208c0.204,0 0.361,0.064 0.471,0.191c0.11,0.127 0.166,0.314 0.166,0.561l0,5.804c0,0.251 -0.06,0.439 -0.178,0.564c-0.118,0.126 -0.271,0.188 -0.459,0.188c-0.184,0 -0.336,-0.065 -0.456,-0.195c-0.12,-0.13 -0.18,-0.316 -0.18,-0.557Zm-2.649,-1.933c0,0.357 0.057,0.661 0.17,0.911c0.114,0.251 0.269,0.44 0.467,0.567c0.197,0.127 0.412,0.19 0.646,0.19c0.236,0 0.453,-0.06 0.648,-0.181c0.196,-0.12 0.352,-0.305 0.469,-0.554c0.117,-0.249 0.175,-0.56 0.175,-0.933c0,-0.35 -0.058,-0.651 -0.175,-0.904c-0.117,-0.252 -0.275,-0.445 -0.474,-0.578c-0.199,-0.133 -0.416,-0.2 -0.653,-0.2c-0.247,0 -0.467,0.068 -0.661,0.205c-0.194,0.136 -0.345,0.332 -0.451,0.588c-0.107,0.255 -0.161,0.552 -0.161,0.889Z" style="fill:#ff0076;fill-rule:nonzero;"/><path d="M22.734,41.103l-0.346,-0.887l-2.939,0l-0.346,0.906c-0.135,0.354 -0.25,0.592 -0.345,0.716c-0.095,0.124 -0.252,0.186 -0.469,0.186c-0.184,0 -0.347,-0.066 -0.488,-0.198c-0.141,-0.132 -0.212,-0.281 -0.212,-0.448c0,-0.097 0.016,-0.196 0.049,-0.299c0.033,-0.103 0.087,-0.246 0.163,-0.429l1.85,-4.589c0.052,-0.132 0.116,-0.29 0.19,-0.475c0.074,-0.185 0.153,-0.338 0.236,-0.46c0.084,-0.123 0.194,-0.221 0.331,-0.297c0.136,-0.075 0.305,-0.113 0.505,-0.113c0.204,0 0.374,0.038 0.511,0.113c0.136,0.076 0.247,0.173 0.33,0.292c0.084,0.119 0.155,0.246 0.213,0.383c0.057,0.136 0.13,0.319 0.219,0.547l1.889,4.56c0.148,0.347 0.222,0.6 0.222,0.757c0,0.164 -0.07,0.314 -0.21,0.451c-0.139,0.136 -0.308,0.205 -0.505,0.205c-0.115,0 -0.214,-0.02 -0.296,-0.061c-0.082,-0.04 -0.151,-0.094 -0.207,-0.163c-0.056,-0.07 -0.116,-0.176 -0.18,-0.319c-0.064,-0.143 -0.119,-0.269 -0.165,-0.378Zm-2.901,-1.962l2.161,0l-1.09,-2.916l-1.071,2.916Z" style="fill:#3d3d3d;fill-rule:nonzero;"/><path d="M28.179,39.151l-1.342,0l0,2c0,0.286 -0.069,0.503 -0.207,0.651c-0.138,0.148 -0.312,0.222 -0.523,0.222c-0.22,0 -0.398,-0.073 -0.532,-0.22c-0.135,-0.146 -0.203,-0.36 -0.203,-0.643l0,-5.447c0,-0.315 0.074,-0.54 0.222,-0.675c0.148,-0.135 0.383,-0.203 0.706,-0.203l1.879,0c0.556,0 0.983,0.042 1.282,0.126c0.296,0.08 0.552,0.213 0.767,0.4c0.216,0.186 0.379,0.414 0.491,0.684c0.112,0.27 0.168,0.574 0.168,0.911c0,0.72 -0.227,1.266 -0.681,1.637c-0.454,0.371 -1.129,0.557 -2.027,0.557Zm-0.355,-3.24l-0.987,0l0,2.16l0.987,0c0.345,0 0.634,-0.036 0.865,-0.106c0.232,-0.071 0.409,-0.187 0.531,-0.347c0.121,-0.161 0.182,-0.371 0.182,-0.632c0,-0.311 -0.094,-0.565 -0.281,-0.761c-0.21,-0.209 -0.643,-0.314 -1.297,-0.314Z" style="fill:#3d3d3d;fill-rule:nonzero;"/><path d="M32.169,41.151l0,-5.568c0,-0.289 0.068,-0.506 0.202,-0.65c0.135,-0.145 0.31,-0.217 0.523,-0.217c0.221,0 0.399,0.071 0.535,0.214c0.137,0.143 0.205,0.361 0.205,0.653l0,5.568c0,0.293 -0.068,0.511 -0.205,0.656c-0.136,0.144 -0.314,0.217 -0.535,0.217c-0.21,0 -0.384,-0.073 -0.52,-0.22c-0.137,-0.146 -0.205,-0.364 -0.205,-0.653Z" style="fill:#3d3d3d;fill-rule:nonzero;"/></g><defs><radialGradient id="_Radial2" cx="0" cy="0" r="1" gradientUnits="userSpaceOnUse" gradientTransform="matrix(22.6483,13.076,-4.33838e-15,26.152,63.7756,54.9087)"><stop offset="0" style="stop-color:#7882ff;stop-opacity:1"/><stop offset="0.55" style="stop-color:#959dff;stop-opacity:0.79"/><stop offset="1" style="stop-color:#fff;stop-opacity:0"/></radialGradient><radialGradient id="_Radial3" cx="0" cy="0" r="1" gradientUnits="userSpaceOnUse" gradientTransform="matrix(22.6483,13.076,-4.33838e-15,26.152,41.1273,15.6807)"><stop offset="0" style="stop-color:#00ffd6;stop-opacity:1"/><stop offset="0.55" style="stop-color:#36ffdf;stop-opacity:0.79"/><stop offset="1" style="stop-color:#fff;stop-opacity:0"/></radialGradient></defs></svg>