<?xml version="1.0" encoding="UTF-8" standalone="no"?><!DOCTYPE svg PUBLIC "-//W3C//DTD SVG 1.1//EN" "http://www.w3.org/Graphics/SVG/1.1/DTD/svg11.dtd"><svg width="100%" height="100%" viewBox="0 0 76 74" version="1.1" xmlns="http://www.w3.org/2000/svg" xmlns:xlink="http://www.w3.org/1999/xlink" xml:space="preserve" xmlns:serif="http://www.serif.com/" style="fill-rule:evenodd;clip-rule:evenodd;stroke-linecap:round;stroke-miterlimit:1;"><g><path d="M50.152,44.027l11.429,-6.599c0.467,-0.269 -0.035,-0.995 -1.119,-1.621l-20.621,-11.906c-1.084,-0.626 -2.342,-0.915 -2.808,-0.646l-11.43,6.599" style="fill:#00ffd6;stroke:#3d3d3d;stroke-width:3px;"/><path d="M50.152,29.854l22.859,-13.198c0.933,-0.538 0.809,-1.483 -0.274,-2.109l-20.621,-11.906c-1.084,-0.625 -2.721,-0.696 -3.654,-0.158l-22.859,13.198" style="fill:#00ffd6;stroke:#3d3d3d;stroke-width:3px;"/><path d="M25.603,44.027l-22.848,13.191c-0.939,0.542 -0.821,1.49 0.263,2.116l20.621,11.906c1.084,0.626 2.726,0.694 3.665,0.152l22.848,-13.192" style="fill:#7882ff;stroke:#3d3d3d;stroke-width:3px;"/><path d="M50.152,29.854l-24.549,-14.173l0,28.346l24.549,14.173l0,-28.346Z" style="fill:#fff;"/><clipPath id="_clip1"><path d="M50.152,29.854l-24.549,-14.173l0,28.346l24.549,14.173l0,-28.346Z"/></clipPath><g clip-path="url(#_clip1)"><path d="M48.251,28.757c12.5,7.217 22.648,24.794 22.648,39.228c0,14.433 -10.148,20.292 -22.648,13.076c-12.5,-7.217 -22.648,-24.795 -22.648,-39.228c0,-14.434 10.148,-20.293 22.648,-13.076Z" style="fill:url(#_Radial2);"/><path d="M25.603,-10.471c12.5,7.217 22.648,24.794 22.648,39.228c0,14.433 -10.148,20.293 -22.648,13.076c-12.5,-7.217 -22.648,-24.795 -22.648,-39.228c0,-14.434 10.148,-20.293 22.648,-13.076Z" style="fill:url(#_Radial3);"/></g><path d="M50.152,29.854l-24.549,-14.173" style="fill:none;stroke:#ff0076;stroke-width:2px;stroke-linejoin:round;stroke-miterlimit:1.5;stroke-dasharray:0,4,0,0;"/><path d="M50.152,58.2l-24.549,-14.173" style="fill:none;stroke:#ff0076;stroke-width:2px;stroke-linejoin:round;stroke-miterlimit:1.5;stroke-dasharray:0,4,0,0;"/><path d="M25.682,44.073l-0.079,-28.392" style="fill:none;stroke:#3d3d3d;stroke-width:3px;"/><path d="M50.152,58.2l0,-28.346" style="fill:none;stroke:#3d3d3d;stroke-width:3px;"/></g><defs><radialGradient id="_Radial2" cx="0" cy="0" r="1" gradientUnits="userSpaceOnUse" gradientTransform="matrix(22.6483,13.076,-4.33838e-15,26.152,48.2512,54.9087)"><stop offset="0" style="stop-color:#7882ff;stop-opacity:1"/><stop offset="0.55" style="stop-color:#959dff;stop-opacity:0.79"/><stop offset="1" style="stop-color:#fff;stop-opacity:0"/></radialGradient><radialGradient id="_Radial3" cx="0" cy="0" r="1" gradientUnits="userSpaceOnUse" gradientTransform="matrix(22.6483,13.076,-4.33838e-15,26.152,25.6029,15.6807)"><stop offset="0" style="stop-color:#00ffd6;stop-opacity:1"/><stop offset="0.55" style="stop-color:#36ffdf;stop-opacity:0.79"/><stop offset="1" style="stop-color:#fff;stop-opacity:0"/></radialGradient></defs></svg>