<?xml version="1.0" encoding="UTF-8" standalone="no"?><!DOCTYPE svg PUBLIC "-//W3C//DTD SVG 1.1//EN" "http://www.w3.org/Graphics/SVG/1.1/DTD/svg11.dtd"><svg width="100%" height="100%" viewBox="0 0 11 11" version="1.1" xmlns="http://www.w3.org/2000/svg" xmlns:xlink="http://www.w3.org/1999/xlink" xml:space="preserve" xmlns:serif="http://www.serif.com/" style="fill-rule:evenodd;clip-rule:evenodd;stroke-linecap:round;stroke-miterlimit:1;"><path d="M5.902,0.025c-0.346,-0.033 -0.695,-0.033 -1.041,0l-0.161,0.9c-0.327,0.05 -0.648,0.136 -0.956,0.256l-0.59,-0.698c-0.316,0.144 -0.618,0.318 -0.901,0.52l0.31,0.86c-0.258,0.207 -0.493,0.442 -0.7,0.7l-0.86,-0.31c-0.202,0.283 -0.376,0.585 -0.52,0.901l0.698,0.59c-0.12,0.308 -0.206,0.629 -0.256,0.956l-0.9,0.161c-0.033,0.346 -0.033,0.695 0,1.041l0.9,0.162c0.05,0.327 0.136,0.647 0.256,0.956l-0.698,0.589c0.144,0.317 0.318,0.619 0.52,0.902l0.86,-0.31c0.207,0.258 0.442,0.493 0.7,0.699l-0.31,0.86c0.283,0.203 0.585,0.377 0.901,0.521l0.59,-0.699c0.308,0.121 0.629,0.207 0.956,0.257l0.161,0.899c0.346,0.034 0.695,0.034 1.041,0l0.162,-0.899c0.327,-0.05 0.647,-0.136 0.956,-0.257l0.589,0.699c0.317,-0.144 0.619,-0.318 0.902,-0.521l-0.31,-0.86c0.258,-0.206 0.493,-0.441 0.699,-0.699l0.86,0.31c0.203,-0.283 0.377,-0.585 0.521,-0.902l-0.699,-0.589c0.121,-0.309 0.207,-0.629 0.257,-0.956l0.899,-0.162c0.034,-0.346 0.034,-0.695 0,-1.041l-0.899,-0.161c-0.05,-0.327 -0.136,-0.648 -0.257,-0.956l0.699,-0.59c-0.144,-0.316 -0.318,-0.618 -0.521,-0.901l-0.86,0.31c-0.206,-0.258 -0.441,-0.493 -0.699,-0.7l0.31,-0.86c-0.283,-0.202 -0.585,-0.376 -0.902,-0.52l-0.589,0.698c-0.309,-0.12 -0.629,-0.206 -0.956,-0.256l-0.162,-0.9Z" style="fill:#3d3d3d;"/><g><path d="M6.472,6.011l1.015,-0.586c0.041,-0.024 -0.003,-0.088 -0.1,-0.144l-1.831,-1.057c-0.096,-0.056 -0.208,-0.081 -0.249,-0.058l-1.015,0.587" style="fill:#3d3d3d;stroke:#fff;stroke-width:0.27px;"/><path d="M6.472,4.753l2.03,-1.173c0.082,-0.047 0.072,-0.131 -0.025,-0.187l-1.831,-1.057c-0.096,-0.056 -0.242,-0.062 -0.324,-0.014l-2.03,1.172" style="fill:#3d3d3d;stroke:#fff;stroke-width:0.27px;"/><path d="M4.292,6.011l-2.03,1.172c-0.083,0.048 -0.072,0.132 0.024,0.188l1.831,1.057c0.096,0.055 0.242,0.061 0.326,0.013l2.029,-1.171" style="fill:#3d3d3d;stroke:#fff;stroke-width:0.27px;"/><path d="M6.472,4.753l-2.18,-1.259l0,2.517l2.18,1.259l0,-2.517Z" style="fill:#3d3d3d;"/><path d="M6.472,4.753l-2.18,-1.259" style="fill:none;stroke:#fff;stroke-width:0.18px;stroke-linejoin:round;stroke-miterlimit:1.5;stroke-dasharray:0,0.36,0,0;"/><path d="M6.472,7.27l-2.18,-1.259" style="fill:none;stroke:#fff;stroke-width:0.18px;stroke-linejoin:round;stroke-miterlimit:1.5;stroke-dasharray:0,0.36,0,0;"/><path d="M4.299,6.015l-0.007,-2.521" style="fill:none;stroke:#fff;stroke-width:0.27px;"/><path d="M6.472,7.27l0,-2.517" style="fill:none;stroke:#fff;stroke-width:0.27px;"/></g></svg>