<?xml version="1.0" encoding="UTF-8" standalone="no"?><!DOCTYPE svg PUBLIC "-//W3C//DTD SVG 1.1//EN" "http://www.w3.org/Graphics/SVG/1.1/DTD/svg11.dtd"><svg width="100%" height="100%" viewBox="0 0 231 49" version="1.1" xmlns="http://www.w3.org/2000/svg" xmlns:xlink="http://www.w3.org/1999/xlink" xml:space="preserve" xmlns:serif="http://www.serif.com/" style="fill-rule:evenodd;clip-rule:evenodd;stroke-linecap:round;stroke-miterlimit:1;"><path d="M33.112,29.069l7.547,-4.357c0.308,-0.178 -0.023,-0.658 -0.739,-1.071l-6.608,-3.815" style="fill:none;stroke:#fff;stroke-width:1.98px;"/><path d="M33.112,19.711l15.093,-8.714c0.616,-0.355 0.535,-0.979 -0.181,-1.392l-13.615,-7.861c-0.716,-0.413 -1.796,-0.46 -2.412,-0.105l-15.093,8.714" style="fill:none;stroke:#fff;stroke-width:1.98px;"/><path d="M16.904,29.069l-15.085,8.709c-0.62,0.358 -0.542,0.984 0.174,1.397l13.615,7.861c0.715,0.413 1.799,0.458 2.419,0.1l15.085,-8.709" style="fill:none;stroke:#fff;stroke-width:1.98px;"/><path d="M33.112,19.711l-16.208,-9.358l0,18.716l16.208,9.358l0,-18.716Z" style="fill:none;"/><path d="M33.112,19.711l-16.208,-9.358" style="fill:none;stroke:#fff;stroke-width:1.32px;stroke-linejoin:round;stroke-miterlimit:1.5;stroke-dasharray:0,2.64,0,0;"/><path d="M33.112,38.427l-16.208,-9.358" style="fill:none;stroke:#fff;stroke-width:1.32px;stroke-linejoin:round;stroke-miterlimit:1.5;stroke-dasharray:0,2.64,0,0;"/><path d="M16.956,29.099l-0.052,-18.746" style="fill:none;stroke:#fff;stroke-width:1.98px;"/><path d="M33.112,38.427l0,-18.716" style="fill:none;stroke:#fff;stroke-width:1.98px;"/><g><path d="M65.3,25.241c0,0.834 -0.214,1.584 -0.644,2.249c-0.43,0.666 -1.059,1.186 -1.888,1.563c-0.828,0.376 -1.81,0.565 -2.946,0.565c-1.361,0 -2.484,-0.258 -3.369,-0.772c-0.628,-0.37 -1.138,-0.864 -1.53,-1.483c-0.392,-0.618 -0.588,-1.218 -0.588,-1.802c0,-0.339 0.118,-0.629 0.353,-0.871c0.235,-0.241 0.535,-0.362 0.899,-0.362c0.295,0 0.544,0.094 0.748,0.282c0.204,0.189 0.378,0.468 0.523,0.838c0.175,0.439 0.365,0.806 0.569,1.101c0.204,0.295 0.491,0.538 0.861,0.73c0.37,0.191 0.857,0.287 1.459,0.287c0.828,0 1.501,-0.193 2.019,-0.579c0.518,-0.386 0.777,-0.868 0.777,-1.445c0,-0.458 -0.14,-0.83 -0.419,-1.115c-0.279,-0.286 -0.64,-0.504 -1.083,-0.654c-0.442,-0.151 -1.033,-0.311 -1.774,-0.48c-0.991,-0.233 -1.821,-0.504 -2.489,-0.815c-0.669,-0.31 -1.199,-0.734 -1.591,-1.27c-0.392,-0.537 -0.588,-1.203 -0.588,-2c0,-0.76 0.207,-1.434 0.621,-2.024c0.414,-0.59 1.013,-1.043 1.798,-1.36c0.784,-0.317 1.706,-0.475 2.767,-0.475c0.847,0 1.579,0.105 2.198,0.315c0.618,0.21 1.131,0.489 1.538,0.838c0.408,0.348 0.706,0.713 0.895,1.096c0.188,0.383 0.282,0.756 0.282,1.12c0,0.333 -0.118,0.632 -0.353,0.899c-0.235,0.267 -0.529,0.4 -0.88,0.4c-0.32,0 -0.563,-0.08 -0.729,-0.24c-0.167,-0.16 -0.347,-0.422 -0.542,-0.786c-0.251,-0.521 -0.552,-0.927 -0.903,-1.219c-0.352,-0.292 -0.916,-0.437 -1.694,-0.437c-0.722,0 -1.304,0.158 -1.746,0.475c-0.443,0.317 -0.664,0.698 -0.664,1.143c0,0.277 0.075,0.515 0.226,0.716c0.15,0.201 0.358,0.373 0.621,0.517c0.264,0.145 0.53,0.258 0.8,0.339c0.27,0.082 0.715,0.201 1.337,0.358c0.778,0.182 1.482,0.383 2.113,0.602c0.63,0.22 1.167,0.487 1.609,0.8c0.443,0.314 0.788,0.711 1.036,1.191c0.247,0.48 0.371,1.068 0.371,1.765Z" style="fill:#fff;fill-rule:nonzero;"/><path d="M76.708,26.436c0,0.32 -0.095,0.662 -0.287,1.026c-0.191,0.364 -0.483,0.711 -0.875,1.04c-0.392,0.33 -0.887,0.595 -1.483,0.796c-0.596,0.2 -1.267,0.301 -2.014,0.301c-1.587,0 -2.827,-0.463 -3.718,-1.388c-0.891,-0.926 -1.336,-2.167 -1.336,-3.723c0,-1.054 0.204,-1.986 0.611,-2.796c0.408,-0.809 0.998,-1.435 1.77,-1.877c0.772,-0.443 1.694,-0.664 2.767,-0.664c0.665,0 1.276,0.097 1.831,0.292c0.555,0.194 1.026,0.445 1.412,0.753c0.386,0.307 0.681,0.635 0.885,0.983c0.203,0.349 0.305,0.673 0.305,0.975c0,0.307 -0.114,0.568 -0.343,0.781c-0.229,0.213 -0.507,0.32 -0.833,0.32c-0.213,0 -0.391,-0.055 -0.532,-0.165c-0.141,-0.11 -0.3,-0.287 -0.475,-0.532c-0.314,-0.476 -0.642,-0.834 -0.984,-1.073c-0.342,-0.238 -0.776,-0.357 -1.303,-0.357c-0.76,0 -1.371,0.296 -1.836,0.889c-0.464,0.593 -0.696,1.404 -0.696,2.433c0,0.483 0.059,0.927 0.178,1.332c0.12,0.405 0.292,0.75 0.518,1.036c0.226,0.285 0.499,0.501 0.819,0.649c0.32,0.147 0.671,0.221 1.054,0.221c0.515,0 0.956,-0.119 1.323,-0.358c0.367,-0.238 0.691,-0.602 0.974,-1.091c0.157,-0.289 0.326,-0.515 0.508,-0.678c0.182,-0.163 0.405,-0.245 0.668,-0.245c0.314,0 0.575,0.119 0.782,0.358c0.207,0.238 0.31,0.492 0.31,0.762Z" style="fill:#fff;fill-rule:nonzero;"/><path d="M81.499,25.909l0,2.146c0,0.521 -0.122,0.912 -0.367,1.172c-0.245,0.26 -0.555,0.391 -0.932,0.391c-0.37,0 -0.674,-0.132 -0.913,-0.396c-0.238,-0.263 -0.357,-0.652 -0.357,-1.167l0,-7.153c0,-1.155 0.417,-1.732 1.251,-1.732c0.427,0 0.735,0.135 0.923,0.405c0.188,0.269 0.292,0.668 0.31,1.195c0.308,-0.527 0.623,-0.926 0.946,-1.195c0.324,-0.27 0.755,-0.405 1.295,-0.405c0.539,0 1.063,0.135 1.571,0.405c0.509,0.269 0.763,0.627 0.763,1.073c0,0.313 -0.108,0.572 -0.325,0.776c-0.216,0.204 -0.45,0.306 -0.701,0.306c-0.094,0 -0.322,-0.058 -0.682,-0.174c-0.361,-0.116 -0.68,-0.174 -0.956,-0.174c-0.376,0 -0.684,0.099 -0.922,0.296c-0.239,0.198 -0.424,0.491 -0.556,0.88c-0.131,0.389 -0.222,0.852 -0.273,1.389c-0.05,0.536 -0.075,1.19 -0.075,1.962Z" style="fill:#fff;fill-rule:nonzero;"/><path d="M94.084,25.024l-5.027,0c0.007,0.584 0.124,1.099 0.353,1.544c0.229,0.446 0.534,0.781 0.913,1.007c0.38,0.226 0.799,0.339 1.257,0.339c0.307,0 0.588,-0.036 0.842,-0.108c0.254,-0.072 0.501,-0.185 0.739,-0.339c0.239,-0.154 0.458,-0.318 0.659,-0.494c0.201,-0.176 0.461,-0.414 0.781,-0.716c0.132,-0.112 0.32,-0.169 0.565,-0.169c0.263,0 0.477,0.072 0.64,0.217c0.163,0.144 0.245,0.348 0.245,0.611c0,0.233 -0.091,0.504 -0.273,0.815c-0.182,0.31 -0.457,0.608 -0.824,0.894c-0.367,0.285 -0.828,0.522 -1.383,0.71c-0.556,0.189 -1.194,0.283 -1.916,0.283c-1.65,0 -2.933,-0.471 -3.85,-1.412c-0.916,-0.941 -1.374,-2.218 -1.374,-3.831c0,-0.759 0.113,-1.464 0.339,-2.113c0.226,-0.65 0.555,-1.206 0.988,-1.671c0.433,-0.464 0.967,-0.82 1.6,-1.068c0.634,-0.248 1.337,-0.372 2.109,-0.372c1.004,0 1.865,0.212 2.584,0.635c0.718,0.424 1.256,0.971 1.614,1.643c0.357,0.671 0.536,1.355 0.536,2.052c0,0.646 -0.185,1.065 -0.555,1.256c-0.37,0.192 -0.891,0.287 -1.562,0.287Zm-5.027,-1.458l4.659,0c-0.062,-0.879 -0.299,-1.536 -0.71,-1.972c-0.411,-0.436 -0.952,-0.655 -1.624,-0.655c-0.64,0 -1.165,0.222 -1.576,0.664c-0.411,0.442 -0.661,1.097 -0.749,1.963Z" style="fill:#fff;fill-rule:nonzero;"/><path d="M105.538,25.024l-5.026,0c0.006,0.584 0.124,1.099 0.353,1.544c0.229,0.446 0.533,0.781 0.913,1.007c0.38,0.226 0.799,0.339 1.257,0.339c0.307,0 0.588,-0.036 0.842,-0.108c0.254,-0.072 0.501,-0.185 0.739,-0.339c0.238,-0.154 0.458,-0.318 0.659,-0.494c0.201,-0.176 0.461,-0.414 0.781,-0.716c0.132,-0.112 0.32,-0.169 0.565,-0.169c0.263,0 0.477,0.072 0.64,0.217c0.163,0.144 0.245,0.348 0.245,0.611c0,0.233 -0.091,0.504 -0.273,0.815c-0.182,0.31 -0.457,0.608 -0.824,0.894c-0.367,0.285 -0.828,0.522 -1.384,0.71c-0.555,0.189 -1.193,0.283 -1.915,0.283c-1.65,0 -2.934,-0.471 -3.85,-1.412c-0.916,-0.941 -1.374,-2.218 -1.374,-3.831c0,-0.759 0.113,-1.464 0.339,-2.113c0.226,-0.65 0.555,-1.206 0.988,-1.671c0.433,-0.464 0.967,-0.82 1.6,-1.068c0.634,-0.248 1.337,-0.372 2.109,-0.372c1.004,0 1.865,0.212 2.583,0.635c0.719,0.424 1.257,0.971 1.615,1.643c0.357,0.671 0.536,1.355 0.536,2.052c0,0.646 -0.185,1.065 -0.555,1.256c-0.37,0.192 -0.891,0.287 -1.563,0.287Zm-5.026,-1.458l4.659,0c-0.062,-0.879 -0.299,-1.536 -0.71,-1.972c-0.411,-0.436 -0.953,-0.655 -1.624,-0.655c-0.64,0 -1.166,0.222 -1.577,0.664c-0.411,0.442 -0.66,1.097 -0.748,1.963Z" style="fill:#fff;fill-rule:nonzero;"/><path d="M112.155,20.591l0,0.311c0.452,-0.596 0.946,-1.034 1.483,-1.313c0.536,-0.279 1.153,-0.419 1.849,-0.419c0.678,0 1.283,0.147 1.817,0.442c0.533,0.295 0.932,0.713 1.195,1.252c0.17,0.314 0.279,0.653 0.33,1.017c0.05,0.364 0.075,0.828 0.075,1.393l0,4.781c0,0.515 -0.118,0.904 -0.353,1.167c-0.235,0.264 -0.541,0.396 -0.918,0.396c-0.382,0 -0.693,-0.135 -0.932,-0.405c-0.238,-0.27 -0.357,-0.656 -0.357,-1.158l0,-4.282c0,-0.848 -0.118,-1.495 -0.353,-1.944c-0.235,-0.449 -0.705,-0.673 -1.407,-0.673c-0.458,0 -0.876,0.136 -1.252,0.409c-0.377,0.273 -0.653,0.648 -0.828,1.125c-0.126,0.383 -0.189,1.098 -0.189,2.146l0,3.219c0,0.521 -0.12,0.912 -0.362,1.172c-0.242,0.26 -0.554,0.391 -0.937,0.391c-0.37,0 -0.674,-0.135 -0.913,-0.405c-0.238,-0.27 -0.357,-0.656 -0.357,-1.158l0,-7.426c0,-0.49 0.106,-0.855 0.32,-1.097c0.213,-0.241 0.505,-0.362 0.875,-0.362c0.226,0 0.43,0.053 0.612,0.16c0.182,0.107 0.328,0.267 0.438,0.48c0.109,0.213 0.164,0.474 0.164,0.781Z" style="fill:#fff;fill-rule:nonzero;"/><path d="M134.707,17.739l-5.506,0l0,3.53l4.603,0c0.426,0 0.745,0.096 0.955,0.287c0.21,0.191 0.315,0.447 0.315,0.767c0,0.32 -0.106,0.574 -0.32,0.762c-0.213,0.189 -0.53,0.283 -0.95,0.283l-4.603,0l0,4.546c0,0.577 -0.13,1.006 -0.39,1.285c-0.261,0.279 -0.595,0.419 -1.003,0.419c-0.414,0 -0.751,-0.141 -1.012,-0.424c-0.26,-0.282 -0.39,-0.709 -0.39,-1.28l0,-10.617c0,-0.402 0.059,-0.73 0.178,-0.984c0.12,-0.254 0.306,-0.439 0.561,-0.555c0.254,-0.116 0.578,-0.174 0.974,-0.174l6.588,0c0.446,0 0.777,0.099 0.993,0.296c0.217,0.198 0.325,0.457 0.325,0.777c0,0.326 -0.108,0.588 -0.325,0.786c-0.216,0.197 -0.547,0.296 -0.993,0.296Z" style="fill:#fff;fill-rule:nonzero;"/><path d="M146.812,24.394c0,0.765 -0.12,1.471 -0.358,2.118c-0.238,0.646 -0.584,1.201 -1.035,1.666c-0.452,0.464 -0.992,0.82 -1.619,1.068c-0.628,0.248 -1.334,0.372 -2.118,0.372c-0.778,0 -1.478,-0.126 -2.099,-0.377c-0.621,-0.251 -1.159,-0.61 -1.614,-1.078c-0.455,-0.467 -0.8,-1.019 -1.036,-1.656c-0.235,-0.637 -0.353,-1.341 -0.353,-2.113c0,-0.778 0.12,-1.49 0.358,-2.137c0.239,-0.646 0.581,-1.198 1.026,-1.656c0.446,-0.458 0.985,-0.811 1.619,-1.059c0.634,-0.248 1.333,-0.372 2.099,-0.372c0.778,0 1.484,0.125 2.118,0.376c0.634,0.251 1.176,0.609 1.628,1.073c0.452,0.465 0.795,1.017 1.031,1.657c0.235,0.64 0.353,1.346 0.353,2.118Zm-2.579,0c0,-1.048 -0.231,-1.864 -0.692,-2.447c-0.461,-0.584 -1.081,-0.876 -1.859,-0.876c-0.502,0 -0.944,0.13 -1.327,0.391c-0.383,0.26 -0.678,0.645 -0.885,1.153c-0.207,0.508 -0.311,1.101 -0.311,1.779c0,0.671 0.102,1.258 0.306,1.76c0.204,0.502 0.496,0.886 0.876,1.153c0.379,0.267 0.826,0.4 1.341,0.4c0.778,0 1.398,-0.293 1.859,-0.88c0.461,-0.587 0.692,-1.398 0.692,-2.433Z" style="fill:#fff;fill-rule:nonzero;"/><path d="M148.835,28.055l0,-11.144c0,-0.515 0.115,-0.904 0.344,-1.167c0.229,-0.264 0.538,-0.395 0.927,-0.395c0.389,0 0.703,0.13 0.941,0.39c0.239,0.261 0.358,0.651 0.358,1.172l0,11.144c0,0.521 -0.121,0.912 -0.362,1.172c-0.242,0.26 -0.554,0.391 -0.937,0.391c-0.376,0 -0.682,-0.135 -0.918,-0.405c-0.235,-0.27 -0.353,-0.656 -0.353,-1.158Z" style="fill:#fff;fill-rule:nonzero;"/><path d="M161.1,28.149l0,-0.254c-0.345,0.396 -0.686,0.717 -1.022,0.965c-0.335,0.248 -0.699,0.436 -1.091,0.565c-0.393,0.128 -0.821,0.193 -1.285,0.193c-0.615,0 -1.185,-0.131 -1.709,-0.391c-0.523,-0.26 -0.977,-0.632 -1.36,-1.115c-0.382,-0.483 -0.673,-1.051 -0.87,-1.704c-0.198,-0.653 -0.297,-1.358 -0.297,-2.118c0,-1.606 0.392,-2.858 1.177,-3.755c0.784,-0.898 1.816,-1.346 3.096,-1.346c0.741,0 1.365,0.127 1.874,0.381c0.508,0.254 1.004,0.645 1.487,1.172l0,-3.793c0,-0.527 0.105,-0.926 0.315,-1.196c0.21,-0.27 0.51,-0.404 0.899,-0.404c0.389,0 0.689,0.123 0.899,0.371c0.21,0.248 0.315,0.614 0.315,1.097l0,11.332c0,0.49 -0.113,0.857 -0.339,1.102c-0.226,0.244 -0.517,0.367 -0.875,0.367c-0.351,0 -0.642,-0.127 -0.871,-0.382c-0.229,-0.254 -0.343,-0.616 -0.343,-1.087Zm-5.055,-3.774c0,0.697 0.108,1.289 0.325,1.779c0.216,0.489 0.513,0.858 0.889,1.106c0.377,0.248 0.788,0.372 1.233,0.372c0.452,0 0.865,-0.118 1.238,-0.353c0.374,-0.236 0.672,-0.596 0.894,-1.083c0.223,-0.486 0.335,-1.093 0.335,-1.821c0,-0.684 -0.112,-1.272 -0.335,-1.765c-0.222,-0.492 -0.524,-0.869 -0.903,-1.129c-0.38,-0.261 -0.796,-0.391 -1.247,-0.391c-0.471,0 -0.891,0.133 -1.262,0.4c-0.37,0.267 -0.657,0.65 -0.861,1.148c-0.204,0.499 -0.306,1.078 -0.306,1.737Z" style="fill:#fff;fill-rule:nonzero;"/><path d="M176.461,24.008l-2.56,0l0,3.906c0,0.559 -0.132,0.982 -0.396,1.271c-0.263,0.288 -0.596,0.433 -0.997,0.433c-0.421,0 -0.76,-0.143 -1.017,-0.429c-0.257,-0.285 -0.386,-0.704 -0.386,-1.256l0,-10.636c0,-0.615 0.141,-1.054 0.424,-1.318c0.282,-0.263 0.731,-0.395 1.346,-0.395l3.586,0c1.06,0 1.876,0.081 2.447,0.245c0.565,0.156 1.053,0.417 1.464,0.781c0.411,0.364 0.723,0.809 0.936,1.336c0.213,0.527 0.32,1.12 0.32,1.779c0,1.406 -0.433,2.471 -1.299,3.196c-0.866,0.725 -2.155,1.087 -3.868,1.087Zm-0.678,-6.325l-1.882,0l0,4.217l1.882,0c0.659,0 1.21,-0.069 1.652,-0.208c0.442,-0.138 0.78,-0.363 1.012,-0.677c0.232,-0.314 0.348,-0.725 0.348,-1.233c0,-0.609 -0.179,-1.105 -0.537,-1.487c-0.401,-0.408 -1.226,-0.612 -2.475,-0.612Z" style="fill:#fff;fill-rule:nonzero;"/><path d="M192.669,24.394c0,0.765 -0.119,1.471 -0.358,2.118c-0.238,0.646 -0.583,1.201 -1.035,1.666c-0.452,0.464 -0.992,0.82 -1.619,1.068c-0.628,0.248 -1.334,0.372 -2.118,0.372c-0.778,0 -1.478,-0.126 -2.099,-0.377c-0.621,-0.251 -1.159,-0.61 -1.614,-1.078c-0.455,-0.467 -0.8,-1.019 -1.035,-1.656c-0.236,-0.637 -0.353,-1.341 -0.353,-2.113c0,-0.778 0.119,-1.49 0.357,-2.137c0.239,-0.646 0.581,-1.198 1.026,-1.656c0.446,-0.458 0.985,-0.811 1.619,-1.059c0.634,-0.248 1.334,-0.372 2.099,-0.372c0.778,0 1.484,0.125 2.118,0.376c0.634,0.251 1.176,0.609 1.628,1.073c0.452,0.465 0.796,1.017 1.031,1.657c0.235,0.64 0.353,1.346 0.353,2.118Zm-2.579,0c0,-1.048 -0.231,-1.864 -0.692,-2.447c-0.461,-0.584 -1.081,-0.876 -1.859,-0.876c-0.502,0 -0.944,0.13 -1.327,0.391c-0.383,0.26 -0.678,0.645 -0.885,1.153c-0.207,0.508 -0.31,1.101 -0.31,1.779c0,0.671 0.102,1.258 0.305,1.76c0.204,0.502 0.496,0.886 0.876,1.153c0.379,0.267 0.827,0.4 1.341,0.4c0.778,0 1.398,-0.293 1.859,-0.88c0.461,-0.587 0.692,-1.398 0.692,-2.433Z" style="fill:#fff;fill-rule:nonzero;"/><path d="M194.693,28.055l0,-11.144c0,-0.515 0.114,-0.904 0.343,-1.167c0.229,-0.264 0.538,-0.395 0.927,-0.395c0.389,0 0.703,0.13 0.941,0.39c0.239,0.261 0.358,0.651 0.358,1.172l0,11.144c0,0.521 -0.121,0.912 -0.362,1.172c-0.242,0.26 -0.554,0.391 -0.937,0.391c-0.376,0 -0.682,-0.135 -0.918,-0.405c-0.235,-0.27 -0.352,-0.656 -0.352,-1.158Z" style="fill:#fff;fill-rule:nonzero;"/><path d="M202.288,29.938l0.236,-0.574l-3.163,-7.963c-0.194,-0.458 -0.292,-0.791 -0.292,-0.998c0,-0.22 0.057,-0.424 0.17,-0.612c0.113,-0.188 0.268,-0.339 0.466,-0.452c0.197,-0.113 0.403,-0.169 0.616,-0.169c0.37,0 0.65,0.118 0.838,0.353c0.188,0.235 0.354,0.572 0.499,1.012l2.174,6.325l2.061,-5.883c0.163,-0.477 0.311,-0.85 0.443,-1.12c0.131,-0.27 0.271,-0.452 0.418,-0.546c0.148,-0.094 0.357,-0.141 0.626,-0.141c0.195,0 0.382,0.052 0.56,0.155c0.179,0.104 0.317,0.243 0.415,0.419c0.097,0.176 0.145,0.361 0.145,0.555c-0.025,0.12 -0.065,0.289 -0.122,0.509c-0.056,0.219 -0.125,0.442 -0.207,0.668l-3.351,8.772c-0.288,0.772 -0.571,1.378 -0.847,1.817c-0.276,0.439 -0.641,0.776 -1.096,1.012c-0.455,0.235 -1.069,0.353 -1.841,0.353c-0.753,0 -1.317,-0.082 -1.694,-0.245c-0.376,-0.163 -0.565,-0.461 -0.565,-0.894c0,-0.295 0.09,-0.523 0.269,-0.683c0.179,-0.16 0.444,-0.24 0.795,-0.24c0.138,0 0.273,0.019 0.405,0.057c0.163,0.038 0.304,0.056 0.423,0.056c0.295,0 0.527,-0.044 0.697,-0.131c0.169,-0.088 0.321,-0.24 0.456,-0.457c0.135,-0.216 0.291,-0.535 0.466,-0.955Z" style="fill:#fff;fill-rule:nonzero;"/><path d="M210.157,19.396l0.612,0l0,-0.772c0,-0.803 0.102,-1.442 0.306,-1.915c0.204,-0.474 0.549,-0.819 1.035,-1.036c0.486,-0.216 1.153,-0.324 2,-0.324c1.5,0 2.25,0.367 2.25,1.101c0,0.238 -0.079,0.442 -0.235,0.612c-0.157,0.169 -0.342,0.254 -0.556,0.254c-0.1,0 -0.273,-0.019 -0.517,-0.057c-0.245,-0.037 -0.452,-0.056 -0.622,-0.056c-0.464,0 -0.762,0.136 -0.894,0.409c-0.132,0.273 -0.198,0.664 -0.198,1.172l0,0.612l0.631,0c0.979,0 1.468,0.295 1.468,0.885c0,0.42 -0.13,0.687 -0.39,0.8c-0.261,0.113 -0.62,0.169 -1.078,0.169l-0.631,0l0,6.805c0,0.509 -0.12,0.896 -0.362,1.163c-0.241,0.266 -0.554,0.4 -0.936,0.4c-0.364,0 -0.667,-0.134 -0.909,-0.4c-0.241,-0.267 -0.362,-0.654 -0.362,-1.163l0,-6.805l-0.706,0c-0.383,0 -0.678,-0.086 -0.885,-0.259c-0.207,-0.172 -0.31,-0.397 -0.31,-0.673c0,-0.615 0.429,-0.922 1.289,-0.922Z" style="fill:#fff;fill-rule:nonzero;"/><path d="M219.588,20.629l0,7.426c0,0.515 -0.122,0.904 -0.367,1.167c-0.245,0.264 -0.555,0.396 -0.932,0.396c-0.376,0 -0.682,-0.135 -0.917,-0.405c-0.236,-0.27 -0.353,-0.656 -0.353,-1.158l0,-7.351c0,-0.508 0.117,-0.891 0.353,-1.148c0.235,-0.257 0.541,-0.386 0.917,-0.386c0.377,0 0.687,0.129 0.932,0.386c0.245,0.257 0.367,0.615 0.367,1.073Zm-1.27,-2.654c-0.358,0 -0.664,-0.11 -0.918,-0.33c-0.254,-0.219 -0.381,-0.53 -0.381,-0.932c0,-0.364 0.13,-0.663 0.39,-0.899c0.261,-0.235 0.563,-0.353 0.909,-0.353c0.332,0 0.627,0.107 0.884,0.32c0.258,0.214 0.386,0.524 0.386,0.932c0,0.396 -0.125,0.705 -0.376,0.927c-0.251,0.223 -0.549,0.335 -0.894,0.335Z" style="fill:#fff;fill-rule:nonzero;"/><path d="M222.243,28.055l0,-11.144c0,-0.515 0.114,-0.904 0.343,-1.167c0.229,-0.264 0.538,-0.395 0.927,-0.395c0.389,0 0.703,0.13 0.941,0.39c0.239,0.261 0.358,0.651 0.358,1.172l0,11.144c0,0.521 -0.121,0.912 -0.362,1.172c-0.242,0.26 -0.554,0.391 -0.937,0.391c-0.376,0 -0.682,-0.135 -0.917,-0.405c-0.236,-0.27 -0.353,-0.656 -0.353,-1.158Z" style="fill:#fff;fill-rule:nonzero;"/><path d="M227.466,28.055l0,-11.144c0,-0.515 0.115,-0.904 0.344,-1.167c0.229,-0.264 0.538,-0.395 0.927,-0.395c0.389,0 0.703,0.13 0.941,0.39c0.239,0.261 0.358,0.651 0.358,1.172l0,11.144c0,0.521 -0.121,0.912 -0.362,1.172c-0.242,0.26 -0.554,0.391 -0.937,0.391c-0.376,0 -0.682,-0.135 -0.918,-0.405c-0.235,-0.27 -0.353,-0.656 -0.353,-1.158Z" style="fill:#fff;fill-rule:nonzero;"/></g></svg>